<svg width="168" height="103" viewBox="0 0 168 103" fill="none" xmlns="http://www.w3.org/2000/svg">
<path fill-rule="evenodd" clip-rule="evenodd" d="M120.526 3.99218C125.707 2.92263 131.718 3.56823 135.873 5.93652L156.724 17.8202C156.724 17.8203 156.724 17.8203 156.724 17.8203C157.853 18.4636 158.761 19.1863 159.448 19.9574C160.518 21.1571 161.052 22.474 161.053 23.7921L161.053 33.7919C161.053 34.4682 160.912 35.1448 160.631 35.806C160.014 37.2534 158.724 38.627 156.758 39.7621L156.758 39.7621L52.8348 99.762L52.8346 99.762C51.3998 100.59 49.7411 101.213 47.9702 101.631C42.6575 102.882 36.3351 102.281 32.0167 99.8202L32.0166 99.8201L11.1653 87.9365V87.9364C8.28001 86.292 6.83682 84.129 6.83715 81.9632L6.83715 81.9631V72.012C6.81575 69.8395 8.24682 67.6603 11.1318 65.9946L115.055 5.99462C115.055 5.99461 115.055 5.9946 115.055 5.99459C116.652 5.07229 118.527 4.40468 120.526 3.99218Z" fill="url(#paint0_linear_1224_117)"/>
<rect x="0.867415" y="-0.00242229" width="144.565" height="46.8542" rx="11.5" transform="matrix(0.866025 -0.5 0.868804 0.495155 0.118316 73.2147)" fill="url(#paint1_linear_1224_117)"/>
<rect x="0.867415" y="-0.00242229" width="144.565" height="46.8542" rx="11.5" transform="matrix(0.866025 -0.5 0.868804 0.495155 0.118316 73.2147)" stroke="url(#paint2_linear_1224_117)"/>
<path d="M61.8753 66.8886L59.9267 68.0136L53.3648 60.2035L55.6184 58.9024L69.2808 62.6131L67.3322 63.7381L56.6042 60.7119L56.5255 60.7573L61.8753 66.8886ZM57.9753 64.5926L63.2896 61.5244L64.7606 62.3628L59.4464 65.431L57.9753 64.5926ZM69.9153 62.2467L59.8056 56.4849L61.5868 55.4565L65.3681 57.6116L65.4419 57.569C65.3495 57.4109 65.2832 57.2245 65.2432 57.0097C65.1999 56.7931 65.2469 56.5602 65.3842 56.311C65.5182 56.06 65.8066 55.8066 66.2495 55.5509C66.8334 55.2138 67.5096 54.9952 68.2782 54.895C69.0468 54.7911 69.8601 54.8256 70.7181 54.9985C71.5762 55.1676 72.4264 55.4922 73.2689 55.9724C74.1015 56.4469 74.6729 56.9288 74.9831 57.4179C75.2934 57.9071 75.3669 58.3743 75.2039 58.8196C75.0409 59.2648 74.6625 59.6589 74.0687 60.0017C73.6357 60.2517 73.2041 60.4178 72.7739 60.5001C72.3437 60.5823 71.9397 60.6155 71.5618 60.5996C71.1838 60.5799 70.8552 60.545 70.5758 60.4949L70.4724 60.5545L71.667 61.2354L69.9153 62.2467ZM67.871 59.0775C68.3613 59.357 68.8597 59.562 69.366 59.6925C69.8757 59.8211 70.3654 59.8688 70.8351 59.8354C71.3049 59.7983 71.7284 59.6708 72.1056 59.453C72.4993 59.2258 72.7236 58.9754 72.7787 58.702C72.8305 58.4266 72.7394 58.1451 72.5053 57.8574C72.2712 57.5659 71.9172 57.2851 71.4433 57.015C70.9727 56.7468 70.4875 56.5475 69.9877 56.4169C69.4879 56.2864 69.0015 56.2387 68.5285 56.274C68.0554 56.3092 67.6205 56.4414 67.2235 56.6706C66.843 56.8903 66.6203 57.1341 66.5553 57.4019C66.4903 57.6697 66.57 57.9465 66.7942 58.2324C67.0217 58.5164 67.3806 58.7981 67.871 59.0775ZM81.3166 55.8341C80.5785 56.2603 79.7759 56.5367 78.9088 56.6636C78.0418 56.7904 77.1661 56.773 76.2818 56.6115C75.4007 56.4481 74.5686 56.1432 73.7854 55.6968C73.0021 55.2505 72.4636 54.7742 72.1698 54.268C71.8792 53.7599 71.8416 53.2568 72.0571 52.7586C72.2726 52.2604 72.7494 51.7982 73.4874 51.3721C74.2255 50.946 75.0281 50.6695 75.8952 50.5427C76.7622 50.4159 77.6379 50.4351 78.5222 50.6004C79.4098 50.7637 80.2453 51.0686 81.0285 51.515C81.8117 51.9614 82.347 52.4377 82.6343 52.9439C82.9248 53.4482 82.9624 53.9495 82.7469 54.4477C82.5314 54.9458 82.0546 55.408 81.3166 55.8341ZM79.8948 55.0126C80.2951 54.7815 80.5194 54.5255 80.5679 54.2445C80.6131 53.9617 80.5137 53.6755 80.2698 53.3859C80.0291 53.0944 79.6784 52.8174 79.2177 52.5548C78.7537 52.2904 78.2668 52.0901 77.7572 51.9539C77.2475 51.814 76.7463 51.7579 76.2535 51.7856C75.7607 51.8134 75.3142 51.9428 74.914 52.1739C74.504 52.4106 74.2747 52.6713 74.2262 52.9561C74.181 53.2389 74.2804 53.527 74.5243 53.8204C74.7683 54.1099 75.1223 54.387 75.5863 54.6514C76.047 54.914 76.5306 55.1143 77.037 55.2524C77.5466 55.3885 78.0478 55.4427 78.5406 55.415C79.0334 55.3834 79.4848 55.2493 79.8948 55.0126ZM87.2374 48.5873L82.844 46.0833L84.6253 45.0549L92.2076 49.3763L90.4805 50.3735L89.1328 49.6054L89.0541 49.6509C89.308 49.9913 89.3748 50.3511 89.2542 50.7303C89.137 51.1076 88.7946 51.46 88.2271 51.7877C87.7318 52.0737 87.1836 52.2637 86.5826 52.3577C85.9816 52.448 85.3622 52.4337 84.7244 52.3148C84.0834 52.1941 83.4601 51.9612 82.8546 51.6161L78.0268 48.8646L79.808 47.8362L84.3594 50.4301C84.8398 50.704 85.3528 50.8458 85.8983 50.8556C86.4437 50.8653 86.9297 50.7471 87.3561 50.5009C87.6186 50.3494 87.8086 50.166 87.9263 49.9509C88.044 49.7357 88.0548 49.5104 87.9589 49.2751C87.863 49.036 87.6225 48.8067 87.2374 48.5873ZM89.5383 42.2184L90.9204 43.0062L86.5756 45.5147L85.1934 44.727L89.5383 42.2184ZM84.4495 43.0723L86.2307 42.0439L93.349 46.1008C93.5892 46.2377 93.8096 46.3219 94.0101 46.3534C94.2106 46.3811 94.3946 46.3731 94.5621 46.3292C94.7295 46.2854 94.887 46.2209 95.0347 46.1357C95.1462 46.0713 95.2397 46.0079 95.3151 45.9455C95.3937 45.8812 95.4511 45.8311 95.4871 45.7951L97.1843 46.418C97.1221 46.4917 97.0221 46.591 96.8845 46.7157C96.7501 46.8386 96.5599 46.9749 96.3139 47.1244C95.8809 47.3895 95.4116 47.5831 94.906 47.7051C94.397 47.8253 93.8796 47.8559 93.3537 47.7971C92.8311 47.7363 92.3345 47.57 91.8639 47.298L84.4495 43.0723ZM96.9832 35.0204L98.8087 33.9665L105.414 37.7308C106.138 38.1434 106.604 38.6048 106.812 39.115C107.024 39.6233 106.978 40.1427 106.674 40.6732C106.366 41.2018 105.803 41.7028 104.982 42.1763C104.159 42.6517 103.288 42.9792 102.368 43.159C101.445 43.3368 100.54 43.3667 99.6528 43.2485C98.7653 43.1304 97.9596 42.865 97.2356 42.4524L90.6307 38.6881L92.4562 37.6341L98.9081 41.3112C99.3293 41.5513 99.7963 41.712 100.309 41.7935C100.825 41.8731 101.346 41.8689 101.871 41.7807C102.394 41.6907 102.886 41.5121 103.348 41.2451C103.811 40.978 104.119 40.6944 104.273 40.3943C104.426 40.0905 104.43 39.7917 104.285 39.4981C104.14 39.2045 103.856 38.9376 103.435 38.6975L96.9832 35.0204ZM108.356 31.6429C107.879 31.4237 107.35 31.3441 106.768 31.4042C106.19 31.4623 105.63 31.6477 105.089 31.9602C104.709 32.1799 104.44 32.4011 104.283 32.624C104.126 32.8468 104.074 33.0562 104.127 33.252C104.18 33.4479 104.332 33.619 104.582 33.7653C104.792 33.8853 105.023 33.962 105.272 33.9952C105.525 34.0265 105.79 34.0249 106.066 33.9902C106.338 33.9536 106.613 33.8972 106.888 33.8211C107.164 33.7449 107.43 33.6612 107.686 33.57L108.868 33.1596C109.337 32.9906 109.823 32.8479 110.325 32.7315C110.831 32.6132 111.339 32.5392 111.848 32.5095C112.36 32.478 112.861 32.5077 113.351 32.5986C113.841 32.6896 114.305 32.8599 114.742 33.1093C115.335 33.4469 115.706 33.8313 115.855 34.2625C116 34.6918 115.915 35.1435 115.597 35.6174C115.28 36.0876 114.718 36.5557 113.911 37.0216C113.127 37.4743 112.324 37.7978 111.503 37.9924C110.686 38.185 109.881 38.2419 109.089 38.1631C108.3 38.0824 107.557 37.8583 106.859 37.4908L108.655 36.4539C109.034 36.6394 109.435 36.7438 109.859 36.7672C110.283 36.7905 110.705 36.7469 111.125 36.6364C111.548 36.524 111.95 36.358 112.331 36.1383C112.728 35.9091 113.016 35.6746 113.196 35.4347C113.377 35.1911 113.445 34.9591 113.402 34.7387C113.355 34.5164 113.188 34.3218 112.902 34.1548C112.636 34.0067 112.341 33.9274 112.019 33.917C111.694 33.9047 111.338 33.9443 110.95 34.0359C110.563 34.1237 110.142 34.2455 109.689 34.4013L108.247 34.8944C107.203 35.2517 106.223 35.4457 105.306 35.4766C104.389 35.5036 103.569 35.3108 102.845 34.8982C102.249 34.5587 101.889 34.1686 101.762 33.7279C101.64 33.2854 101.734 32.8328 102.045 32.3701C102.352 31.9056 102.858 31.4698 103.564 31.0626C104.279 30.6497 105.031 30.3592 105.819 30.1911C106.607 30.0193 107.375 29.97 108.125 30.0433C108.871 30.1148 109.533 30.3099 110.113 30.6287L108.356 31.6429Z" fill="white"/>
<defs>
<linearGradient id="paint0_linear_1224_117" x1="83.9447" y1="3.49219" x2="83.9447" y2="102.264" gradientUnits="userSpaceOnUse">
<stop stop-color="#5561FF"/>
<stop offset="1" stop-color="#3643FC"/>
<stop offset="1" stop-color="#3643FC"/>
</linearGradient>
<linearGradient id="paint1_linear_1224_117" x1="72.7824" y1="0" x2="72.7824" y2="47.8542" gradientUnits="userSpaceOnUse">
<stop stop-color="#5561FF"/>
<stop offset="1" stop-color="#3643FC"/>
</linearGradient>
<linearGradient id="paint2_linear_1224_117" x1="72.7824" y1="0" x2="72.7824" y2="47.8542" gradientUnits="userSpaceOnUse">
<stop stop-color="#6B75FF"/>
<stop offset="1" stop-color="#535FFF"/>
</linearGradient>
</defs>
</svg>
