<svg width="168" height="103" viewBox="0 0 168 103" fill="none" xmlns="http://www.w3.org/2000/svg">
<path fill-rule="evenodd" clip-rule="evenodd" d="M120.526 3.99243C125.707 2.92287 131.718 3.56848 135.873 5.93676L156.724 17.8205C156.724 17.8205 156.724 17.8205 156.724 17.8205C157.853 18.4639 158.761 19.1865 159.448 19.9577C160.518 21.1573 161.052 22.4743 161.053 23.7923L161.053 33.7922C161.053 34.4685 160.912 35.1451 160.631 35.8063C160.014 37.2537 158.724 38.6272 156.758 39.7623L156.758 39.7623L52.8348 99.7622L52.8346 99.7623C51.3998 100.591 49.7411 101.214 47.9702 101.631C42.6575 102.882 36.3351 102.282 32.0167 99.8204L32.0166 99.8204L11.1653 87.9368V87.9366C8.28001 86.2922 6.83682 84.1293 6.83715 81.9634L6.83715 81.9634V72.0122C6.81575 69.8398 8.24682 67.6605 11.1318 65.9949L115.055 5.99486C115.055 5.99485 115.055 5.99485 115.055 5.99483C116.652 5.07254 118.527 4.40492 120.526 3.99243Z" fill="url(#paint0_linear_1224_116)"/>
<rect x="0.867415" y="-0.00242229" width="144.565" height="46.8542" rx="11.5" transform="matrix(0.866025 -0.5 0.868804 0.495155 0.118316 73.2147)" fill="url(#paint1_linear_1224_116)"/>
<rect x="0.867415" y="-0.00242229" width="144.565" height="46.8542" rx="11.5" transform="matrix(0.866025 -0.5 0.868804 0.495155 0.118316 73.2147)" stroke="url(#paint2_linear_1224_116)"/>
<path d="M75.7367 58.8858L65.627 53.124L69.4847 50.8967C70.213 50.4763 70.9334 50.1925 71.646 50.0454C72.3585 49.8945 73.032 49.8624 73.6664 49.9493C74.3041 50.0342 74.873 50.2192 75.3732 50.5043C75.7846 50.7387 76.058 50.9849 76.1934 51.2427C76.3256 51.4987 76.3493 51.7549 76.2646 52.0115C76.1798 52.2681 76.013 52.5135 75.7639 52.748L75.8626 52.8042C76.2399 52.609 76.693 52.4739 77.2218 52.399C77.7506 52.3202 78.3009 52.3234 78.8729 52.4085C79.4448 52.4936 79.9875 52.6824 80.5009 52.975C81.0241 53.2733 81.3684 53.6144 81.5338 53.9984C81.6958 54.3806 81.6428 54.7869 81.3745 55.2174C81.1063 55.6478 80.5868 56.0856 79.8159 56.5307L75.7367 58.8858ZM76.0319 56.9597L77.9953 55.8262C78.6579 55.4436 79.0085 55.0958 79.0471 54.7828C79.0856 54.4661 78.9041 54.1933 78.5026 53.9645C78.2032 53.7938 77.8595 53.6826 77.4716 53.6309C77.0805 53.5773 76.6797 53.5898 76.2692 53.6682C75.8554 53.7447 75.4599 53.8919 75.0826 54.1097L73.0701 55.2717L76.0319 56.9597ZM71.7521 54.5205L73.558 53.4779C73.8729 53.296 74.099 53.0994 74.2365 52.8879C74.3706 52.6746 74.4028 52.4653 74.3333 52.26C74.2637 52.051 74.0808 51.8621 73.7846 51.6933C73.393 51.4701 72.9327 51.3658 72.4038 51.3805C71.8781 51.3933 71.3463 51.555 70.8083 51.8656L68.963 52.9309L71.7521 54.5205ZM75.7435 47.2832L85.8532 53.045L84.0719 54.0735L73.9622 48.3116L75.7435 47.2832ZM90.437 50.5685C89.6989 50.9946 88.8963 51.2711 88.0292 51.3979C87.1622 51.5248 86.2865 51.5074 85.4022 51.3459C84.5211 51.1825 83.689 50.8776 82.9058 50.4312C82.1225 49.9848 81.584 49.5085 81.2902 49.0024C80.9996 48.4943 80.9621 47.9911 81.1775 47.493C81.393 46.9948 81.8698 46.5326 82.6078 46.1065C83.3459 45.6803 84.1485 45.4039 85.0156 45.2771C85.8826 45.1502 86.7583 45.1695 87.6427 45.3347C88.5302 45.4981 89.3657 45.803 90.1489 46.2494C90.9321 46.6958 91.4674 47.1721 91.7547 47.6783C92.0452 48.1826 92.0828 48.6838 91.8673 49.182C91.6518 49.6802 91.175 50.1424 90.437 50.5685ZM89.0152 49.7469C89.4155 49.5159 89.6398 49.2599 89.6883 48.9789C89.7335 48.6961 89.6342 48.4098 89.3902 48.1203C89.1495 47.8288 88.7988 47.5518 88.3381 47.2892C87.8741 47.0247 87.3872 46.8244 86.8776 46.6883C86.3679 46.5483 85.8667 46.4922 85.3739 46.52C84.8811 46.5478 84.4346 46.6772 84.0344 46.9082C83.6244 47.145 83.3951 47.4057 83.3466 47.6905C83.3014 47.9733 83.4008 48.2614 83.6447 48.5547C83.8887 48.8443 84.2427 49.1213 84.7067 49.3858C85.1674 49.6484 85.651 49.8487 86.1574 49.9868C86.667 50.1229 87.1682 50.1771 87.661 50.1494C88.1538 50.1178 88.6052 49.9837 89.0152 49.7469ZM101.018 47.7331C100.378 48.1025 99.7414 48.37 99.1077 48.5357C98.4773 48.7034 97.8779 48.7851 97.3095 48.7811C96.7411 48.777 96.2266 48.7059 95.7663 48.5677L96.9804 47.4193C97.2007 47.462 97.4521 47.4849 97.7347 47.4879C98.0205 47.4927 98.3276 47.4551 98.656 47.375C98.9909 47.2949 99.3371 47.1517 99.6947 46.9452C100.2 46.6536 100.495 46.3417 100.579 46.0098C100.667 45.6797 100.431 45.3552 99.8717 45.0364L98.4352 44.2177L98.3467 44.2688C98.4391 44.4269 98.4938 44.6124 98.5109 44.8253C98.5312 45.0364 98.4628 45.2627 98.3058 45.5044C98.152 45.7442 97.8586 45.9891 97.4256 46.2391C96.845 46.5743 96.1819 46.8005 95.4364 46.9175C94.6908 47.0308 93.9055 47.0123 93.0804 46.8619C92.2552 46.7078 91.4297 46.3953 90.6036 45.9246C89.771 45.45 89.2062 44.9701 88.9091 44.4846C88.612 43.9954 88.5516 43.53 88.7278 43.0885C88.9007 42.6451 89.2775 42.2558 89.8581 41.9205C90.301 41.6649 90.7408 41.4978 91.1775 41.4193C91.6143 41.337 92.0233 41.3067 92.4045 41.3282C92.7824 41.3479 93.1078 41.3847 93.3807 41.4386L93.4791 41.3818L92.2252 40.6672L93.9819 39.6529L101.688 44.0446C102.336 44.4141 102.718 44.8089 102.834 45.2288C102.95 45.6488 102.847 46.0732 102.522 46.5019C102.198 46.9307 101.697 47.3411 101.018 47.7331ZM96.5206 45.1532C96.8979 44.9354 97.1272 44.6973 97.2086 44.4388C97.2901 44.1804 97.2269 43.9129 97.0191 43.6364C96.8114 43.3599 96.4656 43.0838 95.9818 42.8081C95.5046 42.5362 95.0178 42.3377 94.5213 42.2129C94.0281 42.0861 93.5499 42.0431 93.0867 42.084C92.6236 42.1211 92.2001 42.2504 91.8163 42.472C91.4193 42.7012 91.1917 42.9516 91.1333 43.2231C91.0749 43.4947 91.1595 43.7725 91.387 44.0564C91.6112 44.3385 91.952 44.6099 92.4095 44.8706C92.8735 45.1351 93.3472 45.3279 93.8305 45.4491C94.3138 45.5665 94.7854 45.6038 95.2453 45.561C95.7052 45.5145 96.1303 45.3786 96.5206 45.1532Z" fill="white"/>
<defs>
<linearGradient id="paint0_linear_1224_116" x1="83.9447" y1="3.49243" x2="83.9447" y2="102.265" gradientUnits="userSpaceOnUse">
<stop stop-color="#5561FF"/>
<stop offset="1" stop-color="#3643FC"/>
<stop offset="1" stop-color="#3643FC"/>
</linearGradient>
<linearGradient id="paint1_linear_1224_116" x1="72.7824" y1="0" x2="72.7824" y2="47.8542" gradientUnits="userSpaceOnUse">
<stop stop-color="#5561FF"/>
<stop offset="1" stop-color="#3643FC"/>
</linearGradient>
<linearGradient id="paint2_linear_1224_116" x1="72.7824" y1="0" x2="72.7824" y2="47.8542" gradientUnits="userSpaceOnUse">
<stop stop-color="#6B75FF"/>
<stop offset="1" stop-color="#535FFF"/>
</linearGradient>
</defs>
</svg>
