<svg width="811" height="600" viewBox="0 0 811 600" fill="none" xmlns="http://www.w3.org/2000/svg">
<g filter="url(#filter0_dddddd_45_4542)">
<path fill-rule="evenodd" clip-rule="evenodd" d="M479.047 32.9662C464.873 24.7831 441.89 24.7831 427.716 32.9663L136.775 200.926H136.775V200.926C129.689 205.017 126.145 210.379 126.144 215.741V215.745V240.437V240.438C126.143 245.801 129.687 251.164 136.775 255.257V255.256L331.67 367.769V367.769C345.845 375.952 368.827 375.952 383.002 367.769V367.768L673.942 199.809C674.955 199.224 675.896 198.613 676.764 197.98C681.212 194.737 683.759 190.91 684.407 186.999C684.518 186.331 684.573 185.661 684.573 184.991V184.99L684.573 184.953V160.334L684.573 160.298L684.573 160.294C684.572 154.932 681.028 149.57 673.942 145.479L479.047 32.9662ZM479.047 32.9662V57.6628L479.047 57.6624V32.9662L479.047 32.9662Z" fill="#30324A"/>
</g>
<rect width="392" height="280" rx="24" transform="matrix(0.866025 -0.5 0.862249 0.506485 114 206)" fill="#373951"/>
<path d="M307.531 172.954C305.924 173.882 304.28 174.531 302.602 174.9C300.923 175.248 299.069 175.386 297.042 175.314L297.082 172.045C298.427 172.104 299.681 172.033 300.843 171.834C302.005 171.613 303.095 171.209 304.111 170.622C305.035 170.089 305.58 169.581 305.748 169.098C305.934 168.605 305.733 168.186 305.144 167.84C304.611 167.527 304.012 167.369 303.349 167.366C302.685 167.364 301.957 167.452 301.163 167.632C300.388 167.801 299.558 168.012 298.672 168.267C297.805 168.51 296.91 168.738 295.987 168.949C295.046 169.15 294.087 169.286 293.11 169.357C292.132 169.407 291.156 169.339 290.179 169.153C289.185 168.956 288.191 168.566 287.197 167.982C286.002 167.28 285.258 166.509 284.966 165.671C284.693 164.822 284.853 163.969 285.446 163.112C286.02 162.245 286.982 161.422 288.331 160.643C289.698 159.854 291.184 159.274 292.789 158.904C294.413 158.524 296.008 158.364 297.575 158.423L297.535 161.692C296.337 161.677 295.286 161.759 294.382 161.938C293.496 162.106 292.675 162.409 291.917 162.847C291.16 163.284 290.707 163.717 290.558 164.146C290.39 164.564 290.573 164.93 291.107 165.243C291.603 165.535 292.174 165.676 292.819 165.668C293.446 165.649 294.138 165.55 294.894 165.37C295.669 165.18 296.491 164.963 297.358 164.719C298.244 164.465 299.157 164.237 300.098 164.037C301.039 163.836 302.007 163.716 303.003 163.677C303.999 163.617 305.012 163.696 306.044 163.914C307.057 164.122 308.07 164.523 309.081 165.117C310.939 166.208 311.736 167.451 311.473 168.846C311.191 170.23 309.877 171.599 307.531 172.954ZM323.411 163.786C322.173 164.501 320.825 164.989 319.368 165.252C317.911 165.494 316.473 165.51 315.054 165.301C313.617 165.08 312.319 164.63 311.16 163.949L303.379 159.379L307.619 156.931L315.345 161.469C315.805 161.739 316.274 161.929 316.753 162.038C317.25 162.136 317.748 162.149 318.246 162.076C318.744 162.002 319.215 161.838 319.658 161.582C320.286 161.219 320.592 160.818 320.575 160.377C320.54 159.926 320.173 159.495 319.474 159.085L311.748 154.547L315.988 152.099L323.742 156.653C324.919 157.345 325.69 158.11 326.056 158.949C326.403 159.776 326.363 160.614 325.936 161.46C325.49 162.296 324.648 163.071 323.411 163.786ZM340.096 154.121C339.19 154.643 338.184 155.021 337.077 155.253C335.97 155.485 334.873 155.561 333.786 155.482C332.68 155.392 331.695 155.136 330.83 154.714L325.173 151.391C324.456 150.884 324.016 150.303 323.853 149.647C323.689 148.992 323.802 148.337 324.192 147.684C324.581 147.03 325.229 146.442 326.134 145.92C327.409 145.184 328.839 144.711 330.426 144.503C332.03 144.283 333.634 144.321 335.237 144.617C336.858 144.902 338.34 145.439 339.683 146.228C341.026 147.017 341.935 147.885 342.411 148.831C342.905 149.767 342.957 150.701 342.566 151.634C342.194 152.556 341.37 153.385 340.096 154.121ZM335.512 152.332C336.122 151.98 336.51 151.595 336.678 151.177C336.864 150.748 336.847 150.319 336.627 149.888C336.408 149.458 335.994 149.065 335.387 148.708C334.762 148.341 334.081 148.091 333.344 147.96C332.607 147.828 331.879 147.82 331.159 147.935C330.44 148.029 329.785 148.247 329.194 148.588C328.602 148.93 328.214 149.315 328.028 149.743C327.842 150.151 327.859 150.569 328.078 151C328.298 151.43 328.72 151.829 329.346 152.196C329.953 152.553 330.616 152.802 331.334 152.944C332.071 153.076 332.808 153.09 333.546 152.985C334.284 152.88 334.939 152.663 335.512 152.332ZM337.716 161.761L318.65 150.562L322.89 148.114L326.339 150.14L328.903 152.452L332.796 153.997L341.901 159.345L337.716 161.761ZM356.577 144.605C355.672 145.128 354.666 145.505 353.559 145.737C352.452 145.969 351.355 146.046 350.267 145.966C349.161 145.876 348.176 145.62 347.311 145.198L341.655 141.876C340.938 141.369 340.498 140.787 340.334 140.132C340.171 139.476 340.284 138.822 340.673 138.168C341.063 137.515 341.71 136.927 342.616 136.404C343.89 135.668 345.321 135.196 346.907 134.987C348.512 134.767 350.116 134.806 351.718 135.102C353.34 135.387 354.822 135.924 356.164 136.713C357.507 137.501 358.416 138.369 358.892 139.316C359.386 140.251 359.438 141.186 359.048 142.118C358.675 143.04 357.852 143.869 356.577 144.605ZM351.994 142.816C352.603 142.464 352.992 142.079 353.159 141.661C353.345 141.233 353.328 140.803 353.109 140.373C352.889 139.943 352.476 139.549 351.869 139.193C351.243 138.825 350.562 138.576 349.825 138.444C349.088 138.313 348.36 138.304 347.641 138.42C346.922 138.514 346.266 138.731 345.675 139.073C345.084 139.414 344.695 139.799 344.509 140.228C344.323 140.635 344.34 141.054 344.56 141.484C344.78 141.914 345.202 142.313 345.827 142.681C346.434 143.037 347.097 143.287 347.816 143.429C348.553 143.56 349.29 143.574 350.028 143.469C350.766 143.365 351.421 143.147 351.994 142.816ZM354.198 152.246L335.132 141.046L339.372 138.598L342.821 140.624L345.384 142.937L349.277 144.481L358.383 149.83L354.198 152.246ZM371.812 135.842C370.426 136.642 368.866 137.189 367.132 137.483C365.398 137.755 363.674 137.765 361.961 137.512C360.247 137.258 358.728 136.743 357.404 135.965C356.08 135.187 355.216 134.303 354.815 133.314C354.413 132.325 354.462 131.332 354.964 130.335C355.447 129.328 356.391 128.419 357.795 127.608C359.199 126.798 360.759 126.251 362.474 125.967C364.19 125.684 365.904 125.669 367.618 125.922C369.313 126.165 370.823 126.675 372.147 127.453C373.472 128.231 374.344 129.12 374.764 130.12C375.184 131.12 375.153 132.123 374.67 133.131C374.168 134.127 373.216 135.031 371.812 135.842ZM367.976 133.589C368.586 133.237 368.993 132.852 369.197 132.434C369.383 132.005 369.357 131.581 369.119 131.161C368.881 130.72 368.449 130.316 367.824 129.949C367.199 129.581 366.527 129.337 365.808 129.216C365.071 129.085 364.343 129.077 363.624 129.192C362.904 129.286 362.24 129.509 361.63 129.861C361.039 130.202 360.65 130.587 360.464 131.016C360.26 131.434 360.268 131.858 360.487 132.288C360.707 132.719 361.129 133.118 361.755 133.485C362.362 133.841 363.043 134.091 363.798 134.233C364.535 134.365 365.273 134.378 366.01 134.274C366.73 134.158 367.385 133.93 367.976 133.589ZM380.991 130.189L367.581 122.312L371.821 119.864L385.231 127.741L380.991 130.189ZM377.864 123.413L374.71 123.627C373.498 122.506 372.875 121.451 372.842 120.463C372.809 119.476 373.531 118.555 375.009 117.702C375.656 117.328 376.32 117.062 377.003 116.904C377.686 116.724 378.414 116.646 379.189 116.671L379.84 119.99C379.453 119.978 379.065 120.02 378.678 120.115C378.29 120.21 377.921 120.359 377.57 120.562C376.868 120.967 376.525 121.422 376.542 121.927C376.558 122.41 376.999 122.905 377.864 123.413ZM394.865 122.178L375.909 111.044L380.149 108.596L399.105 119.73L394.865 122.178ZM381.994 118.168L378.407 116.062L388.743 110.094L392.33 112.2L381.994 118.168Z" fill="white"/>
<path d="M356.11 195.122C354.503 196.05 352.86 196.699 351.181 197.068C349.502 197.416 347.649 197.554 345.621 197.482L345.661 194.213C347.007 194.272 348.26 194.201 349.423 194.002C350.585 193.781 351.674 193.377 352.69 192.79C353.614 192.257 354.16 191.749 354.327 191.266C354.514 190.773 354.312 190.354 353.724 190.008C353.19 189.695 352.592 189.537 351.928 189.534C351.264 189.532 350.536 189.62 349.743 189.8C348.968 189.969 348.137 190.18 347.251 190.435C346.384 190.678 345.489 190.906 344.567 191.117C343.626 191.318 342.666 191.454 341.689 191.525C340.712 191.575 339.735 191.507 338.759 191.321C337.764 191.124 336.77 190.734 335.777 190.15C334.581 189.448 333.837 188.677 333.545 187.839C333.272 186.99 333.432 186.137 334.025 185.28C334.6 184.413 335.562 183.59 336.91 182.811C338.277 182.022 339.764 181.442 341.369 181.072C342.993 180.692 344.588 180.531 346.155 180.591L346.115 183.86C344.916 183.845 343.865 183.927 342.961 184.106C342.076 184.274 341.254 184.577 340.497 185.015C339.739 185.452 339.286 185.885 339.137 186.314C338.969 186.732 339.152 187.098 339.686 187.411C340.183 187.703 340.753 187.844 341.399 187.836C342.026 187.817 342.717 187.718 343.474 187.538C344.249 187.348 345.07 187.131 345.937 186.887C346.823 186.633 347.737 186.405 348.678 186.205C349.618 186.004 350.587 185.884 351.582 185.845C352.578 185.785 353.592 185.863 354.623 186.082C355.637 186.29 356.649 186.691 357.661 187.285C359.518 188.376 360.316 189.619 360.052 191.014C359.771 192.398 358.457 193.767 356.11 195.122ZM365.701 189.232L352.291 181.355L356.531 178.907L369.941 186.784L365.701 189.232ZM352.576 179.037C351.911 179.421 351.136 179.611 350.251 179.608C349.366 179.583 348.602 179.382 347.958 179.003C347.296 178.614 346.957 178.168 346.94 177.663C346.942 177.148 347.275 176.698 347.941 176.314C348.606 175.93 349.371 175.745 350.238 175.759C351.104 175.773 351.869 175.974 352.531 176.363C353.175 176.742 353.514 177.188 353.549 177.704C353.565 178.208 353.241 178.653 352.576 179.037ZM384.65 185.297C383.172 186.15 381.612 186.751 379.97 187.099C378.365 187.447 376.779 187.538 375.213 187.371L375.224 184.344C376.275 184.401 377.243 184.346 378.128 184.177C379.032 183.998 379.909 183.663 380.759 183.173C381.812 182.565 382.377 181.939 382.453 181.295C382.548 180.64 382.126 180.038 381.188 179.487L377.766 177.477L375.562 175.343L372 173.993L368.551 171.967L372.708 169.567L385.318 176.974C386.697 177.784 387.569 178.673 387.935 179.641C388.3 180.608 388.204 181.585 387.647 182.571C387.09 183.556 386.091 184.465 384.65 185.297ZM378.027 181.633C376.79 182.347 375.396 182.809 373.847 183.018C372.297 183.227 370.74 183.194 369.174 182.92C367.608 182.646 366.208 182.147 364.976 181.423C363.725 180.688 362.88 179.869 362.441 178.965C361.984 178.051 361.95 177.149 362.341 176.259C362.713 175.359 363.518 174.551 364.756 173.837C365.679 173.303 366.676 172.931 367.746 172.721C368.816 172.489 369.886 172.428 370.955 172.54C372.024 172.629 372.99 172.896 373.855 173.339L378.96 176.338C379.695 176.834 380.145 177.4 380.308 178.034C380.472 178.646 380.359 179.269 379.97 179.901C379.58 180.533 378.933 181.11 378.027 181.633ZM375.079 178.964C375.67 178.623 376.049 178.254 376.216 177.857C376.402 177.45 376.395 177.058 376.193 176.682C375.992 176.284 375.615 175.923 375.064 175.599C374.512 175.274 373.895 175.052 373.213 174.931C372.55 174.8 371.868 174.787 371.167 174.891C370.485 174.986 369.848 175.203 369.257 175.545C368.684 175.875 368.305 176.244 368.119 176.651C367.933 177.059 367.941 177.461 368.142 177.859C368.343 178.257 368.72 178.618 369.272 178.943C369.787 179.245 370.394 179.462 371.094 179.594C371.776 179.714 372.458 179.728 373.14 179.633C373.841 179.529 374.487 179.306 375.079 178.964ZM398.006 170.58L390.363 166.09C389.664 165.68 388.881 165.478 388.015 165.486C387.148 165.472 386.383 165.657 385.718 166.041C385.256 166.307 384.95 166.602 384.802 166.923C384.635 167.234 384.633 167.556 384.798 167.889C384.944 168.212 385.247 168.508 385.707 168.778L383.272 169.252C382.224 168.637 381.535 167.963 381.206 167.232C380.877 166.5 380.907 165.776 381.297 165.058C381.687 164.319 382.399 163.65 383.434 163.053C384.431 162.477 385.548 162.111 386.784 161.954C388.02 161.777 389.245 161.787 390.461 161.984C391.677 162.182 392.745 162.551 393.665 163.091L402.246 168.132L398.006 170.58ZM389.11 175.716L375.701 167.839L379.941 165.391L393.35 173.268L389.11 175.716ZM416.536 160.235C415.298 160.95 413.951 161.439 412.493 161.702C411.036 161.943 409.598 161.959 408.179 161.75C406.742 161.53 405.444 161.079 404.285 160.398L396.504 155.828L400.745 153.38L408.47 157.918C408.93 158.188 409.4 158.378 409.878 158.487C410.376 158.585 410.873 158.598 411.372 158.525C411.87 158.452 412.34 158.287 412.784 158.031C413.412 157.668 413.718 157.267 413.701 156.827C413.666 156.375 413.298 155.945 412.599 155.534L404.874 150.996L409.114 148.548L416.867 153.102C418.044 153.794 418.816 154.559 419.181 155.398C419.528 156.226 419.488 157.063 419.061 157.91C418.616 158.745 417.774 159.52 416.536 160.235ZM433.221 150.57C432.316 151.093 431.31 151.47 430.203 151.702C429.096 151.934 427.999 152.01 426.911 151.931C425.805 151.841 424.82 151.585 423.955 151.163L418.299 147.841C417.582 147.333 417.142 146.752 416.978 146.096C416.815 145.441 416.928 144.786 417.317 144.133C417.707 143.48 418.354 142.892 419.26 142.369C420.534 141.633 421.965 141.161 423.551 140.952C425.156 140.732 426.76 140.771 428.362 141.066C429.983 141.352 431.465 141.889 432.808 142.677C434.151 143.466 435.06 144.334 435.536 145.28C436.03 146.216 436.082 147.15 435.692 148.083C435.319 149.005 434.496 149.834 433.221 150.57ZM428.637 148.781C429.247 148.429 429.636 148.044 429.803 147.626C429.989 147.197 429.972 146.768 429.753 146.338C429.533 145.907 429.12 145.514 428.513 145.157C427.887 144.79 427.206 144.541 426.469 144.409C425.732 144.277 425.004 144.269 424.285 144.385C423.566 144.479 422.91 144.696 422.319 145.038C421.728 145.379 421.339 145.764 421.153 146.193C420.967 146.6 420.984 147.019 421.204 147.449C421.423 147.879 421.846 148.278 422.471 148.645C423.078 149.002 423.741 149.251 424.46 149.394C425.197 149.525 425.934 149.539 426.672 149.434C427.409 149.33 428.065 149.112 428.637 148.781ZM430.842 158.21L411.776 147.011L416.016 144.563L419.465 146.589L422.028 148.901L425.921 150.446L435.027 155.794L430.842 158.21Z" fill="white"/>
<path d="M416.327 210.603C414.868 211.446 413.252 212.078 411.481 212.501C409.709 212.924 407.893 213.137 406.031 213.141C404.187 213.134 402.391 212.929 400.641 212.525C398.891 212.1 397.308 211.471 395.892 210.639C394.457 209.796 393.391 208.869 392.694 207.857C391.998 206.845 391.66 205.808 391.683 204.745C391.705 203.661 392.087 202.616 392.828 201.609C393.57 200.581 394.67 199.646 396.13 198.804C397.608 197.95 399.223 197.317 400.976 196.905C402.729 196.472 404.527 196.258 406.371 196.265C408.214 196.251 410.011 196.456 411.761 196.881C413.492 197.296 415.075 197.924 416.51 198.767C417.926 199.599 418.992 200.527 419.707 201.549C420.404 202.561 420.741 203.609 420.718 204.693C420.696 205.756 420.323 206.796 419.601 207.813C418.878 208.83 417.787 209.76 416.327 210.603ZM412.326 208.317C413.509 207.635 414.276 206.891 414.63 206.088C414.983 205.284 414.94 204.473 414.5 203.655C414.061 202.816 413.235 202.04 412.02 201.327C411.101 200.787 410.134 200.381 409.122 200.108C408.09 199.825 407.049 199.677 405.998 199.662C404.929 199.636 403.896 199.751 402.9 200.005C401.904 200.237 400.962 200.609 400.075 201.121C398.911 201.793 398.153 202.531 397.799 203.335C397.428 204.128 397.452 204.939 397.873 205.767C398.294 206.574 399.121 207.339 400.353 208.063C401.273 208.603 402.249 209.015 403.28 209.298C404.311 209.581 405.361 209.735 406.431 209.761C407.481 209.775 408.505 209.666 409.501 209.434C410.516 209.191 411.458 208.819 412.326 208.317ZM426.271 206.276L408.02 206.208L408.031 203.277L426.282 203.345L426.271 206.276ZM446.862 192.588L428.06 192.002C426.585 191.954 425.351 191.82 424.356 191.602C423.343 191.373 422.422 191.015 421.595 190.529C420.601 189.945 419.94 189.266 419.611 188.492C419.283 187.697 419.304 186.902 419.676 186.109C420.047 185.295 420.815 184.551 421.979 183.879C422.884 183.357 423.826 182.974 424.804 182.73C425.764 182.476 426.714 182.324 427.654 182.274C428.576 182.213 429.405 182.238 430.142 182.348L429.992 185.552C429.126 185.474 428.361 185.476 427.697 185.559C427.051 185.632 426.461 185.823 425.925 186.133C425.371 186.453 425.074 186.816 425.036 187.224C424.998 187.611 425.218 187.944 425.696 188.225C426.101 188.463 426.543 188.626 427.021 188.713C427.519 188.79 428.127 188.846 428.846 188.881L451.822 189.724L446.862 192.588ZM440.736 196.479C439.406 197.247 437.984 197.767 436.471 198.041C434.959 198.293 433.475 198.314 432.019 198.105C430.564 197.874 429.275 197.429 428.153 196.77C426.939 196.056 426.186 195.238 425.894 194.313C425.584 193.378 425.782 192.364 426.486 191.272L431.019 191.836C430.723 192.308 430.647 192.748 430.793 193.156C430.939 193.565 431.306 193.942 431.895 194.287C432.373 194.568 432.898 194.758 433.469 194.857C434.04 194.934 434.63 194.915 435.239 194.799C435.848 194.683 436.429 194.466 436.984 194.146C437.612 193.783 438.019 193.398 438.205 192.991C438.391 192.562 438.402 192.116 438.237 191.654L444.017 191.724C444.107 192.143 444.05 192.637 443.845 193.205C443.64 193.752 443.279 194.314 442.76 194.892C442.261 195.459 441.586 195.988 440.736 196.479ZM449.897 190.836L438.176 174.914L442.112 172.642L469.268 179.652L464.668 182.308L442.624 176.202L444.203 175.29L454.414 188.228L449.897 190.836ZM450.771 186.217L447.239 184.143L457.909 177.983L461.441 180.057L450.771 186.217Z" fill="white"/>
<path d="M442.335 245.771C440.728 246.699 439.085 247.347 437.406 247.717C435.727 248.065 433.874 248.203 431.846 248.131L431.886 244.862C433.231 244.921 434.485 244.85 435.647 244.651C436.81 244.429 437.899 244.026 438.915 243.439C439.839 242.906 440.384 242.398 440.552 241.915C440.738 241.422 440.537 241.003 439.949 240.657C439.415 240.343 438.817 240.185 438.153 240.183C437.489 240.181 436.761 240.269 435.967 240.449C435.192 240.617 434.362 240.829 433.476 241.083C432.609 241.327 431.714 241.555 430.791 241.766C429.85 241.966 428.891 242.102 427.914 242.174C426.937 242.224 425.96 242.156 424.984 241.969C423.989 241.772 422.995 241.382 422.001 240.799C420.806 240.096 420.062 239.326 419.77 238.488C419.497 237.638 419.657 236.785 420.25 235.929C420.825 235.061 421.786 234.238 423.135 233.46C424.502 232.67 425.988 232.091 427.594 231.721C429.217 231.341 430.813 231.18 432.379 231.24L432.339 234.509C431.141 234.493 430.09 234.575 429.186 234.755C428.301 234.923 427.479 235.226 426.722 235.663C425.964 236.101 425.511 236.534 425.362 236.963C425.194 237.381 425.377 237.746 425.911 238.06C426.407 238.351 426.978 238.493 427.624 238.485C428.25 238.466 428.942 238.366 429.699 238.187C430.474 237.996 431.295 237.779 432.162 237.536C433.048 237.281 433.961 237.054 434.902 236.853C435.843 236.653 436.812 236.533 437.807 236.494C438.803 236.433 439.817 236.512 440.848 236.731C441.861 236.939 442.874 237.34 443.885 237.934C445.743 239.025 446.541 240.268 446.277 241.663C445.996 243.047 444.682 244.416 442.335 245.771ZM451.925 239.88L438.516 232.003L442.756 229.555L456.165 237.432L451.925 239.88ZM438.801 229.685C438.136 230.069 437.361 230.26 436.476 230.257C435.591 230.232 434.827 230.03 434.183 229.652C433.521 229.263 433.181 228.816 433.165 228.312C433.167 227.796 433.5 227.347 434.165 226.963C434.831 226.579 435.596 226.394 436.463 226.408C437.329 226.422 438.093 226.623 438.756 227.012C439.399 227.39 439.739 227.837 439.774 228.353C439.79 228.857 439.466 229.301 438.801 229.685ZM470.875 235.946C469.397 236.799 467.837 237.4 466.195 237.748C464.59 238.096 463.004 238.187 461.438 238.02L461.449 234.992C462.5 235.05 463.468 234.995 464.353 234.826C465.257 234.647 466.134 234.312 466.984 233.821C468.037 233.213 468.602 232.587 468.678 231.944C468.773 231.289 468.351 230.686 467.413 230.135L463.991 228.125L461.787 225.991L458.225 224.641L454.776 222.616L458.933 220.216L471.542 227.622C472.922 228.433 473.794 229.322 474.159 230.289C474.524 231.257 474.429 232.234 473.872 233.219C473.315 234.205 472.316 235.114 470.875 235.946ZM464.252 232.281C463.014 232.996 461.621 233.458 460.071 233.667C458.522 233.876 456.964 233.843 455.399 233.569C453.833 233.294 452.433 232.795 451.201 232.071C449.95 231.337 449.105 230.517 448.666 229.614C448.209 228.7 448.175 227.798 448.566 226.908C448.938 226.008 449.743 225.2 450.981 224.485C451.904 223.952 452.901 223.58 453.971 223.369C455.041 223.137 456.111 223.077 457.18 223.188C458.248 223.278 459.215 223.545 460.08 223.988L465.185 226.987C465.92 227.483 466.37 228.049 466.533 228.683C466.697 229.295 466.584 229.917 466.194 230.549C465.805 231.181 465.158 231.759 464.252 232.281ZM461.303 229.613C461.895 229.272 462.274 228.903 462.441 228.506C462.627 228.099 462.619 227.707 462.418 227.33C462.217 226.932 461.84 226.571 461.288 226.247C460.737 225.923 460.12 225.701 459.438 225.58C458.775 225.449 458.093 225.435 457.392 225.54C456.71 225.634 456.073 225.852 455.481 226.193C454.909 226.524 454.529 226.893 454.344 227.3C454.158 227.707 454.165 228.11 454.367 228.508C454.568 228.906 454.945 229.267 455.496 229.591C456.011 229.894 456.619 230.111 457.319 230.242C458.001 230.363 458.683 230.376 459.365 230.282C460.066 230.177 460.712 229.954 461.303 229.613ZM484.231 221.229L476.588 216.739C475.889 216.329 475.106 216.127 474.24 216.134C473.373 216.121 472.608 216.306 471.942 216.69C471.481 216.956 471.175 217.25 471.027 217.572C470.86 217.883 470.858 218.205 471.023 218.538C471.169 218.861 471.472 219.157 471.932 219.427L469.497 219.901C468.448 219.285 467.76 218.612 467.431 217.88C467.102 217.149 467.132 216.425 467.522 215.707C467.912 214.967 468.624 214.299 469.659 213.702C470.656 213.126 471.773 212.759 473.009 212.603C474.244 212.425 475.47 212.435 476.686 212.633C477.902 212.831 478.97 213.2 479.89 213.74L488.471 218.781L484.231 221.229ZM475.335 226.365L461.925 218.488L466.165 216.04L479.575 223.917L475.335 226.365ZM502.761 210.884C501.523 211.598 500.176 212.087 498.718 212.35C497.261 212.592 495.823 212.608 494.404 212.398C492.967 212.178 491.669 211.728 490.51 211.047L482.729 206.477L486.969 204.029L494.695 208.567C495.155 208.837 495.624 209.027 496.103 209.136C496.601 209.234 497.098 209.247 497.596 209.173C498.094 209.1 498.565 208.936 499.009 208.68C499.637 208.317 499.942 207.915 499.926 207.475C499.89 207.024 499.523 206.593 498.824 206.183L491.099 201.645L495.339 199.197L503.092 203.751C504.269 204.442 505.041 205.208 505.406 206.046C505.753 206.874 505.713 207.712 505.286 208.558C504.841 209.394 503.999 210.169 502.761 210.884ZM519.446 201.219C518.541 201.741 517.535 202.119 516.428 202.351C515.321 202.583 514.223 202.659 513.136 202.58C512.03 202.49 511.045 202.234 510.18 201.812L504.524 198.489C503.807 197.982 503.366 197.401 503.203 196.745C503.039 196.09 503.153 195.435 503.542 194.782C503.932 194.128 504.579 193.54 505.484 193.018C506.759 192.282 508.19 191.809 509.776 191.6C511.381 191.381 512.984 191.419 514.587 191.715C516.208 192 517.69 192.537 519.033 193.326C520.376 194.115 521.285 194.983 521.761 195.929C522.255 196.865 522.307 197.799 521.916 198.732C521.544 199.654 520.721 200.483 519.446 201.219ZM514.862 199.43C515.472 199.078 515.861 198.693 516.028 198.275C516.214 197.846 516.197 197.417 515.978 196.986C515.758 196.556 515.345 196.163 514.738 195.806C514.112 195.439 513.431 195.189 512.694 195.058C511.957 194.926 511.229 194.918 510.51 195.033C509.79 195.127 509.135 195.345 508.544 195.686C507.953 196.028 507.564 196.413 507.378 196.841C507.192 197.249 507.209 197.667 507.429 198.098C507.648 198.528 508.071 198.927 508.696 199.294C509.303 199.651 509.966 199.9 510.684 200.042C511.421 200.174 512.159 200.187 512.897 200.083C513.634 199.978 514.29 199.761 514.862 199.43ZM517.067 208.859L498.001 197.66L502.241 195.212L505.69 197.238L508.253 199.55L512.146 201.095L521.251 206.443L517.067 208.859Z" fill="white"/>
<defs>
<filter id="filter0_dddddd_45_4542" x="0.144043" y="0.828857" width="810.429" height="599.078" filterUnits="userSpaceOnUse" color-interpolation-filters="sRGB">
<feFlood flood-opacity="0" result="BackgroundImageFix"/>
<feColorMatrix in="SourceAlpha" type="matrix" values="0 0 0 0 0 0 0 0 0 0 0 0 0 0 0 0 0 0 127 0" result="hardAlpha"/>
<feOffset dy="2.76726"/>
<feGaussianBlur stdDeviation="1.74337"/>
<feColorMatrix type="matrix" values="0 0 0 0 0 0 0 0 0 0 0 0 0 0 0 0 0 0 0.0421718 0"/>
<feBlend mode="normal" in2="BackgroundImageFix" result="effect1_dropShadow_45_4542"/>
<feColorMatrix in="SourceAlpha" type="matrix" values="0 0 0 0 0 0 0 0 0 0 0 0 0 0 0 0 0 0 127 0" result="hardAlpha"/>
<feOffset dy="6.6501"/>
<feGaussianBlur stdDeviation="4.18956"/>
<feColorMatrix type="matrix" values="0 0 0 0 0 0 0 0 0 0 0 0 0 0 0 0 0 0 0.0605839 0"/>
<feBlend mode="normal" in2="effect1_dropShadow_45_4542" result="effect2_dropShadow_45_4542"/>
<feColorMatrix in="SourceAlpha" type="matrix" values="0 0 0 0 0 0 0 0 0 0 0 0 0 0 0 0 0 0 127 0" result="hardAlpha"/>
<feOffset dy="12.5216"/>
<feGaussianBlur stdDeviation="7.88858"/>
<feColorMatrix type="matrix" values="0 0 0 0 0 0 0 0 0 0 0 0 0 0 0 0 0 0 0.075 0"/>
<feBlend mode="normal" in2="effect2_dropShadow_45_4542" result="effect3_dropShadow_45_4542"/>
<feColorMatrix in="SourceAlpha" type="matrix" values="0 0 0 0 0 0 0 0 0 0 0 0 0 0 0 0 0 0 127 0" result="hardAlpha"/>
<feOffset dy="22.3363"/>
<feGaussianBlur stdDeviation="14.0719"/>
<feColorMatrix type="matrix" values="0 0 0 0 0 0 0 0 0 0 0 0 0 0 0 0 0 0 0.0894161 0"/>
<feBlend mode="normal" in2="effect3_dropShadow_45_4542" result="effect4_dropShadow_45_4542"/>
<feColorMatrix in="SourceAlpha" type="matrix" values="0 0 0 0 0 0 0 0 0 0 0 0 0 0 0 0 0 0 127 0" result="hardAlpha"/>
<feOffset dy="41.7776"/>
<feGaussianBlur stdDeviation="26.3199"/>
<feColorMatrix type="matrix" values="0 0 0 0 0 0 0 0 0 0 0 0 0 0 0 0 0 0 0.107828 0"/>
<feBlend mode="normal" in2="effect4_dropShadow_45_4542" result="effect5_dropShadow_45_4542"/>
<feColorMatrix in="SourceAlpha" type="matrix" values="0 0 0 0 0 0 0 0 0 0 0 0 0 0 0 0 0 0 127 0" result="hardAlpha"/>
<feOffset dy="100"/>
<feGaussianBlur stdDeviation="63"/>
<feColorMatrix type="matrix" values="0 0 0 0 0 0 0 0 0 0 0 0 0 0 0 0 0 0 0.15 0"/>
<feBlend mode="normal" in2="effect5_dropShadow_45_4542" result="effect6_dropShadow_45_4542"/>
<feBlend mode="normal" in="SourceGraphic" in2="effect6_dropShadow_45_4542" result="shape"/>
</filter>
</defs>
</svg>
