<svg width="357" height="220" viewBox="0 0 357 220" fill="none" xmlns="http://www.w3.org/2000/svg">
<g filter="url(#filter0_d_46_4827)">
<rect width="340" height="48" rx="12" transform="matrix(0.866025 -0.5 0.868804 0.495155 10 171)" fill="#373951" shape-rendering="crispEdges"/>
<rect x="1.73483" y="-0.00484458" width="338" height="46" rx="11" transform="matrix(0.866025 -0.5 0.868804 0.495155 10.2366 171.865)" stroke="#3E405B" stroke-width="2" shape-rendering="crispEdges"/>
<path d="M78.4502 161.383L76.91 160.505L77.1651 156.535C77.174 156.19 77.1633 155.891 77.133 155.636C77.106 155.38 77.0331 155.156 76.9143 154.964C76.7921 154.77 76.5978 154.597 76.3312 154.445C76.0351 154.277 75.7128 154.17 75.3644 154.126C75.0127 154.08 74.6628 154.091 74.3147 154.16C73.9633 154.227 73.64 154.346 73.3447 154.516C73.0364 154.694 72.8299 154.885 72.7254 155.089C72.6208 155.293 72.623 155.497 72.732 155.702C72.841 155.907 73.0568 156.102 73.3793 156.286L71.3569 157.453C70.6954 157.076 70.2704 156.663 70.0819 156.213C69.8933 155.763 69.9348 155.307 70.2062 154.844C70.4776 154.382 70.9643 153.948 71.6663 153.543C72.388 153.126 73.1446 152.836 73.936 152.674C74.7273 152.508 75.4977 152.467 76.2471 152.552C76.9965 152.636 77.6624 152.844 78.2449 153.176C78.6266 153.394 78.928 153.652 79.149 153.951C79.3732 154.249 79.5222 154.636 79.5958 155.115C79.6661 155.592 79.6711 156.21 79.6108 156.969L79.5859 158.643L79.655 158.683L83.8868 156.239L85.6342 157.235L78.4502 161.383ZM91.3515 154.189C90.5018 154.676 89.5646 154.978 88.5398 155.093C87.5183 155.208 86.4502 155.135 85.3356 154.876C84.2244 154.615 83.1175 154.169 82.015 153.537C80.9125 152.909 80.1354 152.279 79.6835 151.649C79.2348 151.017 79.1116 150.411 79.3137 149.83C79.5157 149.245 80.0383 148.709 80.8814 148.222C81.7244 147.735 82.6535 147.433 83.6684 147.315C84.6866 147.196 85.7481 147.262 86.8528 147.516C87.9542 147.767 89.0545 148.208 90.1537 148.838C91.2627 149.47 92.0465 150.105 92.505 150.743C92.9667 151.378 93.1015 151.99 92.9093 152.576C92.7171 153.163 92.1978 153.701 91.3515 154.189ZM89.5793 153.179C90.1566 152.846 90.3263 152.414 90.0882 151.883C89.8502 151.352 89.147 150.756 87.9788 150.094C87.212 149.657 86.4948 149.338 85.8273 149.139C85.163 148.937 84.5598 148.845 84.0177 148.864C83.4789 148.88 83.0176 148.999 82.6338 149.221C82.0597 149.552 81.8884 149.982 82.1199 150.509C82.3514 151.036 83.0397 151.628 84.185 152.284C84.9616 152.727 85.687 153.052 86.3612 153.259C87.0353 153.463 87.6451 153.556 88.1905 153.539C88.7325 153.521 89.1955 153.401 89.5793 153.179ZM96.7179 150.836L95.1777 149.958L95.4328 145.988C95.4417 145.643 95.431 145.344 95.4007 145.089C95.3737 144.833 95.3008 144.609 95.182 144.417C95.0599 144.223 94.8655 144.051 94.599 143.899C94.3028 143.73 93.9805 143.623 93.6321 143.579C93.2804 143.533 92.9305 143.544 92.5824 143.613C92.231 143.68 91.9077 143.799 91.6125 143.969C91.3041 144.147 91.0977 144.338 90.9931 144.542C90.8885 144.746 90.8907 144.95 90.9997 145.155C91.1087 145.361 91.3245 145.555 91.647 145.739L89.6246 146.906C88.9631 146.529 88.5381 146.116 88.3496 145.666C88.1611 145.216 88.2025 144.76 88.4739 144.297C88.7453 143.835 89.232 143.401 89.9341 142.996C90.6557 142.579 91.4123 142.289 92.2037 142.127C92.9951 141.961 93.7654 141.92 94.5148 142.005C95.2642 142.089 95.9301 142.298 96.5126 142.63C96.8944 142.847 97.1957 143.105 97.4167 143.404C97.641 143.702 97.7899 144.089 97.8635 144.568C97.9339 145.045 97.9389 145.663 97.8786 146.423L97.8537 148.096L97.9228 148.136L102.154 145.693L103.902 146.688L96.7179 150.836ZM109.309 143.725C108.574 144.15 107.793 144.455 106.965 144.642C106.138 144.826 105.335 144.885 104.556 144.821C103.777 144.754 103.088 144.555 102.489 144.225L104.635 142.986C104.895 143.119 105.192 143.197 105.527 143.219C105.863 143.236 106.206 143.203 106.557 143.117C106.908 143.031 107.24 142.898 107.552 142.718C107.876 142.531 108.106 142.332 108.24 142.123C108.374 141.913 108.41 141.709 108.347 141.512C108.284 141.314 108.119 141.139 107.852 140.987C107.582 140.833 107.268 140.741 106.91 140.71C106.552 140.675 106.174 140.704 105.777 140.798C105.383 140.889 104.996 141.045 104.615 141.265L103.675 141.807L102.105 140.913L103.045 140.37C103.367 140.184 103.595 139.989 103.729 139.783C103.866 139.575 103.905 139.375 103.845 139.183C103.782 138.989 103.618 138.816 103.351 138.664C103.098 138.52 102.815 138.428 102.503 138.39C102.19 138.347 101.872 138.358 101.546 138.421C101.225 138.482 100.921 138.595 100.636 138.76C100.347 138.926 100.136 139.109 100.001 139.307C99.8639 139.503 99.8185 139.698 99.865 139.89C99.9115 140.082 100.058 140.254 100.305 140.406L98.263 141.585C97.6904 141.247 97.3427 140.859 97.2199 140.42C97.0971 139.981 97.1829 139.534 97.4773 139.077C97.7717 138.616 98.2634 138.187 98.9523 137.789C99.6477 137.387 100.383 137.108 101.158 136.952C101.933 136.795 102.68 136.756 103.4 136.835C104.12 136.91 104.745 137.101 105.275 137.407C105.844 137.727 106.141 138.098 106.165 138.518C106.192 138.936 105.975 139.337 105.513 139.721L105.592 139.766C106.428 139.393 107.251 139.214 108.059 139.231C108.868 139.244 109.584 139.43 110.21 139.79C110.789 140.117 111.135 140.504 111.248 140.952C111.364 141.399 111.259 141.863 110.931 142.347C110.604 142.83 110.063 143.29 109.309 143.725ZM117.846 138.638L107.736 132.876L114.408 129.024L116.171 130.028L111.629 132.651L114.038 134.023L118.137 131.657L119.899 132.661L115.8 135.028L119.976 137.408L117.846 138.638ZM128.265 132.764C127.691 133.095 127.023 133.311 126.261 133.411C125.499 133.508 124.693 133.469 123.841 133.296C122.99 133.12 122.141 132.79 121.295 132.308C120.426 131.813 119.844 131.321 119.546 130.832C119.246 130.341 119.184 129.88 119.36 129.45C119.536 129.016 119.902 128.639 120.456 128.319C120.879 128.074 121.304 127.912 121.731 127.832C122.158 127.748 122.565 127.716 122.953 127.738C123.341 127.756 123.683 127.796 123.979 127.859L124.043 127.822L122.769 127.097L124.86 125.889L132.443 130.211L130.376 131.404L129.162 130.712L129.073 130.763C129.185 130.94 129.255 131.139 129.282 131.362C129.309 131.58 129.247 131.81 129.096 132.052C128.949 132.292 128.672 132.529 128.265 132.764ZM127.256 131.427C127.594 131.231 127.787 131.014 127.836 130.775C127.885 130.531 127.803 130.278 127.592 130.015C127.385 129.75 127.055 129.489 126.605 129.232C126.154 128.975 125.7 128.787 125.243 128.67C124.786 128.553 124.349 128.51 123.931 128.544C123.514 128.577 123.137 128.691 122.799 128.886C122.454 129.085 122.258 129.306 122.209 129.549C122.161 129.793 122.242 130.044 122.453 130.303C122.664 130.563 122.988 130.817 123.426 131.067C123.867 131.318 124.317 131.505 124.778 131.629C125.238 131.748 125.68 131.795 126.104 131.769C126.528 131.74 126.912 131.625 127.256 131.427ZM134.166 129.215L126.584 124.894L128.616 123.721L129.939 124.475L130.018 124.429C129.685 124.082 129.561 123.746 129.645 123.421C129.726 123.095 129.979 122.81 130.402 122.565C130.507 122.505 130.627 122.443 130.761 122.38C130.896 122.318 131.02 122.267 131.135 122.227L133.001 123.29C132.873 123.33 132.711 123.394 132.514 123.481C132.317 123.568 132.146 123.653 132.002 123.737C131.694 123.915 131.486 124.112 131.378 124.329C131.27 124.543 131.264 124.758 131.36 124.974C131.459 125.189 131.663 125.384 131.973 125.56L136.262 128.005L134.166 129.215ZM139.836 125.942L132.254 121.621L134.251 120.467L135.589 121.23L135.678 121.179C135.391 120.834 135.303 120.483 135.414 120.125C135.524 119.766 135.835 119.439 136.347 119.144C136.866 118.845 137.437 118.664 138.061 118.602C138.682 118.538 139.273 118.597 139.836 118.778L139.914 118.733C139.634 118.396 139.566 118.037 139.709 117.656C139.853 117.271 140.202 116.919 140.756 116.599C141.461 116.191 142.259 115.989 143.15 115.992C144.04 115.992 144.897 116.226 145.719 116.695L150.819 119.601L148.727 120.809L144.043 118.139C143.622 117.899 143.194 117.783 142.76 117.792C142.327 117.8 141.943 117.901 141.608 118.095C141.227 118.314 141.052 118.555 141.083 118.817C141.11 119.077 141.321 119.32 141.715 119.545L146.346 122.184L144.314 123.357L139.585 120.662C139.213 120.45 138.81 120.342 138.376 120.34C137.946 120.335 137.558 120.433 137.214 120.631C136.981 120.766 136.83 120.921 136.762 121.096C136.693 121.268 136.71 121.445 136.812 121.628C136.912 121.808 137.101 121.978 137.381 122.138L141.932 124.732L139.836 125.942ZM152.514 118.622L142.404 112.861L149.194 108.94L150.957 109.945L146.297 112.635L148.706 114.008L153.016 111.519L154.779 112.524L150.468 115.012L152.882 116.388L157.562 113.686L159.324 114.691L152.514 118.622ZM163.867 112.209C163.293 112.541 162.625 112.756 161.863 112.856C161.101 112.953 160.294 112.915 159.443 112.742C158.591 112.565 157.743 112.236 156.897 111.754C156.028 111.258 155.445 110.766 155.148 110.277C154.848 109.786 154.786 109.325 154.962 108.895C155.138 108.461 155.504 108.084 156.058 107.764C156.481 107.52 156.906 107.357 157.333 107.277C157.76 107.193 158.167 107.162 158.555 107.183C158.943 107.201 159.285 107.241 159.581 107.305L159.644 107.268L158.371 106.542L160.462 105.334L168.044 109.656L165.978 110.849L164.763 110.157L164.675 110.208C164.787 110.385 164.857 110.585 164.884 110.807C164.91 111.025 164.849 111.256 164.698 111.497C164.551 111.737 164.274 111.974 163.867 112.209ZM162.858 110.872C163.196 110.677 163.389 110.459 163.438 110.22C163.486 109.977 163.405 109.723 163.194 109.46C162.986 109.195 162.657 108.934 162.206 108.677C161.755 108.42 161.302 108.233 160.844 108.115C160.387 107.998 159.95 107.956 159.533 107.989C159.116 108.022 158.738 108.136 158.401 108.331C158.056 108.53 157.86 108.751 157.811 108.995C157.762 109.238 157.844 109.489 158.055 109.749C158.266 110.008 158.59 110.263 159.028 110.512C159.469 110.764 159.919 110.951 160.38 111.074C160.84 111.193 161.282 111.24 161.706 111.214C162.13 111.185 162.514 111.071 162.858 110.872ZM170.636 101.941L168.836 103.116C168.638 103.042 168.42 102.998 168.18 102.985C167.937 102.971 167.687 102.992 167.431 103.05C167.175 103.103 166.925 103.2 166.683 103.34C166.358 103.528 166.153 103.725 166.068 103.933C165.98 104.138 166.049 104.306 166.277 104.435C166.458 104.539 166.683 104.584 166.952 104.572C167.222 104.56 167.57 104.474 167.996 104.315L169.641 103.683C170.527 103.345 171.318 103.167 172.015 103.15C172.711 103.133 173.333 103.28 173.879 103.592C174.376 103.875 174.666 104.208 174.749 104.59C174.836 104.97 174.732 105.366 174.437 105.778C174.142 106.186 173.667 106.579 173.011 106.958C172.011 107.536 171.004 107.877 169.993 107.982C168.981 108.082 168.062 107.956 167.237 107.602L169.19 106.35C169.558 106.488 169.943 106.534 170.343 106.488C170.741 106.44 171.127 106.308 171.5 106.092C171.868 105.88 172.092 105.669 172.174 105.459C172.255 105.246 172.184 105.074 171.961 104.943C171.766 104.836 171.53 104.793 171.25 104.815C170.968 104.834 170.63 104.92 170.236 105.072L168.665 105.678C167.779 106.02 166.973 106.191 166.247 106.191C165.524 106.189 164.88 106.027 164.314 105.705C163.827 105.427 163.538 105.112 163.448 104.76C163.362 104.406 163.463 104.036 163.751 103.651C164.042 103.264 164.511 102.884 165.157 102.51C166.112 101.959 167.066 101.641 168.018 101.555C168.974 101.468 169.847 101.596 170.636 101.941ZM181.141 102.264C180.364 102.713 179.536 103.01 178.66 103.153C177.783 103.293 176.902 103.285 176.018 103.127C175.13 102.967 174.287 102.66 173.487 102.204C172.707 101.759 172.173 101.282 171.886 100.772C171.599 100.262 171.565 99.7552 171.783 99.2513C172.005 98.7456 172.487 98.2787 173.228 97.8506C173.727 97.5628 174.272 97.3407 174.863 97.1845C175.454 97.0246 176.07 96.9427 176.71 96.9391C177.354 96.9335 178.008 97.0165 178.672 97.188C179.333 97.3577 179.986 97.6263 180.631 97.9939L181.209 98.3231L174.827 102.008L173.524 101.265L177.933 98.7196C177.63 98.547 177.296 98.4321 176.931 98.3746C176.566 98.3172 176.202 98.3183 175.837 98.3777C175.472 98.4334 175.138 98.5493 174.833 98.7254C174.514 98.9091 174.306 99.1142 174.208 99.3407C174.11 99.5633 174.116 99.7848 174.225 100.005C174.331 100.223 174.532 100.419 174.828 100.591L176.067 101.298C176.442 101.511 176.835 101.656 177.246 101.732C177.66 101.807 178.069 101.812 178.473 101.749C178.877 101.685 179.255 101.552 179.606 101.35C179.839 101.215 180.019 101.074 180.147 100.924C180.274 100.775 180.341 100.623 180.348 100.469C180.354 100.314 180.297 100.161 180.179 100.011L182.246 98.9648C182.615 99.288 182.821 99.637 182.865 100.012C182.908 100.383 182.788 100.762 182.503 101.149C182.218 101.533 181.764 101.905 181.141 102.264ZM187.184 98.7531C186.859 98.9406 186.465 99.036 186.001 99.0391C185.538 99.0386 185.144 98.9454 184.818 98.7597C184.495 98.5759 184.334 98.3521 184.333 98.0882C184.336 97.8225 184.499 97.5958 184.824 97.4083C185.139 97.2265 185.53 97.1331 185.996 97.128C186.463 97.1229 186.857 97.2123 187.18 97.3961C187.397 97.5199 187.54 97.6656 187.61 97.8331C187.679 97.9969 187.68 98.1609 187.611 98.325C187.539 98.4873 187.397 98.63 187.184 98.7531ZM194.467 94.4009L192.184 95.719L185.553 87.9487L188.298 86.3635L201.882 90.1196L199.599 91.4378L189.275 88.45L189.197 88.4955L194.467 94.4009ZM190.35 92.2185L195.743 89.1048L197.412 90.0558L192.019 93.1694L190.35 92.2185ZM195.042 82.47L205.152 88.2318L203.056 89.4421L192.946 83.6802L195.042 82.47ZM198.818 80.2903L208.927 86.0521L206.831 87.2624L196.721 81.5006L198.818 80.2903ZM213.813 83.2311L206.231 78.9098L208.263 77.7365L209.586 78.4904L209.665 78.445C209.332 78.0972 209.208 77.7612 209.293 77.4367C209.374 77.1104 209.626 76.8251 210.049 76.5808C210.154 76.5202 210.274 76.4586 210.408 76.396C210.543 76.3335 210.668 76.2822 210.783 76.2423L212.648 77.3058C212.52 77.3457 212.358 77.4093 212.161 77.4966C211.964 77.5838 211.794 77.6691 211.649 77.7524C211.341 77.9305 211.133 78.128 211.025 78.3451C210.917 78.5584 210.911 78.7732 211.007 78.9897C211.106 79.2043 211.31 79.3998 211.62 79.5761L215.91 82.0209L213.813 83.2311ZM219.483 79.9577L211.901 75.6363L213.997 74.4261L221.579 78.7474L219.483 79.9577ZM211.976 74.4713C211.665 74.6512 211.294 74.7465 210.863 74.7571C210.433 74.764 210.071 74.684 209.778 74.517C209.489 74.352 209.35 74.1469 209.363 73.9019C209.375 73.653 209.537 73.4387 209.849 73.2587C210.161 73.0788 210.532 72.9854 210.962 72.9786C211.392 72.9679 211.752 73.0452 212.042 73.2102C212.335 73.3771 212.475 73.585 212.463 73.8338C212.45 74.0789 212.288 74.2914 211.976 74.4713ZM229.665 77.5226C228.986 77.9147 228.31 78.1974 227.637 78.3708C226.97 78.5442 226.335 78.6223 225.73 78.6051C225.125 78.5879 224.581 78.4905 224.098 78.3128L225.775 77.0444C225.985 77.0966 226.22 77.1232 226.48 77.1244C226.739 77.1256 227.014 77.088 227.303 77.0118C227.598 76.9356 227.898 76.8094 228.204 76.6333C228.659 76.3701 228.923 76.0894 228.995 75.7914C229.073 75.4934 228.852 75.1962 228.332 74.8999L226.945 74.1093L226.856 74.1605C226.975 74.3335 227.036 74.5266 227.04 74.7395C227.044 74.9525 226.961 75.1761 226.791 75.4103C226.62 75.6445 226.335 75.8771 225.935 76.1081C225.367 76.4358 224.719 76.6591 223.99 76.778C223.261 76.8931 222.485 76.8745 221.664 76.7223C220.842 76.5662 220.011 76.2491 219.172 75.7708C218.313 75.2813 217.735 74.7919 217.438 74.3027C217.141 73.8135 217.081 73.3538 217.257 72.9235C217.436 72.4914 217.803 72.1153 218.358 71.7952C218.781 71.5509 219.207 71.3876 219.638 71.3054C220.065 71.2213 220.472 71.19 220.86 71.2115C221.247 71.2293 221.591 71.2688 221.89 71.3302L221.969 71.2848L220.695 70.5589L222.777 69.3572L230.433 73.7208C231.078 74.0884 231.46 74.4869 231.58 74.9163C231.699 75.3457 231.589 75.7832 231.248 76.229C230.914 76.6747 230.387 77.1059 229.665 77.5226ZM225.02 74.8243C225.357 74.6293 225.559 74.4167 225.624 74.1865C225.689 73.9526 225.626 73.7097 225.435 73.4577C225.243 73.2019 224.926 72.9474 224.481 72.6942C224.037 72.4409 223.59 72.2575 223.139 72.1438C222.685 72.0282 222.25 71.987 221.833 72.0202C221.416 72.0534 221.038 72.1675 220.7 72.3626C220.356 72.5615 220.159 72.7826 220.111 73.0258C220.059 73.2672 220.137 73.5167 220.344 73.7744C220.552 74.032 220.872 74.2837 221.303 74.5294C221.74 74.7788 222.179 74.9595 222.62 75.0713C223.061 75.1794 223.485 75.2159 223.892 75.1809C224.299 75.142 224.675 75.0232 225.02 74.8243ZM229.74 69.007L234.123 71.5053L232.027 72.7155L221.917 66.9537L223.954 65.7775L227.82 67.9804L227.908 67.9293C227.631 67.5757 227.556 67.2169 227.683 66.8528C227.807 66.4868 228.156 66.1381 228.73 65.8066C229.255 65.5036 229.828 65.305 230.449 65.2109C231.069 65.1131 231.702 65.1236 232.346 65.2424C232.99 65.3574 233.607 65.5847 234.196 65.9242L239.024 68.6757L236.928 69.8859L232.475 67.3483C232.011 67.08 231.53 66.941 231.03 66.9311C230.534 66.9193 230.073 67.0365 229.646 67.2827C229.361 67.4474 229.169 67.628 229.071 67.8243C228.976 68.0187 228.983 68.2184 229.092 68.4236C229.201 68.6249 229.417 68.8194 229.74 69.007ZM237.112 61.0809L238.691 61.9812L234.14 64.609L232.56 63.7088L237.112 61.0809ZM231.777 62.0768L233.873 60.8666L240.942 64.8954C241.136 65.006 241.317 65.0753 241.485 65.1031C241.649 65.129 241.805 65.1239 241.953 65.0876C242.104 65.0495 242.25 64.9897 242.391 64.9083C242.489 64.8515 242.579 64.79 242.661 64.7238C242.74 64.6557 242.801 64.6037 242.843 64.5678L244.738 65.2693C244.666 65.3486 244.556 65.4554 244.409 65.5897C244.264 65.7258 244.061 65.8752 243.799 66.0381C243.313 66.341 242.803 66.5582 242.268 66.6898C241.736 66.8194 241.202 66.852 240.666 66.7875C240.13 66.7231 239.616 66.5483 239.122 66.2632L231.777 62.0768ZM246.833 57.9488L245.032 59.1243C244.835 59.0495 244.616 59.0058 244.377 58.9933C244.133 58.9789 243.884 59.0003 243.628 59.0576C243.371 59.111 243.122 59.2079 242.879 59.348C242.554 59.5355 242.35 59.733 242.265 59.9406C242.177 60.1463 242.246 60.3138 242.473 60.4433C242.654 60.5464 242.879 60.592 243.149 60.5799C243.418 60.5678 243.766 60.4821 244.193 60.3225L245.837 59.6903C246.724 59.3524 247.515 59.1749 248.211 59.1578C248.908 59.1408 249.529 59.288 250.076 59.5993C250.573 59.8825 250.863 60.2153 250.946 60.5977C251.032 60.9782 250.928 61.3743 250.634 61.786C250.339 62.1939 249.864 62.5873 249.208 62.9661C248.207 63.5437 247.201 63.8849 246.189 63.9895C245.178 64.0903 244.259 63.9638 243.433 63.6098L245.386 62.3576C245.755 62.496 246.139 62.5421 246.54 62.4957C246.938 62.4475 247.323 62.3154 247.697 62.0995C248.065 61.8874 248.289 61.6766 248.371 61.4672C248.452 61.254 248.381 61.0817 248.157 60.9504C247.963 60.8435 247.726 60.8008 247.447 60.8224C247.165 60.842 246.826 60.9277 246.433 61.0796L244.862 61.6862C243.976 62.0279 243.17 62.1989 242.444 62.199C241.721 62.1973 241.076 62.0351 240.51 61.7125C240.023 61.4349 239.735 61.12 239.645 60.7678C239.559 60.4137 239.66 60.044 239.948 59.6587C240.239 59.2715 240.708 58.8914 241.354 58.5183C242.309 57.9671 243.262 57.6488 244.215 57.5632C245.171 57.4757 246.043 57.6042 246.833 57.9488ZM256.952 58.3249L249.37 54.0035L251.402 52.8302L252.725 53.5842L252.804 53.5387C252.471 53.191 252.347 52.8549 252.431 52.5305C252.513 52.2042 252.765 51.9189 253.188 51.6746C253.293 51.614 253.413 51.5524 253.547 51.4898C253.682 51.4272 253.807 51.376 253.921 51.3361L255.787 52.3995C255.659 52.4395 255.497 52.5031 255.3 52.5903C255.103 52.6776 254.932 52.7629 254.788 52.8462C254.48 53.0242 254.272 53.2218 254.164 53.4388C254.056 53.6521 254.05 53.867 254.146 54.0835C254.245 54.2981 254.449 54.4935 254.759 54.6698L259.048 57.1146L256.952 58.3249ZM265.863 53.3503C265.085 53.7992 264.258 54.0955 263.381 54.2393C262.504 54.3794 261.624 54.3705 260.739 54.2128C259.852 54.0532 259.008 53.7455 258.209 53.2897C257.429 52.8452 256.895 52.3679 256.608 51.858C256.32 51.348 256.286 50.8411 256.505 50.3372C256.727 49.8315 257.209 49.3646 257.95 48.9366C258.449 48.6487 258.993 48.4267 259.584 48.2705C260.175 48.1105 260.791 48.0287 261.432 48.025C262.076 48.0194 262.73 48.1024 263.394 48.274C264.055 48.4436 264.708 48.7123 265.353 49.0799L265.931 49.4091L259.549 53.0937L258.245 52.351L262.654 49.8055C262.351 49.633 262.018 49.518 261.653 49.4606C261.288 49.4032 260.923 49.4042 260.559 49.4636C260.194 49.5193 259.859 49.6352 259.554 49.8114C259.236 49.9951 259.028 50.2001 258.93 50.4266C258.832 50.6493 258.838 50.8707 258.947 51.0909C259.052 51.3093 259.253 51.5047 259.55 51.6773L260.789 52.3835C261.164 52.5973 261.557 52.7422 261.968 52.8184C262.382 52.8926 262.791 52.8981 263.195 52.8347C263.599 52.7714 263.976 52.6384 264.327 52.4358C264.56 52.3013 264.741 52.1594 264.868 52.0102C264.996 51.8609 265.063 51.709 265.069 51.5545C265.075 51.3999 265.019 51.2474 264.9 51.0969L266.967 50.0508C267.336 50.3739 267.543 50.723 267.586 51.0979C267.63 51.4691 267.51 51.8483 267.225 52.2354C266.94 52.6188 266.486 52.9905 265.863 53.3503ZM271.42 43.7535L269.619 44.929C269.422 44.8542 269.203 44.8105 268.964 44.798C268.72 44.7836 268.471 44.805 268.215 44.8622C267.958 44.9157 267.709 45.0126 267.466 45.1527C267.141 45.3402 266.937 45.5377 266.852 45.7453C266.764 45.951 266.833 46.1185 267.06 46.248C267.241 46.3511 267.466 46.3967 267.736 46.3846C268.005 46.3725 268.353 46.2867 268.78 46.1272L270.424 45.495C271.311 45.157 272.102 44.9796 272.798 44.9625C273.495 44.9455 274.116 45.0927 274.663 45.404C275.16 45.6872 275.45 46.02 275.533 46.4024C275.619 46.7829 275.515 47.179 275.221 47.5907C274.926 47.9986 274.451 48.392 273.795 48.7708C272.794 49.3484 271.788 49.6895 270.776 49.7942C269.765 49.895 268.846 49.7684 268.02 49.4145L269.973 48.1623C270.342 48.3007 270.726 48.3468 271.127 48.3004C271.525 48.2522 271.91 48.1201 272.284 47.9042C272.652 47.6921 272.876 47.4813 272.958 47.2719C273.039 47.0587 272.968 46.8864 272.744 46.7551C272.55 46.6482 272.313 46.6055 272.034 46.627C271.752 46.6467 271.413 46.7324 271.02 46.8843L269.449 47.4909C268.563 47.8326 267.757 48.0036 267.031 48.0037C266.308 48.002 265.663 47.8398 265.097 47.5172C264.61 47.2396 264.322 46.9247 264.232 46.5725C264.146 46.2184 264.247 45.8487 264.535 45.4634C264.826 45.0762 265.295 44.6961 265.941 44.3229C266.896 43.7718 267.849 43.4534 268.802 43.3679C269.758 43.2804 270.63 43.4089 271.42 43.7535ZM281.925 44.0769C281.147 44.5257 280.32 44.8221 279.443 44.9659C278.566 45.1059 277.686 45.0971 276.802 44.9393C275.914 44.7797 275.07 44.472 274.271 44.0163C273.491 43.5717 272.957 43.0945 272.67 42.5845C272.382 42.0746 272.348 41.5677 272.567 41.0638C272.789 40.5581 273.271 40.0912 274.012 39.6631C274.511 39.3753 275.055 39.1532 275.646 38.997C276.237 38.8371 276.853 38.7552 277.494 38.7516C278.138 38.746 278.792 38.829 279.456 39.0005C280.117 39.1702 280.77 39.4388 281.415 39.8064L281.993 40.1356L275.611 43.8203L274.307 43.0775L278.716 40.5321C278.414 40.3595 278.08 40.2446 277.715 40.1871C277.35 40.1297 276.985 40.1308 276.621 40.1902C276.256 40.2459 275.921 40.3618 275.616 40.5379C275.298 40.7216 275.09 40.9267 274.992 41.1532C274.894 41.3758 274.9 41.5973 275.009 41.8175C275.114 42.0358 275.315 42.2313 275.612 42.4039L276.851 43.11C277.226 43.3238 277.619 43.4688 278.03 43.5449C278.444 43.6192 278.853 43.6246 279.257 43.5613C279.661 43.498 280.038 43.365 280.389 43.1623C280.622 43.0279 280.803 42.886 280.93 42.7367C281.058 42.5875 281.125 42.4356 281.131 42.281C281.137 42.1264 281.081 41.9739 280.962 41.8235L283.029 40.7773C283.398 41.1005 283.605 41.4495 283.648 41.8245C283.692 42.1956 283.572 42.5748 283.287 42.962C283.002 43.3454 282.548 43.717 281.925 44.0769ZM286.614 41.1999L279.031 36.8785L281.064 35.7052L282.387 36.4592L282.465 36.4137C282.132 36.066 282.008 35.7299 282.093 35.4055C282.174 35.0792 282.426 34.7939 282.849 34.5496C282.954 34.489 283.074 34.4274 283.209 34.3648C283.343 34.3022 283.468 34.251 283.583 34.2111L285.449 35.2745C285.321 35.3145 285.158 35.3781 284.961 35.4653C284.764 35.5526 284.594 35.6379 284.45 35.7212C284.141 35.8992 283.933 36.0968 283.825 36.3138C283.717 36.5271 283.711 36.742 283.807 36.9585C283.906 37.1731 284.111 37.3685 284.42 37.5448L288.71 39.9896L286.614 41.1999ZM291.977 29.4041L296.917 35.251L294.555 36.6146L284.331 33.8188L286.545 32.5404L293.54 34.7261L293.619 34.6806L289.758 30.6853L291.977 29.4041ZM303.981 31.3425C303.204 31.7914 302.377 32.0877 301.5 32.2315C300.623 32.3715 299.742 32.3627 298.858 32.205C297.971 32.0453 297.127 31.7377 296.327 31.2819C295.547 30.8374 295.014 30.3601 294.726 29.8502C294.439 29.3402 294.405 28.8333 294.624 28.3294C294.846 27.8237 295.327 27.3568 296.069 26.9288C296.567 26.6409 297.112 26.4189 297.703 26.2627C298.294 26.1027 298.91 26.0209 299.551 26.0172C300.195 26.0116 300.849 26.0946 301.513 26.2661C302.174 26.4358 302.827 26.7045 303.472 27.0721L304.049 27.4012L297.667 31.0859L296.364 30.3432L300.773 27.7977C300.47 27.6252 300.136 27.5102 299.771 27.4528C299.407 27.3954 299.042 27.3964 298.677 27.4558C298.313 27.5115 297.978 27.6274 297.673 27.8035C297.355 27.9873 297.147 28.1923 297.049 28.4188C296.951 28.6415 296.956 28.8629 297.065 29.0831C297.171 29.3015 297.372 29.4969 297.668 29.6695L298.907 30.3756C299.282 30.5895 299.675 30.7344 300.086 30.8106C300.501 30.8848 300.91 30.8903 301.314 30.8269C301.718 30.7636 302.095 30.6306 302.446 30.428C302.679 30.2935 302.859 30.1516 302.987 30.0024C303.115 29.8531 303.182 29.7012 303.188 29.5466C303.194 29.3921 303.138 29.2396 303.019 29.0891L305.086 28.0429C305.455 28.3661 305.661 28.7151 305.705 29.0901C305.749 29.4613 305.628 29.8404 305.343 30.2276C305.059 30.611 304.605 30.9827 303.981 31.3425ZM311.579 26.9279C311.005 27.2593 310.337 27.4751 309.575 27.5752C308.813 27.6716 308.006 27.6333 307.154 27.4604C306.303 27.2837 305.454 26.9544 304.608 26.4724C303.74 25.9772 303.157 25.485 302.86 24.9958C302.559 24.5047 302.497 24.0441 302.673 23.6139C302.85 23.1799 303.215 22.8028 303.769 22.4827C304.193 22.2384 304.618 22.0761 305.044 21.9957C305.471 21.9116 305.879 21.8803 306.266 21.9019C306.654 21.9196 306.996 21.9601 307.292 22.0234L307.356 21.9865L303.555 19.8202L305.646 18.6128L315.756 24.3746L313.689 25.5678L312.475 24.8757L312.386 24.9268C312.499 25.1037 312.568 25.3033 312.595 25.5256C312.622 25.7441 312.56 25.9743 312.41 26.2159C312.262 26.4557 311.985 26.693 311.579 26.9279ZM310.57 25.5906C310.907 25.3955 311.101 25.1782 311.149 24.9387C311.198 24.6955 311.117 24.4422 310.906 24.1789C310.698 23.9137 310.369 23.6527 309.918 23.3957C309.467 23.1388 309.013 22.9516 308.556 22.8341C308.099 22.7166 307.662 22.6745 307.245 22.7077C306.827 22.7409 306.45 22.855 306.112 23.0501C305.768 23.249 305.571 23.4701 305.522 23.7133C305.474 23.9566 305.555 24.208 305.766 24.4675C305.977 24.727 306.301 24.9815 306.739 25.2309C307.18 25.4823 307.631 25.6695 308.091 25.7926C308.551 25.9119 308.993 25.9588 309.417 25.9331C309.841 25.9036 310.225 25.7895 310.57 25.5906Z" fill="white"/>
</g>
<defs>
<filter id="filter0_d_46_4827" x="-6" y="-3" width="368.151" height="225.768" filterUnits="userSpaceOnUse" color-interpolation-filters="sRGB">
<feFlood flood-opacity="0" result="BackgroundImageFix"/>
<feColorMatrix in="SourceAlpha" type="matrix" values="0 0 0 0 0 0 0 0 0 0 0 0 0 0 0 0 0 0 127 0" result="hardAlpha"/>
<feOffset dy="12"/>
<feGaussianBlur stdDeviation="8"/>
<feComposite in2="hardAlpha" operator="out"/>
<feColorMatrix type="matrix" values="0 0 0 0 0 0 0 0 0 0 0 0 0 0 0 0 0 0 0.3 0"/>
<feBlend mode="normal" in2="BackgroundImageFix" result="effect1_dropShadow_46_4827"/>
<feBlend mode="normal" in="SourceGraphic" in2="effect1_dropShadow_46_4827" result="shape"/>
</filter>
</defs>
</svg>
