<svg width="368" height="226" viewBox="0 0 368 226" fill="none" xmlns="http://www.w3.org/2000/svg">
<g filter="url(#filter0_d_1242_117)">
<rect width="353" height="48" rx="12" transform="matrix(0.866025 -0.5 0.868804 0.495155 10 177.5)" fill="#373951" shape-rendering="crispEdges"/>
<rect x="1.73483" y="-0.00484458" width="351" height="46" rx="11" transform="matrix(0.866025 -0.5 0.868804 0.495155 10.2366 178.365)" stroke="#3E405B" stroke-width="2" shape-rendering="crispEdges"/>
<path d="M78.4502 167.883L76.91 167.005L77.1651 163.035C77.174 162.69 77.1633 162.391 77.133 162.136C77.106 161.88 77.0331 161.656 76.9143 161.464C76.7921 161.27 76.5978 161.097 76.3312 160.945C76.0351 160.777 75.7128 160.67 75.3644 160.626C75.0127 160.58 74.6628 160.591 74.3147 160.66C73.9633 160.727 73.64 160.846 73.3447 161.016C73.0364 161.194 72.8299 161.385 72.7254 161.589C72.6208 161.793 72.623 161.997 72.732 162.202C72.841 162.407 73.0568 162.602 73.3793 162.786L71.3569 163.953C70.6954 163.576 70.2704 163.163 70.0819 162.713C69.8933 162.263 69.9348 161.807 70.2062 161.344C70.4776 160.882 70.9643 160.448 71.6663 160.043C72.388 159.626 73.1446 159.336 73.936 159.174C74.7273 159.008 75.4977 158.967 76.2471 159.052C76.9965 159.136 77.6624 159.344 78.2449 159.676C78.6266 159.894 78.928 160.152 79.149 160.451C79.3732 160.749 79.5222 161.136 79.5958 161.615C79.6661 162.092 79.6711 162.71 79.6108 163.469L79.5859 165.143L79.655 165.183L83.8868 162.739L85.6342 163.735L78.4502 167.883ZM91.3515 160.689C90.5018 161.176 89.5646 161.478 88.5398 161.593C87.5183 161.708 86.4502 161.635 85.3356 161.376C84.2244 161.115 83.1175 160.669 82.015 160.037C80.9125 159.409 80.1354 158.779 79.6835 158.149C79.2348 157.517 79.1116 156.911 79.3137 156.33C79.5157 155.745 80.0383 155.209 80.8814 154.722C81.7244 154.235 82.6535 153.933 83.6684 153.815C84.6866 153.696 85.7481 153.762 86.8528 154.016C87.9542 154.267 89.0545 154.708 90.1537 155.338C91.2627 155.97 92.0465 156.605 92.505 157.243C92.9667 157.878 93.1015 158.49 92.9093 159.076C92.7171 159.663 92.1978 160.201 91.3515 160.689ZM89.5793 159.679C90.1566 159.346 90.3263 158.914 90.0882 158.383C89.8502 157.852 89.147 157.256 87.9788 156.594C87.212 156.157 86.4948 155.838 85.8273 155.639C85.163 155.437 84.5598 155.345 84.0177 155.364C83.4789 155.38 83.0176 155.499 82.6338 155.721C82.0597 156.052 81.8884 156.482 82.1199 157.009C82.3514 157.536 83.0397 158.128 84.185 158.784C84.9616 159.227 85.687 159.552 86.3612 159.759C87.0353 159.963 87.6451 160.056 88.1905 160.039C88.7325 160.021 89.1955 159.901 89.5793 159.679ZM96.7179 157.336L95.1777 156.458L95.4328 152.488C95.4417 152.143 95.431 151.844 95.4007 151.589C95.3737 151.333 95.3008 151.109 95.182 150.917C95.0599 150.723 94.8655 150.551 94.599 150.399C94.3028 150.23 93.9805 150.123 93.6321 150.079C93.2804 150.033 92.9305 150.044 92.5824 150.113C92.231 150.18 91.9077 150.299 91.6125 150.469C91.3041 150.647 91.0977 150.838 90.9931 151.042C90.8885 151.246 90.8907 151.45 90.9997 151.655C91.1087 151.861 91.3245 152.055 91.647 152.239L89.6246 153.406C88.9631 153.029 88.5381 152.616 88.3496 152.166C88.1611 151.716 88.2025 151.26 88.4739 150.797C88.7453 150.335 89.232 149.901 89.9341 149.496C90.6557 149.079 91.4123 148.789 92.2037 148.627C92.9951 148.461 93.7654 148.42 94.5148 148.505C95.2642 148.589 95.9301 148.798 96.5126 149.13C96.8944 149.347 97.1957 149.605 97.4167 149.904C97.641 150.202 97.7899 150.589 97.8635 151.068C97.9339 151.545 97.9389 152.163 97.8786 152.923L97.8537 154.596L97.9228 154.636L102.154 152.193L103.902 153.188L96.7179 157.336ZM109.309 150.225C108.574 150.65 107.793 150.955 106.965 151.142C106.138 151.326 105.335 151.385 104.556 151.321C103.777 151.254 103.088 151.055 102.489 150.725L104.635 149.486C104.895 149.619 105.192 149.697 105.527 149.719C105.863 149.736 106.206 149.703 106.557 149.617C106.908 149.531 107.24 149.398 107.552 149.218C107.876 149.031 108.106 148.832 108.24 148.623C108.374 148.413 108.41 148.209 108.347 148.012C108.284 147.814 108.119 147.639 107.852 147.487C107.582 147.333 107.268 147.241 106.91 147.21C106.552 147.175 106.174 147.204 105.777 147.298C105.383 147.389 104.996 147.545 104.615 147.765L103.675 148.307L102.105 147.413L103.045 146.87C103.367 146.684 103.595 146.489 103.729 146.283C103.866 146.075 103.905 145.875 103.845 145.683C103.782 145.489 103.618 145.316 103.351 145.164C103.098 145.02 102.815 144.928 102.503 144.89C102.19 144.847 101.872 144.858 101.546 144.921C101.225 144.982 100.921 145.095 100.636 145.26C100.347 145.426 100.136 145.609 100.001 145.807C99.8639 146.003 99.8185 146.198 99.865 146.39C99.9115 146.582 100.058 146.754 100.305 146.906L98.263 148.085C97.6904 147.747 97.3427 147.359 97.2199 146.92C97.0971 146.481 97.1829 146.034 97.4773 145.577C97.7717 145.116 98.2634 144.687 98.9523 144.289C99.6477 143.887 100.383 143.608 101.158 143.452C101.933 143.295 102.68 143.256 103.4 143.335C104.12 143.41 104.745 143.601 105.275 143.907C105.844 144.227 106.141 144.598 106.165 145.018C106.192 145.436 105.975 145.837 105.513 146.221L105.592 146.266C106.428 145.893 107.251 145.714 108.059 145.731C108.868 145.744 109.584 145.93 110.21 146.29C110.789 146.617 111.135 147.004 111.248 147.452C111.364 147.899 111.259 148.363 110.931 148.847C110.604 149.33 110.063 149.79 109.309 150.225ZM109.114 140.602L107.352 139.598L115.629 134.819L117.391 135.824L114.306 137.605L122.653 142.363L120.547 143.578L112.2 138.821L109.114 140.602ZM129.558 138.546C128.781 138.994 127.954 139.291 127.077 139.435C126.2 139.575 125.319 139.566 124.435 139.408C123.548 139.248 122.704 138.941 121.904 138.485C121.124 138.04 120.591 137.563 120.303 137.053C120.016 136.543 119.982 136.036 120.201 135.533C120.423 135.027 120.904 134.56 121.646 134.132C122.144 133.844 122.689 133.622 123.28 133.466C123.871 133.306 124.487 133.224 125.128 133.22C125.772 133.215 126.426 133.298 127.09 133.469C127.751 133.639 128.404 133.908 129.049 134.275L129.626 134.604L123.244 138.289L121.941 137.546L126.35 135.001C126.047 134.828 125.713 134.713 125.348 134.656C124.984 134.598 124.619 134.6 124.254 134.659C123.89 134.715 123.555 134.831 123.25 135.007C122.932 135.19 122.724 135.395 122.626 135.622C122.528 135.845 122.533 136.066 122.642 136.286C122.748 136.505 122.949 136.7 123.245 136.873L124.484 137.579C124.859 137.793 125.252 137.938 125.663 138.014C126.078 138.088 126.487 138.093 126.891 138.03C127.295 137.967 127.672 137.834 128.023 137.631C128.256 137.497 128.436 137.355 128.564 137.205C128.692 137.056 128.759 136.904 128.765 136.75C128.771 136.595 128.715 136.443 128.596 136.292L130.663 135.246C131.032 135.569 131.238 135.918 131.282 136.293C131.326 136.664 131.205 137.044 130.921 137.431C130.636 137.814 130.182 138.186 129.558 138.546ZM134.247 135.669L126.665 131.347L128.697 130.174L130.02 130.928L130.099 130.882C129.766 130.535 129.642 130.199 129.726 129.874C129.808 129.548 130.06 129.263 130.483 129.018C130.588 128.958 130.708 128.896 130.842 128.834C130.977 128.771 131.102 128.72 131.216 128.68L133.082 129.743C132.954 129.783 132.792 129.847 132.595 129.934C132.398 130.021 132.227 130.107 132.083 130.19C131.775 130.368 131.567 130.566 131.459 130.783C131.351 130.996 131.345 131.211 131.441 131.427C131.54 131.642 131.744 131.837 132.054 132.014L136.343 134.458L134.247 135.669ZM139.917 132.395L132.335 128.074L134.367 126.901L135.69 127.655L135.769 127.609C135.436 127.261 135.312 126.925 135.396 126.601C135.477 126.275 135.73 125.989 136.153 125.745C136.258 125.684 136.378 125.623 136.512 125.56C136.647 125.498 136.771 125.446 136.886 125.406L138.752 126.47C138.624 126.51 138.462 126.573 138.265 126.661C138.068 126.748 137.897 126.833 137.753 126.917C137.445 127.095 137.236 127.292 137.129 127.509C137.021 127.722 137.015 127.937 137.111 128.154C137.21 128.368 137.414 128.564 137.724 128.74L142.013 131.185L139.917 132.395ZM148.143 127.787C147.569 128.119 146.901 128.334 146.139 128.435C145.377 128.531 144.571 128.493 143.719 128.32C142.868 128.143 142.019 127.814 141.173 127.332C140.304 126.837 139.722 126.344 139.424 125.855C139.124 125.364 139.062 124.903 139.238 124.473C139.414 124.039 139.78 123.662 140.334 123.342C140.757 123.098 141.182 122.935 141.609 122.855C142.036 122.771 142.443 122.74 142.831 122.761C143.219 122.779 143.561 122.82 143.857 122.883L143.921 122.846L142.647 122.12L144.738 120.913L152.321 125.234L150.254 126.427L149.04 125.735L148.951 125.786C149.063 125.963 149.133 126.163 149.16 126.385C149.187 126.604 149.125 126.834 148.974 127.075C148.827 127.315 148.55 127.552 148.143 127.787ZM147.134 126.45C147.472 126.255 147.665 126.038 147.714 125.798C147.763 125.555 147.681 125.302 147.47 125.038C147.263 124.773 146.933 124.512 146.483 124.255C146.032 123.998 145.578 123.811 145.121 123.693C144.664 123.576 144.227 123.534 143.809 123.567C143.392 123.6 143.015 123.714 142.677 123.909C142.332 124.108 142.136 124.329 142.087 124.573C142.039 124.816 142.12 125.067 142.331 125.327C142.542 125.586 142.866 125.841 143.304 126.09C143.745 126.342 144.195 126.529 144.656 126.652C145.116 126.771 145.558 126.818 145.982 126.792C146.406 126.763 146.79 126.649 147.134 126.45ZM154.083 124.216L143.974 118.454L148.009 116.125C148.75 115.697 149.479 115.403 150.194 115.242C150.91 115.082 151.589 115.041 152.23 115.121C152.867 115.198 153.439 115.381 153.946 115.67C154.341 115.895 154.61 116.138 154.752 116.4C154.89 116.66 154.917 116.924 154.833 117.191C154.748 117.456 154.57 117.711 154.298 117.959L154.396 118.015C154.797 117.803 155.264 117.658 155.8 117.579C156.338 117.498 156.894 117.5 157.466 117.586C158.034 117.669 158.567 117.852 159.064 118.135C159.6 118.441 159.946 118.791 160.102 119.184C160.257 119.574 160.199 119.987 159.928 120.423C159.656 120.859 159.143 121.295 158.389 121.73L154.083 124.216ZM154.467 121.99L156.204 120.987C156.797 120.645 157.117 120.33 157.162 120.043C157.204 119.755 157.034 119.502 156.652 119.284C156.373 119.125 156.058 119.023 155.71 118.979C155.362 118.934 155.002 118.949 154.631 119.024C154.263 119.097 153.909 119.231 153.567 119.428L151.781 120.46L154.467 121.99ZM150.335 119.635L151.914 118.723C152.206 118.555 152.414 118.376 152.539 118.187C152.663 117.995 152.695 117.806 152.636 117.622C152.579 117.435 152.418 117.266 152.151 117.114C151.786 116.906 151.362 116.813 150.879 116.835C150.399 116.855 149.923 117.002 149.451 117.274L147.832 118.209L150.335 119.635ZM155.191 111.978L165.301 117.74L163.205 118.95L153.095 113.188L155.191 111.978ZM170.543 114.883C169.779 115.324 168.955 115.613 168.072 115.749C167.188 115.882 166.303 115.868 165.415 115.709C164.524 115.547 163.69 115.245 162.914 114.803C162.131 114.356 161.597 113.879 161.313 113.371C161.026 112.861 160.996 112.353 161.225 111.847C161.453 111.338 161.95 110.862 162.714 110.421C163.479 109.98 164.302 109.693 165.186 109.56C166.069 109.424 166.957 109.437 167.847 109.598C168.735 109.758 169.57 110.061 170.354 110.507C171.13 110.95 171.662 111.426 171.95 111.936C172.234 112.444 172.261 112.953 172.033 113.462C171.804 113.968 171.308 114.442 170.543 114.883ZM168.924 113.949C169.272 113.748 169.463 113.524 169.499 113.277C169.531 113.028 169.433 112.771 169.206 112.506C168.982 112.239 168.649 111.98 168.208 111.729C167.767 111.477 167.313 111.288 166.846 111.161C166.383 111.033 165.934 110.978 165.5 110.998C165.067 111.018 164.676 111.129 164.328 111.33C163.977 111.532 163.783 111.76 163.744 112.013C163.708 112.263 163.803 112.522 164.027 112.789C164.254 113.054 164.589 113.313 165.03 113.564C165.471 113.815 165.923 114.005 166.386 114.134C166.853 114.261 167.305 114.313 167.742 114.291C168.179 114.266 168.573 114.152 168.924 113.949ZM179.041 109.977C178.277 110.418 177.453 110.707 176.57 110.843C175.686 110.976 174.801 110.962 173.913 110.802C173.022 110.641 172.188 110.339 171.412 109.896C170.628 109.45 170.095 108.973 169.811 108.465C169.524 107.955 169.494 107.447 169.723 106.941C169.951 106.431 170.448 105.956 171.212 105.515C171.976 105.073 172.8 104.787 173.684 104.654C174.567 104.518 175.454 104.53 176.345 104.692C177.233 104.851 178.068 105.154 178.852 105.601C179.628 106.043 180.16 106.52 180.447 107.03C180.731 107.538 180.759 108.047 180.531 108.556C180.302 109.062 179.806 109.535 179.041 109.977ZM177.422 109.043C177.77 108.842 177.961 108.618 177.997 108.371C178.029 108.122 177.931 107.865 177.704 107.6C177.48 107.333 177.147 107.074 176.706 106.822C176.265 106.571 175.811 106.382 175.344 106.255C174.881 106.126 174.432 106.072 173.998 106.092C173.565 106.112 173.174 106.223 172.826 106.423C172.475 106.626 172.28 106.854 172.242 107.106C172.206 107.357 172.301 107.616 172.525 107.883C172.752 108.148 173.086 108.406 173.527 108.658C173.968 108.909 174.421 109.099 174.884 109.228C175.351 109.355 175.803 109.407 176.24 109.385C176.677 109.359 177.071 109.245 177.422 109.043ZM183.976 106.958L176.394 102.636L178.392 101.483L179.729 102.245L179.818 102.194C179.531 101.85 179.443 101.499 179.554 101.14C179.664 100.782 179.976 100.455 180.487 100.16C181.006 99.8604 181.577 99.6797 182.201 99.6176C182.822 99.5537 183.413 99.6124 183.976 99.7936L184.055 99.7482C183.774 99.4116 183.706 99.0527 183.849 98.6716C183.993 98.2867 184.342 97.9342 184.896 97.6141C185.602 97.2069 186.399 97.0049 187.29 97.0081C188.18 97.0075 189.037 97.2416 189.86 97.7105L194.959 100.617L192.868 101.824L188.183 99.1543C187.762 98.9142 187.334 98.7985 186.901 98.8073C186.467 98.816 186.083 98.917 185.748 99.1102C185.368 99.3299 185.193 99.5707 185.223 99.8326C185.25 100.093 185.461 100.335 185.856 100.56L190.486 103.199L188.454 104.372L183.725 101.677C183.353 101.465 182.95 101.358 182.516 101.355C182.086 101.351 181.699 101.448 181.354 101.647C181.121 101.782 180.97 101.937 180.902 102.112C180.833 102.284 180.85 102.461 180.953 102.643C181.052 102.824 181.241 102.994 181.521 103.154L186.072 105.747L183.976 106.958ZM197.968 99.0266C197.643 99.2141 197.249 99.3094 196.786 99.3126C196.323 99.312 195.928 99.2189 195.603 99.0332C195.28 98.8494 195.118 98.6255 195.118 98.3617C195.12 98.0959 195.284 97.8693 195.609 97.6818C195.924 97.4999 196.314 97.4065 196.781 97.4014C197.247 97.3964 197.642 97.4857 197.964 97.6695C198.182 97.7933 198.325 97.939 198.394 98.1065C198.464 98.2703 198.464 98.4343 198.396 98.5985C198.324 98.7608 198.181 98.9035 197.968 99.0266ZM205.252 94.6743L202.968 95.9925L196.338 88.2221L199.083 86.6369L212.667 90.393L210.384 91.7112L200.06 88.7235L199.981 88.7689L205.252 94.6743ZM201.135 92.4919L206.528 89.3783L208.197 90.3292L202.804 93.4428L201.135 92.4919ZM205.827 82.7435L215.937 88.5053L213.84 89.7155L203.731 83.9537L205.827 82.7435ZM209.602 80.5638L219.712 86.3256L217.616 87.5358L207.506 81.774L209.602 80.5638ZM224.598 83.5046L217.016 79.1832L219.048 78.0099L220.371 78.7639L220.45 78.7184C220.117 78.3707 219.993 78.0346 220.077 77.7102C220.158 77.3839 220.411 77.0986 220.834 76.8543C220.939 76.7936 221.059 76.7321 221.193 76.6695C221.328 76.6069 221.452 76.5557 221.567 76.5158L223.433 77.5792C223.305 77.6192 223.143 77.6828 222.946 77.77C222.749 77.8573 222.578 77.9426 222.434 78.0259C222.126 78.2039 221.918 78.4015 221.81 78.6185C221.702 78.8318 221.696 79.0467 221.792 79.2632C221.891 79.4777 222.095 79.6732 222.405 79.8495L226.694 82.2943L224.598 83.5046ZM230.268 80.2311L222.686 75.9098L224.782 74.6995L232.364 79.0209L230.268 80.2311ZM222.761 74.7448C222.45 74.9247 222.079 75.02 221.648 75.0306C221.218 75.0374 220.856 74.9574 220.563 74.7905C220.274 74.6254 220.135 74.4204 220.147 74.1753C220.16 73.9265 220.322 73.7121 220.634 73.5322C220.945 73.3523 221.316 73.2589 221.747 73.252C222.177 73.2414 222.537 73.3186 222.827 73.4837C223.12 73.6506 223.26 73.8585 223.247 74.1073C223.235 74.3523 223.073 74.5648 222.761 74.7448ZM240.45 77.7961C239.771 78.1881 239.094 78.4708 238.421 78.6442C237.755 78.8176 237.119 78.8957 236.515 78.8785C235.91 78.8614 235.366 78.7639 234.883 78.5862L236.56 77.3178C236.77 77.37 237.005 77.3967 237.265 77.3978C237.524 77.399 237.798 77.3615 238.087 77.2853C238.383 77.2091 238.683 77.0829 238.988 76.9067C239.444 76.6435 239.708 76.3629 239.779 76.0649C239.857 75.7669 239.636 75.4697 239.116 75.1733L237.729 74.3828L237.641 74.4339C237.76 74.607 237.821 74.8 237.825 75.013C237.829 75.2259 237.745 75.4495 237.575 75.6837C237.405 75.9179 237.12 76.1505 236.72 76.3816C236.152 76.7092 235.504 76.9325 234.775 77.0514C234.046 77.1665 233.27 77.1479 232.448 76.9957C231.626 76.8397 230.796 76.5225 229.957 76.0442C229.098 75.5547 228.52 75.0653 228.223 74.5761C227.926 74.0869 227.865 73.6272 228.041 73.197C228.221 72.7649 228.588 72.3888 229.142 72.0687C229.565 71.8244 229.992 71.6611 230.422 71.5788C230.849 71.4947 231.257 71.4634 231.644 71.485C232.032 71.5027 232.376 71.5423 232.675 71.6036L232.754 71.5582L231.48 70.8323L233.561 69.6306L241.218 73.9942C241.863 74.3618 242.245 74.7603 242.364 75.1897C242.484 75.6191 242.373 76.0567 242.033 76.5024C241.699 76.9482 241.171 77.3794 240.45 77.7961ZM235.804 75.0978C236.142 74.9027 236.344 74.6901 236.409 74.46C236.474 74.2261 236.411 73.9831 236.219 73.7311C236.028 73.4753 235.71 73.2208 235.266 72.9676C234.822 72.7144 234.374 72.5309 233.924 72.4172C233.47 72.3016 233.035 72.2604 232.618 72.2936C232.2 72.3268 231.823 72.441 231.485 72.6361C231.141 72.8349 230.944 73.056 230.895 73.2993C230.843 73.5407 230.921 73.7902 231.129 74.0478C231.337 74.3054 231.656 74.5571 232.087 74.8028C232.525 75.0523 232.964 75.2329 233.405 75.3448C233.845 75.4529 234.269 75.4894 234.677 75.4543C235.084 75.4155 235.46 75.2966 235.804 75.0978ZM240.524 69.2804L244.908 71.7787L242.812 72.9889L232.702 67.2271L234.739 66.051L238.604 68.2539L238.693 68.2027C238.416 67.8492 238.341 67.4903 238.468 67.1262C238.592 66.7602 238.941 66.4115 239.515 66.0801C240.04 65.777 240.613 65.5785 241.233 65.4844C241.854 65.3865 242.487 65.397 243.131 65.5158C243.775 65.6309 244.392 65.8582 244.981 66.1977L249.809 68.9492L247.713 70.1594L243.26 67.6217C242.796 67.3535 242.314 67.2144 241.815 67.2045C241.319 67.1927 240.857 67.3099 240.431 67.5561C240.145 67.7209 239.954 67.9014 239.856 68.0977C239.761 68.2921 239.768 68.4919 239.877 68.697C239.986 68.8984 240.202 69.0928 240.524 69.2804ZM247.896 61.3544L249.476 62.2546L244.924 64.8825L243.345 63.9822L247.896 61.3544ZM242.561 62.3503L244.658 61.1401L251.727 65.1688C251.921 65.2795 252.102 65.3487 252.269 65.3765C252.434 65.4024 252.59 65.3973 252.737 65.3611C252.888 65.323 253.034 65.2632 253.176 65.1817C253.274 65.1249 253.364 65.0634 253.446 64.9972C253.525 64.9291 253.585 64.8771 253.628 64.8412L255.523 65.5427C255.45 65.6221 255.341 65.7289 255.193 65.8631C255.049 65.9992 254.846 66.1487 254.583 66.3115C254.098 66.6144 253.588 66.8317 253.052 66.9632C252.52 67.0928 251.987 67.1254 251.451 67.061C250.915 66.9965 250.4 66.8217 249.907 66.5366L242.561 62.3503ZM257.618 58.2223L255.817 59.3977C255.62 59.3229 255.401 59.2792 255.161 59.2667C254.918 59.2523 254.668 59.2737 254.412 59.331C254.156 59.3845 253.907 59.4813 253.664 59.6215C253.339 59.809 253.134 60.0065 253.05 60.214C252.961 60.4197 253.031 60.5873 253.258 60.7167C253.439 60.8199 253.664 60.8654 253.934 60.8533C254.203 60.8413 254.551 60.7555 254.978 60.596L256.622 59.9638C257.508 59.6258 258.3 59.4483 258.996 59.4313C259.693 59.4143 260.314 59.5614 260.86 59.8728C261.357 60.156 261.647 60.4888 261.731 60.8712C261.817 61.2516 261.713 61.6477 261.418 62.0594C261.124 62.4674 260.649 62.8607 259.992 63.2395C258.992 63.8172 257.986 64.1583 256.974 64.2629C255.962 64.3637 255.044 64.2372 254.218 63.8833L256.171 62.631C256.54 62.7695 256.924 62.8155 257.325 62.7692C257.722 62.7209 258.108 62.5889 258.482 62.373C258.849 62.1608 259.074 61.9501 259.155 61.7406C259.237 61.5274 259.166 61.3552 258.942 61.2239C258.748 61.117 258.511 61.0743 258.232 61.0958C257.949 61.1154 257.611 61.2012 257.217 61.3531L255.647 61.9596C254.761 62.3014 253.954 62.4723 253.228 62.4725C252.506 62.4707 251.861 62.3085 251.295 61.9859C250.808 61.7083 250.52 61.3934 250.43 61.0412C250.343 60.6871 250.444 60.3174 250.732 59.9321C251.024 59.545 251.492 59.1648 252.139 58.7917C253.093 58.2406 254.047 57.9222 255 57.8366C255.955 57.7491 256.828 57.8777 257.618 58.2223ZM267.737 58.5983L260.155 54.2769L262.187 53.1036L263.51 53.8576L263.589 53.8122C263.256 53.4644 263.132 53.1283 263.216 52.8039C263.297 52.4776 263.55 52.1923 263.973 51.948C264.078 51.8874 264.197 51.8258 264.332 51.7632C264.467 51.7007 264.591 51.6494 264.706 51.6095L266.572 52.673C266.444 52.7129 266.282 52.7765 266.085 52.8638C265.888 52.951 265.717 53.0363 265.573 53.1196C265.264 53.2977 265.056 53.4952 264.949 53.7123C264.841 53.9255 264.835 54.1404 264.931 54.3569C265.03 54.5715 265.234 54.7669 265.543 54.9432L269.833 57.3881L267.737 58.5983ZM276.647 53.6238C275.87 54.0726 275.043 54.369 274.166 54.5128C273.289 54.6528 272.408 54.6439 271.524 54.4862C270.637 54.3266 269.793 54.0189 268.993 53.5631C268.213 53.1186 267.68 52.6414 267.392 52.1314C267.105 51.6214 267.071 51.1145 267.29 50.6107C267.512 50.1049 267.993 49.6381 268.735 49.21C269.233 48.9221 269.778 48.7001 270.369 48.5439C270.96 48.3839 271.576 48.3021 272.217 48.2984C272.861 48.2929 273.515 48.3759 274.179 48.5474C274.84 48.7171 275.493 48.9857 276.138 49.3533L276.715 49.6825L270.333 53.3671L269.03 52.6244L273.439 50.079C273.136 49.9064 272.802 49.7914 272.437 49.734C272.073 49.6766 271.708 49.6776 271.343 49.7371C270.979 49.7927 270.644 49.9087 270.339 50.0848C270.021 50.2685 269.813 50.4736 269.715 50.7C269.617 50.9227 269.622 51.1442 269.731 51.3644C269.837 51.5827 270.038 51.7782 270.334 51.9507L271.573 52.6569C271.948 52.8707 272.341 53.0157 272.752 53.0918C273.167 53.166 273.576 53.1715 273.98 53.1082C274.384 53.0449 274.761 52.9119 275.112 52.7092C275.345 52.5747 275.525 52.4329 275.653 52.2836C275.781 52.1344 275.848 51.9825 275.854 51.8279C275.86 51.6733 275.804 51.5208 275.685 51.3704L277.752 50.3242C278.121 50.6473 278.327 50.9964 278.371 51.3713C278.415 51.7425 278.294 52.1217 278.01 52.5089C277.725 52.8923 277.271 53.2639 276.647 53.6238ZM282.205 44.027L280.404 45.2024C280.207 45.1276 279.988 45.0839 279.748 45.0714C279.505 45.057 279.255 45.0784 278.999 45.1357C278.743 45.1892 278.494 45.286 278.251 45.4261C277.926 45.6136 277.721 45.8112 277.637 46.0187C277.548 46.2244 277.618 46.392 277.845 46.5214C278.026 46.6245 278.251 46.6701 278.521 46.658C278.79 46.646 279.138 46.5602 279.565 46.4007L281.209 45.7684C282.095 45.4305 282.887 45.253 283.583 45.236C284.28 45.2189 284.901 45.3661 285.447 45.6775C285.944 45.9607 286.234 46.2935 286.318 46.6758C286.404 47.0563 286.3 47.4524 286.005 47.8641C285.711 48.2721 285.236 48.6654 284.579 49.0442C283.579 49.6219 282.573 49.963 281.561 50.0676C280.549 50.1684 279.631 50.0419 278.805 49.688L280.758 48.4357C281.127 48.5742 281.511 48.6202 281.912 48.5739C282.309 48.5256 282.695 48.3936 283.069 48.1777C283.436 47.9655 283.661 47.7548 283.742 47.5453C283.824 47.3321 283.753 47.1599 283.529 47.0285C283.335 46.9217 283.098 46.879 282.819 46.9005C282.536 46.9201 282.198 47.0059 281.804 47.1578L280.234 47.7643C279.348 48.1061 278.541 48.277 277.815 48.2771C277.093 48.2754 276.448 48.1132 275.882 47.7906C275.395 47.513 275.107 47.1981 275.017 46.8459C274.93 46.4918 275.031 46.1221 275.319 45.7368C275.611 45.3496 276.079 44.9695 276.726 44.5964C277.68 44.0452 278.634 43.7269 279.587 43.6413C280.542 43.5538 281.415 43.6824 282.205 44.027ZM292.71 44.3503C291.932 44.7992 291.105 45.0955 290.228 45.2393C289.351 45.3794 288.471 45.3705 287.586 45.2128C286.699 45.0532 285.855 44.7455 285.055 44.2897C284.275 43.8452 283.742 43.3679 283.454 42.858C283.167 42.348 283.133 41.8411 283.352 41.3372C283.574 40.8315 284.055 40.3646 284.797 39.9366C285.295 39.6487 285.84 39.4267 286.431 39.2705C287.022 39.1105 287.638 39.0287 288.279 39.025C288.923 39.0194 289.577 39.1024 290.241 39.274C290.902 39.4436 291.555 39.7123 292.2 40.0799L292.777 40.4091L286.395 44.0937L285.092 43.351L289.501 40.8055C289.198 40.633 288.864 40.518 288.5 40.4606C288.135 40.4032 287.77 40.4042 287.405 40.4636C287.041 40.5193 286.706 40.6352 286.401 40.8114C286.083 40.9951 285.875 41.2001 285.777 41.4266C285.679 41.6493 285.684 41.8707 285.793 42.0909C285.899 42.3093 286.1 42.5047 286.396 42.6773L287.635 43.3835C288.011 43.5973 288.404 43.7422 288.814 43.8184C289.229 43.8926 289.638 43.8981 290.042 43.8347C290.446 43.7714 290.823 43.6384 291.174 43.4358C291.407 43.3013 291.587 43.1594 291.715 43.0102C291.843 42.8609 291.91 42.709 291.916 42.5545C291.922 42.3999 291.866 42.2474 291.747 42.0969L293.814 41.0508C294.183 41.3739 294.389 41.723 294.433 42.0979C294.477 42.4691 294.356 42.8483 294.072 43.2354C293.787 43.6188 293.333 43.9905 292.71 44.3503ZM297.398 41.4733L289.816 37.1519L291.848 35.9786L293.171 36.7326L293.25 36.6872C292.917 36.3394 292.793 36.0033 292.878 35.6789C292.959 35.3526 293.211 35.0673 293.634 34.823C293.739 34.7624 293.859 34.7008 293.993 34.6382C294.128 34.5757 294.253 34.5244 294.368 34.4845L296.233 35.548C296.105 35.5879 295.943 35.6515 295.746 35.7388C295.549 35.826 295.379 35.9113 295.234 35.9946C294.926 36.1727 294.718 36.3702 294.61 36.5873C294.502 36.8005 294.496 37.0154 294.592 37.2319C294.691 37.4465 294.895 37.6419 295.205 37.8182L299.495 40.2631L297.398 41.4733ZM302.762 29.6775L307.702 35.5244L305.34 36.8881L295.116 34.0923L297.33 32.8139L304.325 34.9995L304.403 34.9541L300.543 30.9588L302.762 29.6775ZM314.766 31.6159C313.989 32.0648 313.161 32.3611 312.285 32.5049C311.408 32.645 310.527 32.6361 309.643 32.4784C308.755 32.3188 307.912 32.0111 307.112 31.5553C306.332 31.1108 305.798 30.6336 305.511 30.1236C305.224 29.6136 305.19 29.1067 305.408 28.6029C305.63 28.0971 306.112 27.6302 306.853 27.2022C307.352 26.9143 307.897 26.6923 308.488 26.5361C309.079 26.3761 309.695 26.2943 310.335 26.2906C310.979 26.2851 311.633 26.368 312.298 26.5396C312.958 26.7093 313.611 26.9779 314.256 27.3455L314.834 27.6747L308.452 31.3593L307.149 30.6166L311.558 28.0711C311.255 27.8986 310.921 27.7836 310.556 27.7262C310.191 27.6688 309.827 27.6698 309.462 27.7293C309.097 27.7849 308.763 27.9008 308.458 28.077C308.139 28.2607 307.931 28.4658 307.833 28.6922C307.735 28.9149 307.741 29.1363 307.85 29.3566C307.956 29.5749 308.157 29.7704 308.453 29.9429L309.692 30.6491C310.067 30.8629 310.46 31.0079 310.871 31.084C311.285 31.1582 311.694 31.1637 312.098 31.1004C312.502 31.037 312.88 30.904 313.231 30.7014C313.464 30.5669 313.644 30.4251 313.772 30.2758C313.899 30.1266 313.966 29.9746 313.973 29.8201C313.979 29.6655 313.922 29.513 313.804 29.3625L315.871 28.3164C316.24 28.6395 316.446 28.9886 316.49 29.3635C316.533 29.7347 316.413 30.1139 316.128 30.5011C315.843 30.8845 315.389 31.2561 314.766 31.6159ZM322.363 27.2013C321.789 27.5327 321.121 27.7485 320.359 27.8487C319.597 27.945 318.791 27.9068 317.939 27.7339C317.088 27.5572 316.239 27.2278 315.393 26.7458C314.524 26.2506 313.941 25.7585 313.644 25.2693C313.344 24.7782 313.282 24.3175 313.458 23.8873C313.634 23.4533 314 23.0763 314.554 22.7562C314.977 22.5119 315.402 22.3495 315.829 22.2692C316.256 22.1851 316.663 22.1538 317.051 22.1753C317.439 22.1931 317.781 22.2336 318.077 22.2968L318.141 22.2599L314.34 20.0936L316.431 18.8862L326.541 24.648L324.474 25.8412L323.26 25.1491L323.171 25.2002C323.283 25.3771 323.353 25.5767 323.38 25.799C323.407 26.0176 323.345 26.2477 323.194 26.4894C323.047 26.7291 322.77 26.9665 322.363 27.2013ZM321.354 25.864C321.692 25.669 321.885 25.4517 321.934 25.2122C321.983 24.9689 321.901 24.7156 321.69 24.4523C321.483 24.1872 321.153 23.9261 320.702 23.6692C320.252 23.4122 319.798 23.225 319.341 23.1075C318.884 22.9901 318.447 22.9479 318.029 22.9811C317.612 23.0143 317.235 23.1285 316.897 23.3236C316.552 23.5224 316.356 23.7435 316.307 23.9868C316.259 24.23 316.34 24.4814 316.551 24.7409C316.762 25.0004 317.086 25.2549 317.524 25.5044C317.965 25.7557 318.415 25.9429 318.876 26.066C319.336 26.1854 319.778 26.2322 320.202 26.2065C320.626 26.1771 321.01 26.0629 321.354 25.864Z" fill="white"/>
</g>
<path d="M52.064 180.611C51.3755 179.872 50.928 179.031 50.7214 178.088C50.5149 177.144 50.5475 176.209 50.8194 175.282C51.0913 174.355 51.5964 173.548 52.3347 172.859C52.9739 172.263 53.6917 171.851 54.488 171.621C55.2887 171.388 56.0894 171.344 56.89 171.49C57.6865 171.631 58.4066 171.961 59.0504 172.48L57.4163 174.004C56.8939 173.624 56.2914 173.479 55.6089 173.568C54.9222 173.653 54.3177 173.939 53.7955 174.426C53.3454 174.846 53.0386 175.338 52.8751 175.903C52.7117 176.468 52.6918 177.037 52.8154 177.612C52.9391 178.187 53.2108 178.7 53.6306 179.15C54.0504 179.6 54.5427 179.907 55.1075 180.07C55.6723 180.234 56.2421 180.254 56.817 180.13C57.3918 180.006 57.9043 179.735 58.3545 179.315C58.8767 178.828 59.1814 178.27 59.2687 177.642C59.3563 177.005 59.2311 176.41 58.8933 175.858L60.5274 174.334C61.0002 175.013 61.2925 175.746 61.4043 176.534C61.512 177.317 61.4328 178.09 61.1666 178.851C60.905 179.609 60.4546 180.285 59.8153 180.881C59.0771 181.57 58.2361 182.017 57.2926 182.224C56.349 182.43 55.4138 182.398 54.487 182.126C53.5601 181.854 52.7524 181.349 52.064 180.611ZM62.657 184.064C61.6756 184.979 60.5806 185.655 59.3721 186.092C58.168 186.525 56.933 186.721 55.6671 186.681C54.4014 186.633 53.1809 186.353 52.0055 185.841C50.8345 185.326 49.7916 184.573 48.8768 183.583C47.9619 182.593 47.2882 181.496 46.8555 180.292C46.4274 179.083 46.2353 177.849 46.2794 176.587C46.3192 175.321 46.5969 174.103 47.1125 172.932C47.6281 171.761 48.3766 170.718 49.358 169.803C50.3439 168.883 51.4388 168.207 52.6429 167.775C53.8514 167.338 55.0863 167.146 56.3474 167.198C57.6089 167.242 58.8251 167.522 59.996 168.038C61.1669 168.554 62.2143 169.302 63.1382 170.284C64.062 171.266 64.7403 172.358 65.1729 173.562C65.6056 174.766 65.802 176.001 65.7621 177.267C65.7181 178.529 65.436 179.747 64.9159 180.922C64.3958 182.097 63.6428 183.145 62.657 184.064ZM61.1961 182.497C61.9659 181.78 62.5541 180.962 62.9607 180.044C63.3673 179.126 63.5877 178.176 63.622 177.193C63.6564 176.21 63.5048 175.248 63.1675 174.309C62.8259 173.365 62.296 172.513 61.5779 171.751C60.8555 170.986 60.0355 170.4 59.1177 169.993C58.1999 169.587 57.2495 169.366 56.2664 169.332C55.2833 169.297 54.3221 169.449 53.3827 169.786C52.4433 170.124 51.5887 170.651 50.8189 171.369C50.0536 172.083 49.4699 172.896 49.0678 173.81C48.6657 174.724 48.4496 175.674 48.4195 176.662C48.3851 177.645 48.5365 178.61 48.8736 179.559C49.211 180.498 49.7363 181.355 50.4497 182.129C51.1546 182.894 51.966 183.479 52.8838 183.886C53.7974 184.288 54.7457 184.506 55.7288 184.541C56.7163 184.571 57.6819 184.419 58.6255 184.087C59.5694 183.745 60.4263 183.215 61.1961 182.497Z" fill="black"/>
<defs>
<filter id="filter0_d_1242_117" x="-6" y="-3" width="379.41" height="232.268" filterUnits="userSpaceOnUse" color-interpolation-filters="sRGB">
<feFlood flood-opacity="0" result="BackgroundImageFix"/>
<feColorMatrix in="SourceAlpha" type="matrix" values="0 0 0 0 0 0 0 0 0 0 0 0 0 0 0 0 0 0 127 0" result="hardAlpha"/>
<feOffset dy="12"/>
<feGaussianBlur stdDeviation="8"/>
<feComposite in2="hardAlpha" operator="out"/>
<feColorMatrix type="matrix" values="0 0 0 0 0 0 0 0 0 0 0 0 0 0 0 0 0 0 0.3 0"/>
<feBlend mode="normal" in2="BackgroundImageFix" result="effect1_dropShadow_1242_117"/>
<feBlend mode="normal" in="SourceGraphic" in2="effect1_dropShadow_1242_117" result="shape"/>
</filter>
</defs>
</svg>
