<svg width="168" height="103" viewBox="0 0 168 103" fill="none" xmlns="http://www.w3.org/2000/svg">
<path fill-rule="evenodd" clip-rule="evenodd" d="M120.526 3.99218C125.707 2.92263 131.718 3.56823 135.873 5.93652L156.724 17.8202C156.724 17.8203 156.724 17.8203 156.724 17.8203C157.853 18.4636 158.761 19.1863 159.448 19.9574C160.518 21.1571 161.052 22.474 161.053 23.7921L161.053 33.7919C161.053 34.4682 160.912 35.1448 160.631 35.806C160.014 37.2534 158.724 38.627 156.758 39.7621L156.758 39.7621L52.8348 99.762L52.8346 99.762C51.3998 100.59 49.7411 101.213 47.9702 101.631C42.6575 102.882 36.3351 102.281 32.0167 99.8202L32.0166 99.8201L11.1653 87.9365V87.9364C8.28001 86.292 6.83682 84.129 6.83715 81.9632L6.83715 81.9631V72.012C6.81575 69.8395 8.24682 67.6603 11.1318 65.9946L115.055 5.99462C115.055 5.99461 115.055 5.9946 115.055 5.99459C116.652 5.07229 118.527 4.40468 120.526 3.99218Z" fill="url(#paint0_linear_1224_128)"/>
<rect x="0.867415" y="-0.00242229" width="144.565" height="46.8542" rx="11.5" transform="matrix(0.866025 -0.5 0.868804 0.495155 0.118316 73.2147)" fill="url(#paint1_linear_1224_128)"/>
<rect x="0.867415" y="-0.00242229" width="144.565" height="46.8542" rx="11.5" transform="matrix(0.866025 -0.5 0.868804 0.495155 0.118316 73.2147)" stroke="url(#paint2_linear_1224_128)"/>
<path d="M63.1793 66.1358L53.0696 60.374L59.5254 56.6467L61.0606 57.5217L56.4304 60.195L59.175 61.7592L63.3624 59.3416L64.8976 60.2166L60.7102 62.6342L65.0049 65.0818L63.1793 66.1358ZM73.4661 60.3667C72.7083 60.8042 71.8959 61.092 71.0288 61.2301C70.1618 61.3645 69.2894 61.3509 68.4117 61.1893C67.5307 61.0259 66.6936 60.7182 65.9005 60.2662C65.1205 59.8217 64.5836 59.3464 64.2898 58.8402C63.9959 58.3302 63.9518 57.8271 64.1574 57.3308C64.3598 56.8327 64.8218 56.3753 65.5435 55.9586C66.0093 55.6897 66.5245 55.479 67.0892 55.3267C67.6539 55.1705 68.2517 55.0897 68.8826 55.0842C69.5167 55.0767 70.1675 55.1579 70.8349 55.3275C71.4991 55.4953 72.1636 55.7686 72.8283 56.1475L73.3763 56.4598L67.1813 60.0365L65.9768 59.35L70.4644 56.7591C70.1188 56.5659 69.7406 56.435 69.3297 56.3665C68.9155 56.296 68.5015 56.2915 68.0877 56.353C67.6771 56.4125 67.3013 56.5408 66.9601 56.7378C66.596 56.948 66.365 57.1833 66.2672 57.4437C66.166 57.7022 66.1815 57.9575 66.3137 58.2097C66.4458 58.4581 66.6797 58.6799 67.0154 58.875L68.0668 59.4742C68.5078 59.7255 68.9666 59.8948 69.4433 59.9821C69.9167 60.0675 70.3816 60.0747 70.8381 60.0036C71.2914 59.9308 71.7115 59.7826 72.0986 59.5591C72.3577 59.4095 72.5561 59.2534 72.6936 59.0909C72.8279 58.9266 72.8997 58.7586 72.9091 58.5871C72.9185 58.4156 72.8556 58.2461 72.7204 58.0787L74.5711 57.2254C74.9071 57.5374 75.0921 57.8723 75.1259 58.2303C75.1598 58.5846 75.0392 58.9449 74.7642 59.3113C74.486 59.6759 74.0532 60.0276 73.4661 60.3667ZM79.8208 56.7034C79.3418 56.9799 78.8249 57.1802 78.27 57.3043C77.715 57.4246 77.1565 57.4525 76.5945 57.3881C76.0357 57.3218 75.5079 57.1471 75.011 56.8639C74.5832 56.62 74.3081 56.373 74.1858 56.1226C74.0636 55.8723 74.0547 55.6207 74.1591 55.3678C74.2635 55.115 74.4435 54.8657 74.6991 54.62C74.9547 54.3705 75.2465 54.1284 75.5744 53.8938C75.9712 53.6118 76.2892 53.381 76.5286 53.2013C76.7647 53.0197 76.9055 52.8704 76.9512 52.7534C76.9969 52.6326 76.9341 52.5235 76.763 52.426L76.7334 52.4091C76.3615 52.1972 75.9637 52.0965 75.5398 52.1071C75.116 52.1177 74.6974 52.2423 74.2841 52.481C73.8478 52.7329 73.5972 52.9871 73.5322 53.2436C73.4704 53.4982 73.5253 53.7251 73.6967 53.9245L71.7966 54.7496C71.4671 54.4113 71.2986 54.0669 71.291 53.7163C71.2802 53.3639 71.4156 53.0176 71.6972 52.6776C71.9755 52.3357 72.3787 52.0123 72.9069 51.7073C73.271 51.4971 73.6763 51.3122 74.1227 51.1526C74.5691 50.9931 75.0403 50.8834 75.5362 50.8236C76.0289 50.7619 76.5333 50.7746 77.0494 50.8617C77.5688 50.947 78.0802 51.1331 78.5837 51.4201L83.6584 54.3122L81.946 55.3009L80.9044 54.7072L80.8454 54.7413C80.9477 54.9239 80.9926 55.1245 80.9801 55.3431C80.9676 55.558 80.8696 55.7826 80.6863 56.0168C80.5029 56.2473 80.2144 56.4761 79.8208 56.7034ZM78.9702 55.688C79.3278 55.4816 79.567 55.2623 79.688 55.0301C79.8056 54.7961 79.8165 54.5708 79.7206 54.3543C79.628 54.1359 79.4418 53.947 79.1621 53.7876L78.2686 53.2784C78.2589 53.3369 78.2065 53.4162 78.1115 53.5163C78.0198 53.6146 77.9067 53.7195 77.7723 53.8311C77.6379 53.9427 77.5019 54.0514 77.3642 54.1573C77.2265 54.2633 77.1068 54.355 77.0052 54.4326C76.7757 54.6066 76.5971 54.7777 76.4694 54.9458C76.3417 55.1139 76.2912 55.2752 76.318 55.4297C76.3414 55.5823 76.4683 55.7242 76.6986 55.8555C77.0277 56.0431 77.3959 56.1155 77.8032 56.0729C78.2106 56.0303 78.5995 55.902 78.9702 55.688ZM80.9484 47.1778L82.3306 47.9656L77.9857 50.4741L76.6036 49.6863L80.9484 47.1778ZM75.8597 48.0317L77.6409 47.0033L84.7592 51.0602C84.9994 51.1971 85.2198 51.2813 85.4203 51.3128C85.6208 51.3405 85.8048 51.3324 85.9722 51.2886C86.1397 51.2448 86.2972 51.1803 86.4448 51.095C86.5564 51.0307 86.6498 50.9673 86.7252 50.9048C86.8039 50.8405 86.8613 50.7904 86.8973 50.7545L88.5945 51.3774C88.5322 51.4511 88.4323 51.5503 88.2947 51.6751C88.1603 51.798 87.9701 51.9342 87.7241 52.0838C87.2911 52.3489 86.8218 52.5424 86.3161 52.6645C85.8072 52.7846 85.2898 52.8153 84.7639 52.7565C84.2413 52.6957 83.7447 52.5294 83.2741 52.2574L75.8597 48.0317ZM90.956 46.4404L86.5626 43.9365L88.3439 42.9081L95.9261 47.2294L94.199 48.2266L92.8514 47.4585L92.7727 47.504C93.0266 47.8444 93.0933 48.2042 92.9728 48.5834C92.8556 48.9607 92.5132 49.3131 91.9457 49.6408C91.4504 49.9268 90.9022 50.1168 90.3012 50.2108C89.7001 50.3011 89.0807 50.2868 88.443 50.168C87.8019 50.0472 87.1786 49.8143 86.5731 49.4692L81.7453 46.7177L83.5266 45.6893L88.0779 48.2832C88.5584 48.5571 89.0714 48.6989 89.6168 48.7087C90.1623 48.7185 90.6482 48.6003 91.0747 48.354C91.3371 48.2025 91.5272 48.0192 91.6449 47.804C91.7625 47.5888 91.7734 47.3635 91.6775 47.1282C91.5815 46.8891 91.341 46.6598 90.956 46.4404ZM97.065 46.5719L89.4827 42.2505L91.2099 41.2534L92.4736 41.9736L92.5523 41.9281C92.2524 41.5991 92.1513 41.2705 92.2489 40.9423C92.3466 40.6103 92.6119 40.3193 93.0449 40.0693C93.1433 40.0125 93.2581 39.9519 93.3894 39.8874C93.5206 39.8192 93.6355 39.7661 93.7339 39.7281L95.3778 40.665C95.276 40.6935 95.1332 40.7495 94.9494 40.833C94.7657 40.9127 94.5983 40.9961 94.4474 41.0832C94.1227 41.2707 93.9015 41.4796 93.7838 41.7098C93.6662 41.9363 93.6569 42.1625 93.7561 42.3884C93.8553 42.6143 94.0662 42.8192 94.3887 43.003L98.8463 45.5435L97.065 46.5719ZM105.049 42.1323C104.291 42.5698 103.479 42.8576 102.612 42.9957C101.745 43.1301 100.872 43.1165 99.9945 42.955C99.1135 42.7916 98.2765 42.4839 97.4833 42.0318C96.7034 41.5873 96.1665 41.112 95.8727 40.6058C95.5788 40.0958 95.5347 39.5927 95.7403 39.0965C95.9426 38.5983 96.4046 38.1409 97.1263 37.7242C97.5921 37.4553 98.1074 37.2446 98.6721 37.0923C99.2368 36.9362 99.8346 36.8553 100.465 36.8498C101.1 36.8424 101.75 36.9235 102.418 37.0931C103.082 37.2609 103.746 37.5342 104.411 37.9131L104.959 38.2254L98.7641 41.8021L97.5596 41.1156L102.047 38.5247C101.702 38.3316 101.323 38.2007 100.913 38.1321C100.498 38.0616 100.084 38.0571 99.6705 38.1186C99.26 38.1782 98.8841 38.3064 98.543 38.5034C98.1789 38.7136 97.9479 38.9489 97.85 39.2093C97.7489 39.4678 97.7644 39.7231 97.8965 39.9753C98.0286 40.2238 98.2625 40.4455 98.5982 40.6406L99.6497 41.2398C100.091 41.4912 100.549 41.6605 101.026 41.7477C101.5 41.8331 101.964 41.8403 102.421 41.7693C102.874 41.6964 103.294 41.5482 103.681 41.3247C103.941 41.1751 104.139 41.019 104.277 40.8566C104.411 40.6922 104.483 40.5243 104.492 40.3527C104.501 40.1812 104.438 40.0117 104.303 39.8444L106.154 38.991C106.49 39.303 106.675 39.638 106.709 39.996C106.743 40.3502 106.622 40.7105 106.347 41.077C106.069 41.4415 105.636 41.7933 105.049 42.1323ZM109.471 33.0095L108.025 34.0483C107.815 33.981 107.58 33.9393 107.32 33.9231C107.064 33.9049 106.796 33.9255 106.517 33.9847C106.238 34.0439 105.96 34.153 105.685 34.3121C105.314 34.5261 105.083 34.752 104.992 34.9897C104.904 35.2256 104.99 35.4157 105.25 35.5601C105.467 35.6877 105.727 35.7435 106.029 35.7276C106.334 35.7097 106.723 35.6154 107.196 35.4444L108.762 34.8576C109.632 34.5329 110.408 34.3658 111.092 34.3564C111.778 34.345 112.395 34.4932 112.941 34.8007C113.415 35.0746 113.697 35.3952 113.786 35.7624C113.876 36.126 113.78 36.506 113.499 36.9026C113.217 37.2992 112.762 37.6793 112.132 38.0429C111.207 38.577 110.268 38.8963 109.315 39.0007C108.36 39.1033 107.479 38.987 106.673 38.6519L108.242 37.5534C108.663 37.703 109.089 37.7536 109.519 37.7053C109.949 37.657 110.369 37.5145 110.779 37.2777C111.202 37.0334 111.455 36.7877 111.536 36.5405C111.621 36.2915 111.535 36.0939 111.278 35.9476C111.061 35.8238 110.798 35.7698 110.489 35.7858C110.184 35.7998 109.819 35.8857 109.396 36.0433L107.835 36.6329C106.959 36.9652 106.167 37.1295 105.461 37.1258C104.751 37.1202 104.122 36.9589 103.572 36.6419C103.101 36.3775 102.823 36.0739 102.737 35.7311C102.65 35.3845 102.743 35.0252 103.014 34.6532C103.286 34.2773 103.724 33.9152 104.327 33.5667C105.213 33.0553 106.099 32.7607 106.986 32.6829C107.877 32.6031 108.705 32.712 109.471 33.0095Z" fill="white"/>
<defs>
<linearGradient id="paint0_linear_1224_128" x1="83.9447" y1="3.49219" x2="83.9447" y2="102.264" gradientUnits="userSpaceOnUse">
<stop stop-color="#5561FF"/>
<stop offset="1" stop-color="#3643FC"/>
<stop offset="1" stop-color="#3643FC"/>
</linearGradient>
<linearGradient id="paint1_linear_1224_128" x1="72.7824" y1="0" x2="72.7824" y2="47.8542" gradientUnits="userSpaceOnUse">
<stop stop-color="#5561FF"/>
<stop offset="1" stop-color="#3643FC"/>
</linearGradient>
<linearGradient id="paint2_linear_1224_128" x1="72.7824" y1="0" x2="72.7824" y2="47.8542" gradientUnits="userSpaceOnUse">
<stop stop-color="#6B75FF"/>
<stop offset="1" stop-color="#535FFF"/>
</linearGradient>
</defs>
</svg>
