<svg width="255" height="190" viewBox="0 0 255 190" fill="none" xmlns="http://www.w3.org/2000/svg">
<g filter="url(#filter0_f_45_3870)">
<rect width="144" height="48" rx="12" transform="matrix(0.866025 -0.5 0.868804 0.495155 44 119)" fill="url(#paint0_linear_45_3870)"/>
<rect x="0.867415" y="-0.00242229" width="143" height="47" rx="11.5" transform="matrix(0.866025 -0.5 0.868804 0.495155 44.1183 119.432)" stroke="url(#paint1_linear_45_3870)"/>
</g>
<path fill-rule="evenodd" clip-rule="evenodd" d="M163.722 32.04C168.904 30.9705 174.914 31.6161 179.07 33.9844L199.921 45.8681C199.921 45.8681 199.921 45.8681 199.921 45.8682C201.05 46.5115 201.958 47.2341 202.645 48.0053C203.714 49.2049 204.249 50.5219 204.249 51.8399L204.249 61.8398C204.249 62.5161 204.109 63.1927 203.827 63.8539C203.211 65.3013 201.92 66.6748 199.954 67.8099L199.954 67.8099L96.0316 127.81L96.0314 127.81C94.5965 128.638 92.9379 129.261 91.167 129.678C85.8543 130.93 79.5319 130.329 75.2135 127.868L75.2134 127.868L54.3621 115.984V115.984C51.4768 114.34 50.0336 112.177 50.0339 110.011L50.0339 110.011V100.06C50.0125 97.8874 51.4436 95.7081 54.3286 94.0425L158.252 34.0425C158.252 34.0425 158.252 34.0425 158.252 34.0424C159.849 33.1201 161.724 32.4525 163.722 32.04Z" fill="url(#paint2_linear_45_3870)"/>
<rect x="0.867415" y="-0.00242229" width="143" height="47" rx="11.5" transform="matrix(0.866025 -0.5 0.868804 0.495155 44.1183 100.432)" fill="url(#paint3_linear_45_3870)"/>
<rect x="0.867415" y="-0.00242229" width="143" height="47" rx="11.5" transform="matrix(0.866025 -0.5 0.868804 0.495155 44.1183 100.432)" stroke="url(#paint4_linear_45_3870)"/>
<path d="M96.1056 84.0685C95.2144 84.5711 94.6443 85.2351 94.6466 85.9385L94.801 92.9194C94.8076 93.2196 95.1197 93.4769 95.6169 93.5707L97.9759 94.0148L102.918 96.8622C103.9 97.4223 105.467 97.4148 106.441 96.8523L110.068 94.7585C110.931 94.2599 110.929 93.4488 110.063 92.9552L106.316 90.8196C105.895 90.5799 105.894 90.1908 106.313 89.9488L106.53 89.8238C106.949 89.5818 107.627 89.5799 108.048 89.8196L111.795 91.9552C112.661 92.4488 114.075 92.4449 114.939 91.9459L118.565 89.8524C119.54 89.2899 119.537 88.3883 118.56 87.8312L113.564 85.0149L112.775 83.6647C112.607 83.3776 112.136 83.1843 111.607 83.1853C111.156 83.1866 100.548 83.2162 99.4636 83.2192C98.2059 83.2227 96.995 83.566 96.1056 84.0685ZM97.8432 85.0588C98.2875 84.8123 98.8812 84.6519 99.4676 84.6503C100.475 84.6469 109.071 84.6229 110.744 84.6188L111.316 85.6273C111.378 85.7321 111.478 85.8139 111.615 85.8911L116.828 88.8312C116.84 88.8381 116.846 88.8516 116.828 88.8621L113.364 90.8621L109.78 88.8196C108.399 88.0328 106.168 88.039 104.792 88.8335L104.576 88.9585C103.2 89.753 103.203 91.0327 104.584 91.8195L108.168 93.862L104.704 95.862C104.686 95.8722 104.667 95.8721 104.65 95.8622L99.4908 92.891C99.3553 92.8128 99.2125 92.7557 99.0291 92.721L97.24 92.3844L97.0858 85.9317C97.0849 85.6242 97.3972 85.3054 97.8432 85.0588Z" fill="white"/>
<path d="M128.216 81.2808L118.106 75.519L119.932 74.465L124.211 76.9042L128.881 74.2082L124.601 71.769L126.432 70.7122L136.541 76.474L134.711 77.5308L130.416 75.0832L125.747 77.7792L130.041 80.2269L128.216 81.2808ZM141.2 73.9542C140.462 74.3803 139.659 74.6568 138.792 74.7836C137.925 74.9104 137.05 74.8931 136.165 74.7315C135.284 74.5681 134.452 74.2633 133.669 73.8169C132.886 73.3705 132.347 72.8942 132.053 72.388C131.763 71.8799 131.725 71.3768 131.941 70.8786C132.156 70.3804 132.633 69.9183 133.371 69.4921C134.109 69.066 134.912 68.7895 135.779 68.6627C136.646 68.5359 137.522 68.5551 138.406 68.7204C139.293 68.8838 140.129 69.1887 140.912 69.635C141.695 70.0814 142.231 70.5577 142.518 71.0639C142.808 71.5682 142.846 72.0695 142.63 72.5677C142.415 73.0659 141.938 73.528 141.2 73.9542ZM139.778 73.1326C140.179 72.9015 140.403 72.6455 140.452 72.3645C140.497 72.0817 140.397 71.7955 140.153 71.5059C139.913 71.2145 139.562 70.9374 139.101 70.6748C138.637 70.4104 138.15 70.2101 137.641 70.0739C137.131 69.934 136.63 69.8779 136.137 69.9056C135.644 69.9334 135.198 70.0628 134.798 70.2939C134.388 70.5306 134.158 70.7914 134.11 71.0761C134.065 71.3589 134.164 71.647 134.408 71.9404C134.652 72.23 135.006 72.507 135.47 72.7714C135.931 73.034 136.414 73.2343 136.921 73.3724C137.43 73.5086 137.931 73.5628 138.424 73.535C138.917 73.5035 139.368 73.3693 139.778 73.1326ZM145.493 71.306L137.91 66.9846L139.613 66.0017L140.901 66.736L140.99 66.6848C140.713 66.3463 140.635 66.0026 140.755 65.6536C140.873 65.3027 141.184 64.9814 141.689 64.6897C142.201 64.3943 142.757 64.2165 143.358 64.1564C143.959 64.0925 144.546 64.1408 145.118 64.3013L145.197 64.2558C144.943 63.9192 144.889 63.565 145.036 63.1933C145.183 62.8178 145.53 62.4719 146.078 62.1556C146.774 61.7541 147.562 61.5521 148.442 61.5497C149.323 61.5472 150.186 61.787 151.032 62.269L156.121 65.1696L154.335 66.2009L149.522 63.4578C149.051 63.1896 148.583 63.0656 148.116 63.0857C147.647 63.104 147.231 63.2173 146.87 63.4256C146.441 63.6737 146.239 63.9448 146.266 64.2387C146.294 64.5289 146.521 64.7959 146.949 65.0397L151.678 67.7349L149.931 68.7435L145.044 65.9582C144.652 65.735 144.222 65.625 143.752 65.6282C143.285 65.6295 142.863 65.7391 142.486 65.9569C142.23 66.1046 142.063 66.2766 141.985 66.4728C141.903 66.6672 141.919 66.8679 142.031 67.0749C142.14 67.28 142.351 67.4717 142.663 67.6499L147.274 70.2776L145.493 71.306ZM160.73 62.6789C159.972 63.1164 159.159 63.4042 158.292 63.5423C157.425 63.6767 156.553 63.6631 155.675 63.5016C154.794 63.3382 153.957 63.0304 153.164 62.5784C152.384 62.1339 151.847 61.6586 151.553 61.1524C151.259 60.6424 151.215 60.1393 151.421 59.643C151.623 59.1449 152.085 58.6875 152.807 58.2708C153.273 58.0019 153.788 57.7912 154.353 57.6389C154.917 57.4827 155.515 57.4019 156.146 57.3964C156.78 57.389 157.431 57.4701 158.098 57.6397C158.763 57.8075 159.427 58.0808 160.092 58.4597L160.64 58.772L154.445 62.3487L153.24 61.6622L157.728 59.0713C157.382 58.8781 157.004 58.7473 156.593 58.6787C156.179 58.6082 155.765 58.6037 155.351 58.6652C154.941 58.7247 154.565 58.853 154.224 59.05C153.859 59.2602 153.628 59.4955 153.531 59.7559C153.429 60.0144 153.445 60.2697 153.577 60.5219C153.709 60.7703 153.943 60.9921 154.279 61.1872L155.33 61.7864C155.771 62.0378 156.23 62.207 156.707 62.2943C157.18 62.3797 157.645 62.3869 158.102 62.3158C158.555 62.243 158.975 62.0948 159.362 61.8713C159.621 61.7217 159.82 61.5656 159.957 61.4031C160.091 61.2388 160.163 61.0708 160.173 60.8993C160.182 60.7278 160.119 60.5583 159.984 60.3909L161.835 59.5376C162.171 59.8496 162.356 60.1845 162.389 60.5425C162.423 60.8968 162.303 61.2571 162.028 61.6235C161.749 61.9881 161.317 62.3399 160.73 62.6789Z" fill="white"/>
<defs>
<filter id="filter0_f_45_3870" x="-6" y="-3" width="266.41" height="195.768" filterUnits="userSpaceOnUse" color-interpolation-filters="sRGB">
<feFlood flood-opacity="0" result="BackgroundImageFix"/>
<feBlend mode="normal" in="SourceGraphic" in2="BackgroundImageFix" result="shape"/>
<feGaussianBlur stdDeviation="25" result="effect1_foregroundBlur_45_3870"/>
</filter>
<linearGradient id="paint0_linear_45_3870" x1="72" y1="0" x2="72" y2="48" gradientUnits="userSpaceOnUse">
<stop stop-color="#5561FF"/>
<stop offset="1" stop-color="#3643FC"/>
</linearGradient>
<linearGradient id="paint1_linear_45_3870" x1="72" y1="0" x2="72" y2="48" gradientUnits="userSpaceOnUse">
<stop stop-color="#6B75FF"/>
<stop offset="1" stop-color="#535FFF"/>
</linearGradient>
<linearGradient id="paint2_linear_45_3870" x1="127.142" y1="31.54" x2="127.142" y2="130.312" gradientUnits="userSpaceOnUse">
<stop stop-color="#5561FF"/>
<stop offset="1" stop-color="#3643FC"/>
<stop offset="1" stop-color="#3643FC"/>
</linearGradient>
<linearGradient id="paint3_linear_45_3870" x1="72" y1="0" x2="72" y2="48" gradientUnits="userSpaceOnUse">
<stop stop-color="#5561FF"/>
<stop offset="1" stop-color="#3643FC"/>
</linearGradient>
<linearGradient id="paint4_linear_45_3870" x1="72" y1="0" x2="72" y2="48" gradientUnits="userSpaceOnUse">
<stop stop-color="#6B75FF"/>
<stop offset="1" stop-color="#535FFF"/>
</linearGradient>
</defs>
</svg>
