<svg width="168" height="103" viewBox="0 0 168 103" fill="none" xmlns="http://www.w3.org/2000/svg">
<path fill-rule="evenodd" clip-rule="evenodd" d="M120.526 3.99218C125.707 2.92263 131.718 3.56823 135.873 5.93652L156.724 17.8202C156.724 17.8203 156.724 17.8203 156.724 17.8203C157.853 18.4636 158.761 19.1863 159.448 19.9574C160.518 21.1571 161.052 22.474 161.053 23.7921L161.053 33.7919C161.053 34.4682 160.912 35.1448 160.631 35.806C160.014 37.2534 158.724 38.627 156.758 39.7621L156.758 39.7621L52.8348 99.762L52.8346 99.762C51.3998 100.59 49.7411 101.213 47.9702 101.631C42.6575 102.882 36.3351 102.281 32.0167 99.8202L32.0166 99.8201L11.1653 87.9365V87.9364C8.28001 86.292 6.83682 84.129 6.83715 81.9632L6.83715 81.9631V72.012C6.81575 69.8395 8.24682 67.6603 11.1318 65.9946L115.055 5.99462C115.055 5.99461 115.055 5.9946 115.055 5.99459C116.652 5.07229 118.527 4.40468 120.526 3.99218Z" fill="url(#paint0_linear_1224_129)"/>
<rect x="0.867415" y="-0.00242229" width="144.565" height="46.8542" rx="11.5" transform="matrix(0.866025 -0.5 0.868804 0.495155 0.118316 73.2147)" fill="url(#paint1_linear_1224_129)"/>
<rect x="0.867415" y="-0.00242229" width="144.565" height="46.8542" rx="11.5" transform="matrix(0.866025 -0.5 0.868804 0.495155 0.118316 73.2147)" stroke="url(#paint2_linear_1224_129)"/>
<path d="M68.3756 63.1358L58.2659 57.374L62.0449 55.1922C62.8191 54.7452 63.6134 54.4527 64.4279 54.3148C65.2456 54.1749 66.0424 54.1717 66.8182 54.3053C67.594 54.435 68.3027 54.6828 68.9444 55.0485C69.5928 55.418 70.0325 55.8248 70.2638 56.269C70.495 56.7132 70.4897 57.1712 70.2479 57.643C70.0028 58.113 69.4915 58.5725 68.714 59.0213L66.2095 60.4674L64.7039 59.6093L66.9624 58.3053C67.4151 58.0439 67.7068 57.7849 67.8375 57.5282C67.9682 57.2715 67.9643 57.0246 67.8256 56.7875C67.6902 56.5485 67.4432 56.3268 67.0845 56.1224C66.7257 55.9179 66.3393 55.7786 65.9251 55.7044C65.5142 55.6282 65.087 55.6313 64.6437 55.7136C64.2003 55.7921 63.7507 55.963 63.2947 56.2263L61.6217 57.1922L70.2011 62.0818L68.3756 63.1358ZM76.5214 58.4328L68.9391 54.1115L70.6662 53.1143L71.93 53.8345L72.0087 53.7891C71.7088 53.4601 71.6076 53.1315 71.7053 52.8032C71.8029 52.4713 72.0683 52.1803 72.5013 51.9303C72.5997 51.8734 72.7145 51.8128 72.8458 51.7484C72.977 51.6801 73.0919 51.627 73.1903 51.5891L74.8341 52.5259C74.7324 52.5545 74.5896 52.6105 74.4058 52.6939C74.2221 52.7736 74.0547 52.857 73.9038 52.9441C73.5791 53.1316 73.3579 53.3405 73.2402 53.5708C73.1226 53.7973 73.1133 54.0235 73.2125 54.2494C73.3117 54.4753 73.5226 54.6801 73.8451 54.8639L78.3027 57.4044L76.5214 58.4328ZM81.3224 55.661L73.7401 51.3396L75.5214 50.3112L83.1037 54.6325L81.3224 55.661ZM73.5596 50.2092C73.2774 50.3721 72.9409 50.4588 72.5499 50.4693C72.1557 50.478 71.8253 50.4063 71.5587 50.2544C71.2888 50.1006 71.1618 49.9115 71.1776 49.6872C71.1901 49.461 71.3374 49.2665 71.6196 49.1036C71.905 48.9388 72.2431 48.853 72.6341 48.8463C73.0251 48.8358 73.3555 48.9074 73.6254 49.0612C73.8919 49.2131 74.0189 49.4022 74.0064 49.6284C73.9939 49.8509 73.845 50.0445 73.5596 50.2092ZM87.6875 52.156C86.933 52.5916 86.1189 52.8709 85.2452 52.994C84.3749 53.1152 83.5008 53.0931 82.6231 52.9278C81.7453 52.7588 80.9231 52.4557 80.1563 52.0187C79.3862 51.5798 78.8542 51.1073 78.5604 50.6011C78.2633 50.093 78.2192 49.5899 78.428 49.0918C78.6369 48.5898 79.1104 48.1258 79.8485 47.6997C80.4619 47.3455 81.1184 47.0968 81.8178 46.9534C82.5173 46.8064 83.2137 46.7686 83.9072 46.8402C84.5974 46.9099 85.2353 47.089 85.821 47.3776L84.1185 48.3606C83.6843 48.1922 83.2158 48.1134 82.7132 48.1242C82.2105 48.1313 81.7443 48.2589 81.3145 48.507C80.9504 48.7172 80.7293 48.9581 80.6512 49.2297C80.5698 49.4995 80.6347 49.783 80.8458 50.0802C81.0602 50.3755 81.4224 50.6685 81.9325 50.9592C82.4492 51.2537 82.9689 51.4633 83.4917 51.5882C84.0112 51.7111 84.5074 51.7512 84.9804 51.7084C85.4535 51.6618 85.8753 51.5316 86.246 51.3175C86.5084 51.166 86.6936 51.0025 86.8015 50.8269C86.9095 50.6475 86.9385 50.4627 86.8887 50.2725C86.8389 50.0823 86.7037 49.8942 86.483 49.7082L88.1855 48.7253C88.6793 49.0556 88.9974 49.4175 89.1398 49.8111C89.2789 50.2027 89.2307 50.6005 88.9952 51.0045C88.7565 51.4066 88.3206 51.7905 87.6875 52.156ZM91.5469 49.7578L83.9647 45.4365L85.7459 44.4081L93.3282 48.7294L91.5469 49.7578ZM83.7841 44.3061C83.502 44.469 83.1654 44.5557 82.7744 44.5662C82.3802 44.5748 82.0498 44.5032 81.7832 44.3513C81.5134 44.1975 81.3863 44.0084 81.4021 43.7841C81.4146 43.5579 81.562 43.3633 81.8441 43.2004C82.1295 43.0357 82.4677 42.9499 82.8586 42.9432C83.2496 42.9327 83.58 43.0043 83.8499 43.1581C84.1164 43.31 84.2435 43.4991 84.2309 43.7253C84.2184 43.9477 84.0695 44.1413 83.7841 44.3061ZM91.8056 44.5114L96.2483 47.0435L94.4671 48.0719L86.8848 43.7505L88.5873 42.7676L89.8757 43.5019L89.9643 43.4507C89.7136 43.1084 89.6535 42.7561 89.7839 42.3939C89.9176 42.0297 90.2666 41.6848 90.8308 41.359C91.3524 41.0579 91.9186 40.8594 92.5295 40.7634C93.1436 40.6656 93.7696 40.6761 94.4073 40.7949C95.0484 40.9119 95.67 41.1439 96.2723 41.4909L101.1 44.2423L99.3188 45.2708L94.7674 42.6768C94.2606 42.388 93.7329 42.2377 93.1841 42.2261C92.6387 42.2125 92.1363 42.3383 91.677 42.6035C91.3654 42.7834 91.1573 42.9828 91.0528 43.2017C90.9483 43.4169 90.9554 43.6374 91.0744 43.8632C91.1965 44.0872 91.4403 44.3032 91.8056 44.5114ZM108.506 43.4097C107.867 43.779 107.23 44.0465 106.596 44.2123C105.966 44.3799 105.366 44.4617 104.798 44.4576C104.23 44.4536 103.715 44.3824 103.255 44.2442L104.469 43.0958C104.689 43.1386 104.941 43.1614 105.223 43.1644C105.509 43.1693 105.816 43.1317 106.145 43.0516C106.479 42.9715 106.826 42.8282 107.183 42.6218C107.688 42.3301 107.983 42.0183 108.068 41.6863C108.156 41.3563 107.92 41.0318 107.36 40.713L105.924 39.8943L105.835 39.9454C105.928 40.1035 105.982 40.289 105.999 40.5019C106.02 40.7129 105.951 40.9393 105.794 41.181C105.641 41.4208 105.347 41.6657 104.914 41.9157C104.334 42.2509 103.67 42.477 102.925 42.5941C102.179 42.7074 101.394 42.6888 100.569 42.5385C99.7438 42.3843 98.9182 42.0719 98.0922 41.6011C97.2596 41.1266 96.6947 40.6466 96.3977 40.1612C96.1006 39.672 96.0402 39.2066 96.2163 38.7651C96.3893 38.3216 96.766 37.9323 97.3466 37.5971C97.7895 37.3414 98.2293 37.1743 98.6661 37.0958C99.1029 37.0136 99.5118 36.9832 99.893 37.0048C100.271 37.0244 100.596 37.0612 100.869 37.1151L100.968 37.0583L99.7138 36.3437L101.47 35.3295L109.176 39.7212C109.824 40.0907 110.207 40.4854 110.323 40.9054C110.439 41.3254 110.335 41.7498 110.011 42.1785C109.687 42.6073 109.185 43.0177 108.506 43.4097ZM104.009 40.8297C104.386 40.6119 104.616 40.3738 104.697 40.1154C104.779 39.8569 104.715 39.5895 104.508 39.313C104.3 39.0365 103.954 38.7604 103.47 38.4847C102.993 38.2127 102.506 38.0143 102.01 37.8894C101.517 37.7626 101.038 37.7197 100.575 37.7605C100.112 37.7977 99.6886 37.927 99.3048 38.1486C98.9079 38.3778 98.6802 38.6281 98.6218 38.8997C98.5635 39.1713 98.648 39.449 98.8755 39.733C99.0997 40.0151 99.4406 40.2865 99.898 40.5472C100.362 40.8117 100.836 41.0045 101.319 41.1256C101.802 41.243 102.274 41.2803 102.734 41.2376C103.194 41.1911 103.619 41.0551 104.009 40.8297Z" fill="white"/>
<defs>
<linearGradient id="paint0_linear_1224_129" x1="83.9447" y1="3.49219" x2="83.9447" y2="102.264" gradientUnits="userSpaceOnUse">
<stop stop-color="#5561FF"/>
<stop offset="1" stop-color="#3643FC"/>
<stop offset="1" stop-color="#3643FC"/>
</linearGradient>
<linearGradient id="paint1_linear_1224_129" x1="72.7824" y1="0" x2="72.7824" y2="47.8542" gradientUnits="userSpaceOnUse">
<stop stop-color="#5561FF"/>
<stop offset="1" stop-color="#3643FC"/>
</linearGradient>
<linearGradient id="paint2_linear_1224_129" x1="72.7824" y1="0" x2="72.7824" y2="47.8542" gradientUnits="userSpaceOnUse">
<stop stop-color="#6B75FF"/>
<stop offset="1" stop-color="#535FFF"/>
</linearGradient>
</defs>
</svg>
