<svg width="186" height="121" viewBox="0 0 186 121" fill="none" xmlns="http://www.w3.org/2000/svg">
<g filter="url(#filter0_d_46_5081)">
<rect width="143" height="48" rx="12" transform="matrix(0.866025 -0.5 0.868804 0.495155 10 72.5)" fill="#373951" shape-rendering="crispEdges"/>
<rect x="1.73483" y="-0.00484458" width="141" height="46" rx="11" transform="matrix(0.866025 -0.5 0.868804 0.495155 10.2366 73.365)" stroke="#3E405B" stroke-width="2" shape-rendering="crispEdges"/>
<path d="M50.7963 78.849L40.6866 73.0872L44.6624 70.7917C45.4268 70.3505 46.2244 70.058 47.0553 69.9143C47.8829 69.7687 48.696 69.7618 49.4948 69.8933C50.2936 70.0212 51.0287 70.2764 51.7 70.659C52.3714 71.0416 52.8194 71.4626 53.0441 71.9218C53.2688 72.3811 53.2504 72.8504 52.9889 73.3299C52.7307 73.8075 52.2145 74.2697 51.4403 74.7167L48.9062 76.1798L47.1932 75.2035L49.3829 73.9393C49.793 73.7026 50.0601 73.4672 50.1843 73.2331C50.3085 72.9953 50.3095 72.7663 50.1873 72.5461C50.0651 72.3222 49.8378 72.1155 49.5054 71.9261C49.1698 71.7347 48.8096 71.6066 48.425 71.5417C48.0404 71.4731 47.6445 71.477 47.2373 71.5535C46.8268 71.6282 46.4149 71.7848 46.0015 72.0235L44.5647 72.853L52.9269 77.6189L50.7963 78.849ZM59.7284 73.6921L52.1462 69.3707L54.1784 68.1974L55.5013 68.9514L55.58 68.9059C55.2472 68.5582 55.1231 68.2221 55.2076 67.8977C55.2888 67.5714 55.541 67.2861 55.9642 67.0418C56.0692 66.9811 56.1889 66.9196 56.3235 66.857C56.458 66.7944 56.5827 66.7432 56.6976 66.7033L58.5636 67.7667C58.4355 67.8067 58.2731 67.8703 58.0762 67.9575C57.8793 68.0448 57.7086 68.1301 57.5643 68.2134C57.2559 68.3914 57.0479 68.589 56.94 68.806C56.8322 69.0193 56.8262 69.2342 56.9221 69.4507C57.0213 69.6652 57.2256 69.8607 57.5349 70.037L61.8246 72.4818L59.7284 73.6921ZM65.3982 70.4186L57.8159 66.0973L59.9121 64.887L67.4944 69.2084L65.3982 70.4186ZM57.8915 64.9323C57.5799 65.1122 57.2089 65.2075 56.7785 65.2181C56.3481 65.2249 55.9864 65.1449 55.6935 64.978C55.4039 64.8129 55.2653 64.6079 55.2778 64.3628C55.2903 64.114 55.4523 63.8996 55.7639 63.7197C56.0756 63.5398 56.4466 63.4464 56.877 63.4395C57.3074 63.4289 57.6674 63.5061 57.957 63.6712C58.2499 63.8381 58.3901 64.046 58.3777 64.2948C58.3652 64.5398 58.2032 64.7523 57.8915 64.9323ZM68.6375 59.8494L73.5775 65.6963L71.2156 67.0599L60.9909 64.2642L63.2052 62.9858L70.2 65.1714L70.2787 65.126L66.4183 61.1306L68.6375 59.8494ZM79.9574 62.1544C79.3834 62.4859 78.7153 62.7017 77.9533 62.8018C77.1913 62.8982 76.3846 62.8599 75.5331 62.687C74.6816 62.5103 73.833 62.181 72.9872 61.6989C72.1184 61.2038 71.5355 60.7116 71.2384 60.2224C70.938 59.7313 70.8759 59.2706 71.0522 58.8404C71.2284 58.4064 71.5937 58.0294 72.1481 57.7093C72.5712 57.465 72.9963 57.3027 73.4232 57.2223C73.8501 57.1382 74.2574 57.1069 74.6452 57.1284C75.033 57.1462 75.3748 57.1867 75.6707 57.25L75.7347 57.213L74.4611 56.4872L76.5523 55.2798L84.1346 59.6011L82.068 60.7943L80.8536 60.1022L80.765 60.1534C80.8772 60.3302 80.9468 60.5298 80.9737 60.7521C81.0006 60.9707 80.9388 61.2008 80.7884 61.4425C80.6412 61.6823 80.3642 61.9196 79.9574 62.1544ZM78.9483 60.8172C79.2861 60.6221 79.4794 60.4048 79.528 60.1653C79.5766 59.922 79.4954 59.6688 79.2844 59.4055C79.0767 59.1403 78.7474 58.8792 78.2965 58.6223C77.8456 58.3653 77.3917 58.1781 76.9347 58.0607C76.4776 57.9432 76.0405 57.9011 75.6233 57.9343C75.2061 57.9675 74.8286 58.0816 74.4907 58.2767C74.1463 58.4755 73.9497 58.6966 73.9011 58.9399C73.8525 59.1832 73.9337 59.4346 74.1447 59.6941C74.3557 59.9536 74.6801 60.2081 75.1178 60.4575C75.5588 60.7088 76.0094 60.8961 76.4698 61.0192C76.9301 61.1385 77.3722 61.1853 77.7959 61.1596C78.2197 61.1302 78.6038 61.016 78.9483 60.8172ZM89.421 56.7189C88.6469 57.1659 87.8164 57.4566 86.9296 57.591C86.0429 57.7216 85.1557 57.7053 84.2681 57.5419C83.3838 57.3766 82.5582 57.0755 81.7914 56.6385C81.0148 56.1958 80.4828 55.7214 80.1956 55.2152C79.9083 54.7052 79.8773 54.1964 80.1026 53.6888C80.3246 53.1793 80.8178 52.7039 81.5821 52.2626C82.2414 51.8819 82.9389 51.617 83.6745 51.468C84.4101 51.3189 85.1394 51.2848 85.8625 51.3657C86.5856 51.4466 87.2547 51.6455 87.8701 51.9623L85.892 53.1043C85.4578 52.9209 85.0057 52.8326 84.5359 52.8396C84.066 52.8428 83.6392 52.9551 83.2554 53.1767C82.9307 53.3642 82.7358 53.5787 82.6707 53.8201C82.6057 54.0578 82.6737 54.3111 82.8749 54.5801C83.0761 54.849 83.4153 55.1195 83.8925 55.3915C84.3762 55.6672 84.8532 55.8637 85.3234 55.9812C85.7968 56.0967 86.2438 56.135 86.6643 56.0962C87.0847 56.0573 87.4573 55.9441 87.7821 55.7566C88.0216 55.6184 88.1871 55.4662 88.2786 55.3C88.3734 55.132 88.3893 54.9586 88.3264 54.7797C88.2635 54.5971 88.1184 54.4184 87.8912 54.2438L89.8693 53.1017C90.4157 53.4508 90.7683 53.8324 90.9272 54.2466C91.0861 54.657 91.0429 55.0746 90.7976 55.4994C90.5524 55.9242 90.0935 56.3307 89.421 56.7189ZM98.1281 54.7841C97.8623 54.9376 97.5916 55.0693 97.3159 55.1794C97.0468 55.2895 96.8056 55.3702 96.5921 55.4217L95.4947 54.2543C95.8165 54.1554 96.079 54.051 96.2824 53.9412C96.4891 53.8294 96.6153 53.7037 96.6609 53.5641C96.7098 53.4226 96.6617 53.2578 96.5166 53.0697L96.3187 52.8158L85.808 49.936L88.0124 48.6633L95.1454 50.9334L95.2241 50.8879L91.2354 46.8025L93.4546 45.5213L98.9187 52.0057C99.1857 52.3197 99.3492 52.633 99.4093 52.9457C99.4759 53.2584 99.4077 53.5677 99.2049 53.8736C99.0053 54.1814 98.6464 54.4849 98.1281 54.7841ZM105.356 47.349L95.2462 41.5872L99.222 39.2917C99.9864 38.8505 100.784 38.558 101.615 38.4143C102.442 38.2687 103.256 38.2618 104.054 38.3933C104.853 38.5212 105.588 38.7764 106.26 39.159C106.931 39.5416 107.379 39.9626 107.604 40.4218C107.828 40.8811 107.81 41.3504 107.548 41.8299C107.29 42.3075 106.774 42.7697 106 43.2167L103.466 44.6798L101.753 43.7035L103.943 42.4393C104.353 42.2026 104.62 41.9672 104.744 41.7331C104.868 41.4953 104.869 41.2663 104.747 41.0461C104.625 40.8222 104.397 40.6155 104.065 40.4261C103.729 40.2347 103.369 40.1066 102.985 40.0417C102.6 39.9731 102.204 39.977 101.797 40.0535C101.386 40.1282 100.974 40.2848 100.561 40.5235L99.1243 41.353L107.487 46.1189L105.356 47.349ZM117.729 40.3752C116.965 40.8165 116.141 41.1052 115.258 41.2415C114.374 41.3741 113.489 41.3605 112.601 41.2009C111.71 41.0394 110.876 40.7373 110.1 40.2947C109.316 39.8483 108.783 39.3711 108.499 38.863C108.212 38.353 108.182 37.8451 108.411 37.3394C108.639 36.8298 109.136 36.3544 109.9 35.9131C110.664 35.4719 111.488 35.185 112.372 35.0524C113.255 34.9162 114.142 34.9288 115.033 35.0902C115.921 35.2499 116.756 35.5529 117.54 35.9992C118.316 36.4419 118.848 36.9182 119.136 37.4282C119.419 37.9363 119.447 38.4451 119.219 38.9546C118.99 39.4604 118.494 39.9339 117.729 40.3752ZM116.11 39.4411C116.458 39.2403 116.649 39.0164 116.685 38.7694C116.717 38.5206 116.619 38.2636 116.392 37.9984C116.168 37.7314 115.835 37.4722 115.394 37.2209C114.953 36.9696 114.499 36.7805 114.032 36.6536C113.569 36.5249 113.12 36.4705 112.686 36.4906C112.253 36.5106 111.862 36.6211 111.514 36.8218C111.163 37.0245 110.968 37.2521 110.93 37.5048C110.894 37.7556 110.989 38.0145 111.213 38.2815C111.44 38.5466 111.774 38.8048 112.215 39.0561C112.656 39.3075 113.109 39.4975 113.572 39.6263C114.039 39.7531 114.491 39.8056 114.928 39.7836C115.365 39.7579 115.759 39.6437 116.11 39.4411ZM114.651 30.3841L124.76 36.1459L122.664 37.3561L112.554 31.5943L114.651 30.3841ZM126.439 35.1764L118.857 30.8551L120.953 29.6448L128.536 33.9662L126.439 35.1764ZM118.933 29.6901C118.621 29.87 118.25 29.9653 117.82 29.9759C117.389 29.9827 117.028 29.9027 116.735 29.7358C116.445 29.5707 116.307 29.3657 116.319 29.1206C116.332 28.8718 116.494 28.6574 116.805 28.4775C117.117 28.2976 117.488 28.2042 117.918 28.1973C118.349 28.1867 118.709 28.2639 118.998 28.429C119.291 28.5959 119.431 28.8038 119.419 29.0526C119.406 29.2976 119.244 29.5101 118.933 29.6901ZM133.778 31.1095C133.004 31.5565 132.173 31.8472 131.286 31.9816C130.4 32.1123 129.512 32.0959 128.625 31.9325C127.741 31.7672 126.915 31.4661 126.148 31.0291C125.372 30.5864 124.84 30.112 124.552 29.6058C124.265 29.0958 124.234 28.587 124.459 28.0794C124.681 27.5699 125.174 27.0945 125.939 26.6532C126.598 26.2725 127.296 26.0076 128.031 25.8586C128.767 25.7095 129.496 25.6754 130.219 25.7563C130.942 25.8373 131.611 26.0361 132.227 26.3529L130.249 27.495C129.814 27.3115 129.362 27.2232 128.893 27.2302C128.423 27.2334 127.996 27.3458 127.612 27.5674C127.287 27.7549 127.092 27.9693 127.027 28.2108C126.962 28.4484 127.03 28.7017 127.232 28.9707C127.433 29.2397 127.772 29.5101 128.249 29.7821C128.733 30.0578 129.21 30.2544 129.68 30.3718C130.154 30.4873 130.601 30.5257 131.021 30.4868C131.441 30.4479 131.814 30.3347 132.139 30.1472C132.378 30.009 132.544 29.8568 132.635 29.6907C132.73 29.5227 132.746 29.3492 132.683 29.1703C132.62 28.9877 132.475 28.809 132.248 28.6344L134.226 27.4923C134.772 27.8414 135.125 28.223 135.284 28.6372C135.443 29.0477 135.4 29.4653 135.154 29.89C134.909 30.3148 134.45 30.7213 133.778 31.1095ZM142.485 29.1748C142.219 29.3282 141.948 29.4599 141.673 29.57C141.404 29.6801 141.162 29.7609 140.949 29.8123L139.851 28.645C140.173 28.5461 140.436 28.4417 140.639 28.3318C140.846 28.22 140.972 28.0943 141.018 27.9547C141.066 27.8132 141.018 27.6484 140.873 27.4604L140.675 27.2065L130.165 24.3267L132.369 23.0539L139.502 25.324L139.581 25.2786L135.592 21.1931L137.811 19.9119L143.275 26.3963C143.542 26.7103 143.706 27.0237 143.766 27.3364C143.833 27.6491 143.764 27.9583 143.562 28.2642C143.362 28.572 143.003 28.8755 142.485 29.1748Z" fill="white"/>
</g>
<defs>
<filter id="filter0_d_46_5081" x="-6" y="-3" width="197.544" height="127.268" filterUnits="userSpaceOnUse" color-interpolation-filters="sRGB">
<feFlood flood-opacity="0" result="BackgroundImageFix"/>
<feColorMatrix in="SourceAlpha" type="matrix" values="0 0 0 0 0 0 0 0 0 0 0 0 0 0 0 0 0 0 127 0" result="hardAlpha"/>
<feOffset dy="12"/>
<feGaussianBlur stdDeviation="8"/>
<feComposite in2="hardAlpha" operator="out"/>
<feColorMatrix type="matrix" values="0 0 0 0 0 0 0 0 0 0 0 0 0 0 0 0 0 0 0.3 0"/>
<feBlend mode="normal" in2="BackgroundImageFix" result="effect1_dropShadow_46_5081"/>
<feBlend mode="normal" in="SourceGraphic" in2="effect1_dropShadow_46_5081" result="shape"/>
</filter>
</defs>
</svg>
