<svg width="169" height="111" viewBox="0 0 169 111" fill="none" xmlns="http://www.w3.org/2000/svg">
<g filter="url(#filter0_d_46_5084)">
<rect width="123" height="48" rx="12" transform="matrix(0.866025 -0.5 0.868804 0.495155 10 62.5)" fill="#373951" shape-rendering="crispEdges"/>
<rect x="1.73483" y="-0.00484458" width="121" height="46" rx="11" transform="matrix(0.866025 -0.5 0.868804 0.495155 10.2366 63.365)" stroke="#3E405B" stroke-width="2" shape-rendering="crispEdges"/>
<path d="M51.0852 64.6499L52.896 63.6044L54.9812 63.7484L56.9233 63.8278L60.7337 64.0631L58.7457 65.2109L56.1529 65.0654L54.7085 64.9253L51.0852 64.6499ZM55.002 60.6215C56.1045 61.2498 56.8341 61.9046 57.1909 62.5859C57.5509 63.2653 57.5774 63.9278 57.2703 64.5732C56.9633 65.2149 56.3652 65.7924 55.4763 66.3056C54.5807 66.8227 53.573 67.1704 52.4531 67.3488C51.3331 67.5272 50.1798 67.5154 48.9931 67.3132C47.8064 67.1111 46.6635 66.6968 45.5643 66.0704C44.4619 65.4421 43.7306 64.7882 43.3706 64.1088C43.0105 63.4294 42.9841 62.7689 43.2911 62.1272C43.5949 61.4836 44.1945 60.9033 45.0901 60.3863C45.9791 59.873 46.9835 59.5272 48.1035 59.3488C49.2234 59.1666 50.3767 59.1766 51.5634 59.3787C52.7534 59.5789 53.8996 59.9932 55.002 60.6215ZM52.8419 61.8687C52.1278 61.4617 51.4189 61.18 50.7153 61.0236C50.015 60.8654 49.3463 60.8248 48.7091 60.902C48.0719 60.9792 47.4958 61.1664 46.9807 61.4638C46.4657 61.7611 46.143 62.0928 46.0126 62.4588C45.8822 62.8248 45.9555 63.2091 46.2327 63.6117C46.5131 64.0124 47.0103 64.4162 47.7245 64.8232C48.4386 65.2302 49.1458 65.5128 49.8461 65.6711C50.5497 65.8275 51.2201 65.867 51.8573 65.7899C52.4945 65.7127 53.0706 65.5254 53.5856 65.2281C54.1006 64.9308 54.4234 64.5991 54.5538 64.2331C54.6842 63.867 54.6092 63.4837 54.3288 63.083C54.0516 62.6805 53.556 62.2757 52.8419 61.8687ZM63.2142 57.9757L58.8603 55.4943L60.9565 54.284L68.5388 58.6054L66.5263 59.7673L65.149 58.9824L65.0703 59.0279C65.344 59.3795 65.4173 59.7469 65.2902 60.1298C65.1664 60.5109 64.8208 60.8653 64.2533 61.1929C63.7481 61.4846 63.1884 61.6756 62.5742 61.7659C61.9601 61.8562 61.3324 61.8428 60.6914 61.7259C60.0537 61.607 59.437 61.3798 58.8413 61.0441L54.0135 58.2926L56.1097 57.0823L60.5623 59.62C61.0132 59.8732 61.4867 60.0057 61.9828 60.0175C62.479 60.0293 62.9256 59.9206 63.3225 59.6915C63.5751 59.5456 63.7537 59.3764 63.8583 59.1839C63.9596 58.9895 63.9623 58.7878 63.8665 58.5789C63.7739 58.368 63.5564 58.167 63.2142 57.9757ZM70.2155 57.6374L62.6332 53.316L64.7294 52.1058L72.3116 56.4271L70.2155 57.6374ZM62.7088 52.151C62.3971 52.3309 62.0261 52.4262 61.5957 52.4368C61.1653 52.4437 60.8037 52.3636 60.5108 52.1967C60.2212 52.0317 60.0826 51.8266 60.0951 51.5816C60.1075 51.3327 60.2696 51.1184 60.5812 50.9384C60.8928 50.7585 61.2639 50.6651 61.6943 50.6583C62.1247 50.6476 62.4847 50.7248 62.7743 50.8899C63.0672 51.0568 63.2074 51.2647 63.1949 51.5135C63.1825 51.7586 63.0204 51.9711 62.7088 52.151ZM77.5538 53.5705C76.7796 54.0175 75.9491 54.3081 75.0624 54.4426C74.1756 54.5732 73.2884 54.5568 72.4008 54.3934C71.5165 54.2282 70.691 53.927 69.9242 53.49C69.1475 53.0474 68.6156 52.573 68.3283 52.0668C68.041 51.5568 68.01 51.048 68.2353 50.5403C68.4573 50.0308 68.9505 49.5554 69.7148 49.1141C70.3742 48.7335 71.0717 48.4686 71.8072 48.3195C72.5428 48.1705 73.2721 48.1364 73.9952 48.2173C74.7183 48.2982 75.3875 48.4971 76.0028 48.8139L74.0247 49.9559C73.5905 49.7724 73.1385 49.6842 72.6686 49.6911C72.1988 49.6943 71.772 49.8067 71.3882 50.0283C71.0634 50.2158 70.8685 50.4303 70.8035 50.6717C70.7384 50.9094 70.8065 51.1627 71.0077 51.4316C71.2088 51.7006 71.548 51.9711 72.0252 52.243C72.509 52.5187 72.9859 52.7153 73.4561 52.8327C73.9296 52.9483 74.3765 52.9866 74.797 52.9477C75.2175 52.9089 75.5901 52.7957 75.9148 52.6082C76.1543 52.4699 76.3198 52.3177 76.4113 52.1516C76.5062 51.9836 76.5221 51.8102 76.4592 51.6313C76.3962 51.4486 76.2512 51.27 76.024 51.0953L78.002 49.9533C78.5484 50.3023 78.9011 50.684 79.0599 51.0982C79.2188 51.5086 79.1756 51.9262 78.9304 52.351C78.6851 52.7757 78.2263 53.1822 77.5538 53.5705ZM81.8408 48.4223L79.3232 46.9818L79.6283 46.8056L79.1713 43.7677L81.5775 42.3785L82.1359 46.4283L81.6389 46.7152L81.8408 48.4223ZM82.1233 50.7624L72.0136 45.0006L74.1098 43.7903L84.2195 49.5521L82.1233 50.7624ZM86.8471 48.0351L81.3205 47.437L81.2321 45.7834L89.3025 46.6175L86.8471 48.0351ZM93.4345 44.2318L83.3248 38.47L85.4554 37.2399L93.8029 41.9973L98.1232 39.503L99.8855 40.5074L93.4345 44.2318ZM101.257 39.7155L93.6748 35.3941L95.771 34.1839L103.353 38.5053L101.257 39.7155ZM93.7504 34.2291C93.4387 34.4091 93.0677 34.5043 92.6373 34.515C92.2069 34.5218 91.8453 34.4418 91.5524 34.2748C91.2628 34.1098 91.1242 33.9047 91.1367 33.6597C91.1491 33.4109 91.3112 33.1965 91.6228 33.0166C91.9344 32.8366 92.3055 32.7432 92.7359 32.7364C93.1663 32.7258 93.5263 32.803 93.8159 32.968C94.1087 33.135 94.249 33.3428 94.2365 33.5917C94.2241 33.8367 94.062 34.0492 93.7504 34.2291ZM102.745 33.8273L107.129 36.3256L105.032 37.5358L97.4501 33.2144L99.4479 32.061L100.786 32.8235L100.874 32.7723C100.601 32.4244 100.532 32.0637 100.669 31.6901C100.803 31.3146 101.15 30.965 101.711 30.6411C102.236 30.3381 102.809 30.1395 103.429 30.0455C104.05 29.9514 104.683 29.9637 105.327 30.0826C105.968 30.1995 106.583 30.4259 107.172 30.7616L112 33.5131L109.904 34.7233L105.451 32.1856C104.99 31.9193 104.51 31.7811 104.011 31.7712C103.508 31.7594 103.047 31.8748 102.627 32.1172C102.345 32.2801 102.156 32.4587 102.062 32.6531C101.97 32.8456 101.981 33.0435 102.093 33.2467C102.205 33.4462 102.423 33.6397 102.745 33.8273ZM113.37 30.2191L110.852 28.7787L111.157 28.6025L110.7 25.5646L113.106 24.1754L113.665 28.2252L113.168 28.5121L113.37 30.2191ZM113.652 32.5592L103.542 26.7974L105.639 25.5872L115.748 31.349L113.652 32.5592ZM118.376 29.832L112.849 29.2339L112.761 27.5803L120.831 28.4144L118.376 29.832ZM122.585 21.1832L120.785 22.3587C120.587 22.2838 120.369 22.2402 120.129 22.2276C119.886 22.2132 119.636 22.2347 119.38 22.2919C119.124 22.3454 118.874 22.4422 118.632 22.5824C118.307 22.7699 118.102 22.9674 118.017 23.175C117.929 23.3807 117.999 23.5482 118.226 23.6776C118.407 23.7808 118.632 23.8263 118.901 23.8143C119.171 23.8022 119.519 23.7164 119.945 23.5569L121.59 22.9247C122.476 22.5867 123.267 22.4092 123.964 22.3922C124.66 22.3752 125.282 22.5224 125.828 22.8337C126.325 23.1169 126.615 23.4497 126.698 23.8321C126.785 24.2126 126.681 24.6087 126.386 25.0204C126.091 25.4283 125.616 25.8217 124.96 26.2005C123.96 26.7781 122.953 27.1192 121.942 27.2238C120.93 27.3247 120.011 27.1981 119.186 26.8442L121.139 25.592C121.507 25.7304 121.892 25.7765 122.292 25.7301C122.69 25.6819 123.076 25.5498 123.45 25.3339C123.817 25.1218 124.041 24.911 124.123 24.7016C124.205 24.4884 124.133 24.3161 123.91 24.1848C123.715 24.0779 123.479 24.0352 123.2 24.0567C122.917 24.0764 122.579 24.1621 122.185 24.314L120.614 24.9206C119.728 25.2623 118.922 25.4333 118.196 25.4334C117.473 25.4316 116.829 25.2695 116.263 24.9469C115.776 24.6693 115.487 24.3544 115.398 24.0022C115.311 23.6481 115.412 23.2784 115.7 22.8931C115.991 22.5059 116.46 22.1257 117.106 21.7526C118.061 21.2015 119.015 20.8831 119.967 20.7975C120.923 20.7101 121.796 20.8386 122.585 21.1832Z" fill="white"/>
</g>
<defs>
<filter id="filter0_d_46_5084" x="-6" y="-3" width="180.224" height="117.268" filterUnits="userSpaceOnUse" color-interpolation-filters="sRGB">
<feFlood flood-opacity="0" result="BackgroundImageFix"/>
<feColorMatrix in="SourceAlpha" type="matrix" values="0 0 0 0 0 0 0 0 0 0 0 0 0 0 0 0 0 0 127 0" result="hardAlpha"/>
<feOffset dy="12"/>
<feGaussianBlur stdDeviation="8"/>
<feComposite in2="hardAlpha" operator="out"/>
<feColorMatrix type="matrix" values="0 0 0 0 0 0 0 0 0 0 0 0 0 0 0 0 0 0 0.3 0"/>
<feBlend mode="normal" in2="BackgroundImageFix" result="effect1_dropShadow_46_5084"/>
<feBlend mode="normal" in="SourceGraphic" in2="effect1_dropShadow_46_5084" result="shape"/>
</filter>
</defs>
</svg>
