<svg width="178" height="117" viewBox="0 0 178 117" fill="none" xmlns="http://www.w3.org/2000/svg">
<g filter="url(#filter0_d_56_5392)">
<rect width="134" height="48" rx="12" transform="matrix(0.866025 -0.5 0.868804 0.495155 10 68)" fill="#373951" shape-rendering="crispEdges"/>
<rect x="1.73483" y="-0.00484458" width="132" height="46" rx="11" transform="matrix(0.866025 -0.5 0.868804 0.495155 10.2366 68.865)" stroke="#3E405B" stroke-width="2" shape-rendering="crispEdges"/>
<path d="M49.0609 67.088C48.6234 66.8838 48.1451 66.805 47.6261 66.8517C47.1071 66.8984 46.5917 67.0695 46.0799 67.3649C45.7322 67.5657 45.488 67.7633 45.3472 67.9579C45.2032 68.1505 45.1528 68.3325 45.196 68.5039C45.2425 68.6734 45.3743 68.8201 45.5915 68.9439C45.7659 69.0508 45.9616 69.1191 46.1786 69.1486C46.3988 69.1763 46.6321 69.1756 46.8784 69.1467C47.1215 69.1158 47.376 69.0652 47.6419 68.9947C47.9046 68.9223 48.1705 68.8368 48.4396 68.738L49.5622 68.3391C50.1005 68.1415 50.6356 67.9836 51.1676 67.8653C51.6995 67.7469 52.2201 67.6786 52.7293 67.6602C53.2386 67.6418 53.7299 67.6828 54.2033 67.7833C54.68 67.8819 55.1306 68.0502 55.5552 68.2884C56.1706 68.6429 56.5495 69.0395 56.692 69.4783C56.8345 69.9133 56.7389 70.3706 56.4051 70.8503C56.0713 71.3262 55.4943 71.8009 54.6742 72.2743C53.8607 72.744 53.0271 73.0819 52.1734 73.2878C51.3229 73.4919 50.4836 73.5517 49.6554 73.4673C48.8271 73.3791 48.0412 73.1325 47.2975 72.7275L49.3592 71.5372C49.7211 71.7171 50.1009 71.8225 50.4986 71.8535C50.8962 71.8806 51.297 71.8437 51.7008 71.7427C52.1047 71.6379 52.4903 71.4794 52.8577 71.2673C53.2185 71.059 53.4792 70.8481 53.6396 70.6347C53.8033 70.4193 53.8651 70.2156 53.8252 70.0235C53.7852 69.8313 53.6434 69.6659 53.3999 69.5271C53.1728 69.3977 52.9147 69.3277 52.6255 69.3172C52.3397 69.3048 52.0145 69.3415 51.65 69.4274C51.2888 69.5113 50.8801 69.634 50.4238 69.7955L49.0501 70.2715C47.9931 70.6438 46.9981 70.8464 46.0651 70.8792C45.1321 70.9119 44.2937 70.7145 43.5499 70.2868C42.9345 69.9398 42.5621 69.5413 42.4327 69.0912C42.3066 68.6392 42.4039 68.1734 42.7245 67.6938C43.0452 67.2142 43.5729 66.7622 44.3077 66.338C45.0557 65.9062 45.8368 65.6024 46.6512 65.4267C47.4688 65.2492 48.2622 65.2008 49.0312 65.2816C49.8003 65.3623 50.4909 65.5715 51.103 65.9091L49.0609 67.088ZM63.3997 67.2424C62.6354 67.6836 61.8115 67.9724 60.928 68.1087C60.0445 68.2412 59.159 68.2277 58.2714 68.0681C57.3805 67.9066 56.5468 67.6045 55.7701 67.1619C54.9869 66.7155 54.4532 66.2383 54.1693 65.7302C53.882 65.2202 53.8526 64.7123 54.0812 64.2066C54.3098 63.697 54.8062 63.2216 55.5706 62.7803C56.3349 62.339 57.1588 62.0521 58.0423 61.9196C58.9258 61.7833 59.8129 61.7959 60.7038 61.9574C61.5914 62.117 62.4268 62.42 63.21 62.8664C63.9867 63.3091 64.5187 63.7854 64.8059 64.2954C65.0899 64.8034 65.1176 65.3123 64.8891 65.8218C64.6605 66.3275 64.164 66.8011 63.3997 67.2424ZM61.7805 66.3083C62.1282 66.1075 62.3198 65.8836 62.3553 65.6366C62.3874 65.3877 62.2898 65.1307 62.0623 64.8656C61.8382 64.5986 61.5056 64.3394 61.0646 64.0881C60.6236 63.8368 60.1697 63.6477 59.7028 63.5208C59.2391 63.3921 58.7905 63.3377 58.3568 63.3578C57.9232 63.3778 57.5325 63.4882 57.1847 63.689C56.8337 63.8917 56.6389 64.1193 56.6002 64.372C56.5647 64.6228 56.6591 64.8817 56.8832 65.1487C57.1107 65.4138 57.4449 65.672 57.8859 65.9233C58.3269 66.1747 58.7792 66.3647 59.2428 66.4935C59.7098 66.6203 60.1617 66.6728 60.5986 66.6508C61.0356 66.6251 61.4295 66.5109 61.7805 66.3083ZM71.8976 62.3361C71.1234 62.7831 70.2929 63.0738 69.4062 63.2082C68.5194 63.3388 67.6322 63.3225 66.7446 63.1591C65.8603 62.9938 65.0348 62.6927 64.268 62.2556C63.4913 61.813 62.9593 61.3386 62.6721 60.8324C62.3848 60.3224 62.3538 59.8136 62.5791 59.306C62.8011 58.7965 63.2943 58.3211 64.0586 57.8798C64.718 57.4991 65.4154 57.2342 66.151 57.0851C66.8866 56.9361 67.6159 56.902 68.339 56.9829C69.0621 57.0638 69.7313 57.2627 70.3466 57.5795L68.3685 58.7215C67.9343 58.538 67.4822 58.4498 67.0124 58.4567C66.5426 58.4599 66.1157 58.5723 65.7319 58.7939C65.4072 58.9814 65.2123 59.1959 65.1472 59.4373C65.0822 59.675 65.1502 59.9283 65.3514 60.1973C65.5526 60.4662 65.8918 60.7367 66.369 61.0086C66.8527 61.2844 67.3297 61.4809 67.7999 61.5984C68.2734 61.7139 68.7203 61.7522 69.1408 61.7134C69.5612 61.6745 69.9338 61.5613 70.2586 61.3738C70.4981 61.2355 70.6636 61.0834 70.7551 60.9172C70.8499 60.7492 70.8659 60.5758 70.8029 60.3969C70.74 60.2143 70.5949 60.0356 70.3677 59.861L72.3458 58.7189C72.8922 59.068 73.2448 59.4496 73.4037 59.8638C73.5626 60.2742 73.5194 60.6918 73.2741 61.1166C73.0289 61.5413 72.57 61.9479 71.8976 62.3361ZM76.4671 59.528L68.8848 55.2066L70.981 53.9964L78.5633 58.3178L76.4671 59.528ZM68.9604 54.0416C68.6488 54.2216 68.2777 54.3168 67.8474 54.3275C67.4169 54.3343 67.0553 54.2543 66.7624 54.0873C66.4728 53.9223 66.3342 53.7172 66.3467 53.4722C66.3591 53.2234 66.5212 53.009 66.8328 52.8291C67.1445 52.6491 67.5155 52.5557 67.9459 52.5489C68.3763 52.5383 68.7363 52.6155 69.0259 52.7805C69.3188 52.9475 69.459 53.1553 69.4465 53.4042C69.4341 53.6492 69.272 53.8617 68.9604 54.0416ZM83.1509 55.8107C82.5768 56.1421 81.9088 56.3579 81.1468 56.458C80.3848 56.5544 79.578 56.5161 78.7266 56.3432C77.8751 56.1666 77.0264 55.8372 76.1807 55.3552C75.3119 54.86 74.7289 54.3678 74.4318 53.8786C74.1315 53.3875 74.0694 52.9269 74.2456 52.4967C74.4219 52.0627 74.7872 51.6856 75.3415 51.3656C75.7647 51.1212 76.1898 50.9589 76.6167 50.8786C77.0436 50.7944 77.4509 50.7631 77.8387 50.7847C78.2264 50.8024 78.5683 50.8429 78.8642 50.9062L78.9281 50.8693L77.6545 50.1434L79.7458 48.936L87.3281 53.2574L85.2614 54.4506L84.0471 53.7585L83.9585 53.8096C84.0707 53.9865 84.1403 54.1861 84.1672 54.4084C84.1941 54.627 84.1323 54.8571 83.9818 55.0987C83.8346 55.3385 83.5577 55.5758 83.1509 55.8107ZM82.1417 54.4734C82.4796 54.2783 82.6729 54.0611 82.7215 53.8216C82.7701 53.5783 82.6889 53.325 82.4779 53.0617C82.2701 52.7966 81.9408 52.5355 81.49 52.2785C81.0391 52.0216 80.5852 51.8344 80.1281 51.7169C79.6711 51.5994 79.234 51.5573 78.8168 51.5905C78.3996 51.6237 78.0221 51.7379 77.6842 51.9329C77.3397 52.1318 77.1432 52.3529 77.0946 52.5961C77.046 52.8394 77.1272 53.0908 77.3382 53.3503C77.5492 53.6098 77.8736 53.8643 78.3113 54.1138C78.7522 54.3651 79.2029 54.5523 79.6632 54.6754C80.1236 54.7948 80.5656 54.8416 80.9894 54.8159C81.4132 54.7864 81.7973 54.6723 82.1417 54.4734ZM81.038 45.2903L91.1477 51.0521L89.0515 52.2624L78.9418 46.5006L81.038 45.2903ZM85.9635 42.4466L88.5911 40.9295L98.1588 43.1985L98.2769 43.1303L94.2596 37.6568L96.8872 36.1398L106.997 41.9016L104.93 43.0947L98.3501 39.3445L98.2664 39.3928L102.189 44.6206L100.782 45.4331L91.6186 43.2026L91.535 43.2509L98.1399 47.0152L96.0732 48.2084L85.9635 42.4466ZM112.306 39.0066C111.528 39.4554 110.701 39.7518 109.824 39.8956C108.947 40.0356 108.067 40.0268 107.182 39.869C106.295 39.7094 105.451 39.4017 104.651 38.946C103.871 38.5014 103.338 38.0242 103.05 37.5142C102.763 37.0042 102.729 36.4973 102.948 35.9935C103.17 35.4878 103.651 35.0209 104.393 34.5928C104.891 34.305 105.436 34.0829 106.027 33.9267C106.618 33.7667 107.234 33.6849 107.875 33.6812C108.519 33.6757 109.173 33.7587 109.837 33.9302C110.498 34.0999 111.151 34.3685 111.796 34.7361L112.373 35.0653L105.991 38.75L104.688 38.0072L109.097 35.4618C108.794 35.2892 108.46 35.1742 108.096 35.1168C107.731 35.0594 107.366 35.0604 107.001 35.1199C106.637 35.1756 106.302 35.2915 105.997 35.4676C105.679 35.6513 105.471 35.8564 105.373 36.0828C105.275 36.3055 105.28 36.527 105.389 36.7472C105.495 36.9655 105.696 37.161 105.992 37.3335L107.231 38.0397C107.607 38.2535 108 38.3985 108.41 38.4746C108.825 38.5489 109.234 38.5543 109.638 38.491C110.042 38.4277 110.419 38.2947 110.77 38.092C111.003 37.9576 111.183 37.8157 111.311 37.6664C111.439 37.5172 111.506 37.3653 111.512 37.2107C111.518 37.0561 111.462 36.9036 111.343 36.7532L113.41 35.707C113.779 36.0302 113.985 36.3792 114.029 36.7542C114.073 37.1253 113.952 37.5045 113.668 37.8917C113.383 38.2751 112.929 38.6467 112.306 39.0066ZM119.903 34.5919C119.329 34.9234 118.661 35.1392 117.899 35.2393C117.137 35.3357 116.33 35.2974 115.479 35.1245C114.627 34.9478 113.778 34.6185 112.933 34.1364C112.064 33.6413 111.481 33.1491 111.184 32.6599C110.883 32.1688 110.821 31.7081 110.998 31.2779C111.174 30.8439 111.539 30.4669 112.093 30.1468C112.517 29.9025 112.942 29.7402 113.369 29.6598C113.796 29.5757 114.203 29.5444 114.591 29.5659C114.978 29.5837 115.32 29.6242 115.616 29.6875L115.68 29.6505L111.879 27.4842L113.97 26.2768L124.08 32.0386L122.013 33.2318L120.799 32.5397L120.71 32.5909C120.823 32.7677 120.892 32.9673 120.919 33.1896C120.946 33.4082 120.884 33.6383 120.734 33.88C120.587 34.1198 120.31 34.3571 119.903 34.5919ZM118.894 33.2547C119.232 33.0596 119.425 32.8423 119.473 32.6028C119.522 32.3595 119.441 32.1063 119.23 31.843C119.022 31.5778 118.693 31.3167 118.242 31.0598C117.791 30.8028 117.337 30.6156 116.88 30.4982C116.423 30.3807 115.986 30.3386 115.569 30.3718C115.152 30.405 114.774 30.5191 114.436 30.7142C114.092 30.913 113.895 31.1341 113.847 31.3774C113.798 31.6207 113.879 31.8721 114.09 32.1316C114.301 32.3911 114.626 32.6456 115.063 32.895C115.504 33.1463 115.955 33.3336 116.415 33.4567C116.876 33.576 117.318 33.6228 117.741 33.5971C118.165 33.5677 118.549 33.4535 118.894 33.2547ZM125.803 31.0436L118.221 26.7223L120.317 25.512L127.9 29.8334L125.803 31.0436ZM118.297 25.5573C117.985 25.7372 117.614 25.8325 117.184 25.8431C116.753 25.8499 116.392 25.7699 116.099 25.603C115.809 25.4379 115.671 25.2329 115.683 24.9878C115.696 24.739 115.858 24.5246 116.169 24.3447C116.481 24.1648 116.852 24.0714 117.282 24.0645C117.713 24.0539 118.073 24.1311 118.362 24.2962C118.655 24.4631 118.795 24.671 118.783 24.9198C118.77 25.1648 118.608 25.3773 118.297 25.5573ZM132.487 27.3263C131.913 27.6577 131.245 27.8735 130.483 27.9737C129.721 28.07 128.914 28.0318 128.063 27.8589C127.211 27.6822 126.363 27.3528 125.517 26.8708C124.648 26.3756 124.065 25.8835 123.768 25.3943C123.468 24.9032 123.406 24.4425 123.582 24.0123C123.758 23.5783 124.124 23.2013 124.678 22.8812C125.101 22.6369 125.526 22.4745 125.953 22.3942C126.38 22.3101 126.787 22.2788 127.175 22.3003C127.563 22.3181 127.905 22.3586 128.201 22.4218L128.265 22.3849L126.991 21.659L129.082 20.4517L136.664 24.773L134.598 25.9662L133.383 25.2741L133.295 25.3252C133.407 25.5021 133.477 25.7017 133.504 25.924C133.53 26.1426 133.469 26.3727 133.318 26.6144C133.171 26.8541 132.894 27.0915 132.487 27.3263ZM131.478 25.989C131.816 25.794 132.009 25.5767 132.058 25.3372C132.106 25.0939 132.025 24.8406 131.814 24.5773C131.607 24.3122 131.277 24.0511 130.826 23.7942C130.375 23.5372 129.922 23.35 129.465 23.2325C129.007 23.1151 128.57 23.0729 128.153 23.1061C127.736 23.1393 127.358 23.2535 127.021 23.4486C126.676 23.6474 126.48 23.8685 126.431 24.1118C126.382 24.355 126.464 24.6064 126.675 24.8659C126.886 25.1254 127.21 25.3799 127.648 25.6294C128.089 25.8807 128.539 26.0679 129 26.191C129.46 26.3104 129.902 26.3572 130.326 26.3315C130.75 26.3021 131.134 26.1879 131.478 25.989Z" fill="white"/>
</g>
<defs>
<filter id="filter0_d_56_5392" x="-6" y="-3" width="189.75" height="122.768" filterUnits="userSpaceOnUse" color-interpolation-filters="sRGB">
<feFlood flood-opacity="0" result="BackgroundImageFix"/>
<feColorMatrix in="SourceAlpha" type="matrix" values="0 0 0 0 0 0 0 0 0 0 0 0 0 0 0 0 0 0 127 0" result="hardAlpha"/>
<feOffset dy="12"/>
<feGaussianBlur stdDeviation="8"/>
<feComposite in2="hardAlpha" operator="out"/>
<feColorMatrix type="matrix" values="0 0 0 0 0 0 0 0 0 0 0 0 0 0 0 0 0 0 0.3 0"/>
<feBlend mode="normal" in2="BackgroundImageFix" result="effect1_dropShadow_56_5392"/>
<feBlend mode="normal" in="SourceGraphic" in2="effect1_dropShadow_56_5392" result="shape"/>
</filter>
</defs>
</svg>
