<svg width="205" height="132" viewBox="0 0 205 132" fill="none" xmlns="http://www.w3.org/2000/svg">
<g filter="url(#filter0_d_46_5069)">
<rect width="165" height="48" rx="12" transform="matrix(0.866025 -0.5 0.868804 0.495155 10 83.5)" fill="#373951" shape-rendering="crispEdges"/>
<rect x="1.73483" y="-0.00484458" width="163" height="46" rx="11" transform="matrix(0.866025 -0.5 0.868804 0.495155 10.2366 84.365)" stroke="#3E405B" stroke-width="2" shape-rendering="crispEdges"/>
<path d="M42.0651 85.3132L40.3028 84.3088L48.5792 79.5304L50.3415 80.5348L47.2563 82.316L55.6038 87.0734L53.4977 88.2894L45.1503 83.5319L42.0651 85.3132ZM62.5091 83.2566C61.7316 83.7054 60.9044 84.0018 60.0276 84.1456C59.1507 84.2856 58.2701 84.2768 57.3858 84.119C56.4982 83.9594 55.6546 83.6517 54.8549 83.196C54.0749 82.7514 53.5413 82.2742 53.254 81.7642C52.9668 81.2542 52.9325 80.7473 53.1512 80.2435C53.3732 79.7378 53.8549 79.2709 54.5963 78.8428C55.0949 78.555 55.6397 78.3329 56.2307 78.1767C56.8217 78.0167 57.4375 77.9349 58.0782 77.9312C58.7222 77.9257 59.3763 78.0087 60.0405 78.1802C60.7014 78.3499 61.3543 78.6185 61.9994 78.9861L62.5769 79.3153L56.1949 83L54.8917 82.2572L59.3005 79.7118C58.9978 79.5392 58.664 79.4242 58.2991 79.3668C57.9342 79.3094 57.5695 79.3104 57.205 79.3699C56.8404 79.4256 56.5056 79.5415 56.2005 79.7176C55.8823 79.9013 55.6742 80.1064 55.5763 80.3328C55.4784 80.5555 55.4839 80.777 55.5929 80.9972C55.6987 81.2155 55.8997 81.411 56.1959 81.5835L57.4349 82.2897C57.8101 82.5035 58.2031 82.6485 58.614 82.7246C59.0282 82.7989 59.4373 82.8043 59.8413 82.741C60.2452 82.6777 60.6227 82.5447 60.9737 82.342C61.2066 82.2076 61.387 82.0657 61.5147 81.9164C61.6424 81.7672 61.7093 81.6153 61.7155 81.4607C61.7216 81.3061 61.6653 81.1536 61.5466 81.0032L63.6137 79.957C63.9826 80.2802 64.1889 80.6292 64.2327 81.0042C64.2764 81.3753 64.1559 81.7545 63.8711 82.1417C63.5864 82.5251 63.1323 82.8967 62.5091 83.2566ZM67.1979 80.3796L59.6156 76.0582L61.6478 74.8849L62.9708 75.6389L63.0495 75.5934C62.7167 75.2457 62.5925 74.9096 62.6771 74.5852C62.7583 74.2589 63.0105 73.9736 63.4337 73.7293C63.5386 73.6686 63.6584 73.6071 63.7929 73.5445C63.9275 73.4819 64.0522 73.4307 64.1671 73.3908L66.033 74.4542C65.905 74.4942 65.7425 74.5578 65.5456 74.645C65.3487 74.7323 65.1781 74.8176 65.0338 74.9009C64.7254 75.0789 64.5173 75.2765 64.4095 75.4935C64.3017 75.7068 64.2957 75.9217 64.3916 76.1382C64.4908 76.3527 64.695 76.5482 65.0044 76.7245L69.2941 79.1693L67.1979 80.3796ZM72.8677 77.1061L65.2854 72.7848L67.2831 71.6313L68.6209 72.3938L68.7095 72.3426C68.4227 71.9985 68.3346 71.6473 68.4453 71.2888C68.556 70.9304 68.8673 70.6035 69.379 70.308C69.8973 70.0088 70.4685 69.8281 71.0926 69.7661C71.7134 69.7022 72.305 69.7608 72.8674 69.9421L72.9461 69.8966C72.6659 69.56 72.5975 69.2012 72.741 68.82C72.8845 68.4351 73.2335 68.0827 73.7879 67.7626C74.4931 67.3554 75.291 67.1534 76.1814 67.1565C77.0719 67.1559 77.9284 67.3901 78.7512 67.859L83.8505 70.7652L81.7592 71.9726L77.0746 69.3027C76.6533 69.0626 76.2259 68.947 75.7922 68.9557C75.3585 68.9645 74.9743 69.0654 74.6397 69.2586C74.2592 69.4783 74.0841 69.7191 74.1144 69.981C74.1414 70.241 74.3524 70.4836 74.7473 70.7086L79.3776 73.3476L77.3454 74.5209L72.6164 71.8257C72.2445 71.6137 71.8417 71.5065 71.408 71.5039C70.9775 71.4995 70.5901 71.5967 70.2457 71.7955C70.0127 71.93 69.862 72.085 69.7935 72.2604C69.725 72.4322 69.7419 72.6093 69.8443 72.7918C69.9434 72.9725 70.1328 73.1425 70.4125 73.3019L74.9638 75.8959L72.8677 77.1061ZM86.3746 63.0895L84.574 64.2649C84.3767 64.1901 84.1581 64.1464 83.9182 64.1339C83.675 64.1195 83.4253 64.1409 83.1692 64.1982C82.9131 64.2517 82.6636 64.3485 82.4209 64.4886C82.0961 64.6761 81.8913 64.8737 81.8065 65.0812C81.7183 65.2869 81.7878 65.4545 82.0149 65.5839C82.1959 65.687 82.4211 65.7326 82.6905 65.7205C82.9599 65.7085 83.3079 65.6227 83.7346 65.4632L85.379 64.8309C86.2652 64.493 87.0565 64.3155 87.753 64.2985C88.4496 64.2814 89.071 64.4286 89.6173 64.74C90.1142 65.0232 90.4043 65.356 90.4875 65.7383C90.574 66.1188 90.4699 66.5149 90.1754 66.9266C89.8808 67.3346 89.4055 67.7279 88.7494 68.1067C87.7489 68.6844 86.7427 69.0255 85.731 69.1301C84.7193 69.2309 83.8006 69.1044 82.9749 68.7505L84.9281 67.4982C85.2965 67.6367 85.681 67.6827 86.0817 67.6364C86.4792 67.5881 86.8649 67.4561 87.2388 67.2402C87.6062 67.028 87.8307 66.8173 87.9123 66.6078C87.9938 66.3946 87.9227 66.2224 87.6989 66.091C87.5047 65.9842 87.2681 65.9415 86.9888 65.963C86.7063 65.9826 86.3681 66.0684 85.9743 66.2203L84.4038 66.8268C83.5176 67.1686 82.7114 67.3395 81.9853 67.3396C81.2624 67.3379 80.618 67.1757 80.0519 66.8531C79.5649 66.5755 79.2765 66.2606 79.1868 65.9084C79.1004 65.5543 79.2012 65.1846 79.4893 64.7993C79.7806 64.4121 80.2494 64.032 80.8957 63.6589C81.8503 63.1077 82.8039 62.7894 83.7565 62.7038C84.7124 62.6163 85.5851 62.7449 86.3746 63.0895ZM100.057 61.5783C99.2926 62.0196 98.4687 62.3084 97.5852 62.4447C96.7017 62.5772 95.8162 62.5636 94.9286 62.404C94.0377 62.2425 93.204 61.9405 92.4273 61.4978C91.6441 61.0514 91.1105 60.5742 90.8265 60.0661C90.5392 59.5561 90.5099 59.0483 90.7384 58.5425C90.967 58.033 91.4635 57.5576 92.2278 57.1163C92.9921 56.675 93.816 56.3881 94.6995 56.2556C95.583 56.1193 96.4702 56.1319 97.361 56.2934C98.2486 56.453 99.084 56.756 99.8673 57.2024C100.644 57.645 101.176 58.1213 101.463 58.6313C101.747 59.1394 101.775 59.6482 101.546 60.1577C101.318 60.6635 100.821 61.137 100.057 61.5783ZM98.4377 60.6442C98.7855 60.4434 98.9771 60.2196 99.0125 59.9726C99.0447 59.7237 98.947 59.4667 98.7196 59.2016C98.4954 58.9345 98.1628 58.6754 97.7218 58.424C97.2809 58.1727 96.8269 57.9836 96.36 57.8568C95.8963 57.728 95.4477 57.6737 95.014 57.6937C94.5804 57.7138 94.1897 57.8242 93.842 58.0249C93.491 58.2276 93.2961 58.4553 93.2574 58.7079C93.2219 58.9587 93.3163 59.2176 93.5405 59.4846C93.7679 59.7497 94.1022 60.0079 94.5431 60.2593C94.9841 60.5106 95.4364 60.7006 95.9001 60.8294C96.367 60.9563 96.8189 61.0087 97.2559 60.9868C97.6928 60.961 98.0867 60.8469 98.4377 60.6442ZM101.474 51.8913L103.054 52.7916L98.3888 55.4848L96.8092 54.5845L101.474 51.8913ZM105.459 58.2894L97.329 53.6557C96.7794 53.3425 96.4303 53.0212 96.2815 52.6917C96.136 52.3604 96.1597 52.0352 96.3527 51.7162C96.5457 51.3971 96.88 51.1003 97.3556 50.8256C97.6771 50.64 97.9954 50.4846 98.3105 50.3593C98.6288 50.2321 98.8733 50.1419 99.0441 50.0887L100.25 51.2049C100.141 51.2372 100.015 51.2819 99.8706 51.3388C99.7295 51.3939 99.5966 51.4574 99.4719 51.5293C99.1636 51.7074 99.0211 51.8727 99.0445 52.0253C99.0647 52.176 99.2031 52.3245 99.4598 52.4708L107.551 57.082L105.459 58.2894ZM111.848 46.338C111.41 46.1338 110.932 46.055 110.413 46.1017C109.894 46.1484 109.379 46.3195 108.867 46.6149C108.519 46.8157 108.275 47.0133 108.134 47.2079C107.99 47.4005 107.94 47.5825 107.983 47.7539C108.029 47.9234 108.161 48.0701 108.378 48.1939C108.553 48.3008 108.748 48.3691 108.965 48.3986C109.186 48.4263 109.419 48.4256 109.665 48.3967C109.908 48.3658 110.163 48.3152 110.429 48.2447C110.691 48.1723 110.957 48.0868 111.226 47.988L112.349 47.5891C112.887 47.3915 113.422 47.2336 113.954 47.1153C114.486 46.9969 115.007 46.9286 115.516 46.9102C116.025 46.8918 116.517 46.9328 116.99 47.0333C117.467 47.1319 117.917 47.3002 118.342 47.5384C118.957 47.8929 119.336 48.2895 119.479 48.7283C119.621 49.1633 119.526 49.6206 119.192 50.1003C118.858 50.5762 118.281 51.0509 117.461 51.5243C116.648 51.994 115.814 52.3319 114.96 52.5378C114.11 52.7419 113.27 52.8017 112.442 52.7173C111.614 52.6291 110.828 52.3825 110.084 51.9775L112.146 50.7872C112.508 50.9671 112.888 51.0725 113.285 51.1035C113.683 51.1306 114.084 51.0937 114.488 50.9927C114.892 50.8879 115.277 50.7294 115.645 50.5173C116.005 50.309 116.266 50.0981 116.426 49.8847C116.59 49.6693 116.652 49.4656 116.612 49.2735C116.572 49.0813 116.43 48.9159 116.187 48.7771C115.96 48.6477 115.702 48.5777 115.412 48.5672C115.126 48.5548 114.801 48.5915 114.437 48.6774C114.076 48.7613 113.667 48.884 113.211 49.0455L111.837 49.5215C110.78 49.8938 109.785 50.0964 108.852 50.1292C107.919 50.1619 107.08 49.9645 106.337 49.5368C105.721 49.1898 105.349 48.7913 105.22 48.3412C105.093 47.8892 105.191 47.4234 105.511 46.9438C105.832 46.4642 106.36 46.0122 107.095 45.588C107.842 45.1562 108.624 44.8524 109.438 44.6767C110.256 44.4992 111.049 44.4508 111.818 44.5316C112.587 44.6123 113.278 44.8215 113.89 45.1591L111.848 46.338ZM126.216 46.4753C125.439 46.9242 124.611 47.2205 123.735 47.3643C122.858 47.5044 121.977 47.4955 121.093 47.3378C120.205 47.1782 119.362 46.8705 118.562 46.4147C117.782 45.9702 117.248 45.4929 116.961 44.983C116.674 44.473 116.639 43.9661 116.858 43.4622C117.08 42.9565 117.562 42.4896 118.303 42.0616C118.802 41.7737 119.347 41.5517 119.938 41.3955C120.529 41.2355 121.145 41.1537 121.785 41.15C122.429 41.1444 123.083 41.2274 123.747 41.399C124.408 41.5686 125.061 41.8373 125.706 42.2049L126.284 42.5341L119.902 46.2187L118.599 45.476L123.008 42.9305C122.705 42.758 122.371 42.643 122.006 42.5856C121.641 42.5282 121.276 42.5292 120.912 42.5886C120.547 42.6443 120.213 42.7602 119.908 42.9364C119.589 43.1201 119.381 43.3251 119.283 43.5516C119.185 43.7743 119.191 43.9957 119.3 44.2159C119.406 44.4343 119.607 44.6297 119.903 44.8023L121.142 45.5085C121.517 45.7223 121.91 45.8672 122.321 45.9434C122.735 46.0176 123.144 46.0231 123.548 45.9597C123.952 45.8964 124.33 45.7634 124.681 45.5608C124.914 45.4263 125.094 45.2844 125.222 45.1352C125.349 44.9859 125.416 44.834 125.422 44.6795C125.429 44.5249 125.372 44.3724 125.254 44.2219L127.321 43.1758C127.69 43.4989 127.896 43.848 127.94 44.2229C127.983 44.5941 127.863 44.9733 127.578 45.3604C127.293 45.7438 126.839 46.1155 126.216 46.4753ZM130.905 43.5983L123.323 39.2769L125.355 38.1036L126.678 38.8576L126.757 38.8122C126.424 38.4644 126.3 38.1283 126.384 37.8039C126.465 37.4776 126.717 37.1923 127.141 36.948C127.246 36.8874 127.365 36.8258 127.5 36.7632C127.634 36.7007 127.759 36.6494 127.874 36.6095L129.74 37.673C129.612 37.7129 129.45 37.7765 129.253 37.8638C129.056 37.951 128.885 38.0363 128.741 38.1196C128.432 38.2977 128.224 38.4952 128.116 38.7123C128.009 38.9255 128.003 39.1404 128.099 39.3569C128.198 39.5715 128.402 39.7669 128.711 39.9432L133.001 42.3881L130.905 43.5983ZM136.269 31.8025L141.209 37.6494L138.847 39.0131L128.622 36.2173L130.836 34.9389L137.831 37.1245L137.91 37.0791L134.05 33.0838L136.269 31.8025ZM144.924 35.5046L137.341 31.1832L139.438 29.973L147.02 34.2943L144.924 35.5046ZM137.417 30.0182C137.105 30.1981 136.734 30.2934 136.304 30.304C135.874 30.3109 135.512 30.2308 135.219 30.0639C134.929 29.8989 134.791 29.6938 134.803 29.4487C134.816 29.1999 134.978 28.9855 135.289 28.8056C135.601 28.6257 135.972 28.5323 136.402 28.5255C136.833 28.5148 137.193 28.592 137.482 28.7571C137.775 28.924 137.916 29.1319 137.903 29.3807C137.891 29.6258 137.729 29.8383 137.417 30.0182ZM152.262 31.4377C151.488 31.8846 150.657 32.1753 149.771 32.3097C148.884 32.4404 147.997 32.424 147.109 32.2606C146.225 32.0954 145.399 31.7942 144.632 31.3572C143.856 30.9146 143.324 30.4401 143.037 29.9339C142.749 29.424 142.718 28.9152 142.944 28.4075C143.166 27.898 143.659 27.4226 144.423 26.9813C145.082 26.6006 145.78 26.3358 146.515 26.1867C147.251 26.0376 147.98 26.0036 148.703 26.0845C149.427 26.1654 150.096 26.3642 150.711 26.6811L148.733 27.8231C148.299 27.6396 147.847 27.5513 147.377 27.5583C146.907 27.5615 146.48 27.6739 146.096 27.8955C145.772 28.083 145.577 28.2975 145.512 28.5389C145.447 28.7765 145.515 29.0299 145.716 29.2988C145.917 29.5678 146.256 29.8382 146.733 30.1102C147.217 30.3859 147.694 30.5825 148.164 30.6999C148.638 30.8155 149.085 30.8538 149.505 30.8149C149.926 30.776 150.298 30.6629 150.623 30.4754C150.863 30.3371 151.028 30.1849 151.12 30.0188C151.214 29.8508 151.23 29.6773 151.167 29.4985C151.104 29.3158 150.959 29.1372 150.732 28.9625L152.71 27.8205C153.257 28.1695 153.609 28.5511 153.768 28.9653C153.927 29.3758 153.884 29.7934 153.639 30.2181C153.393 30.6429 152.934 31.0494 152.262 31.4377ZM160.424 26.7253C159.647 27.1742 158.819 27.4705 157.943 27.6143C157.066 27.7544 156.185 27.7455 155.301 27.5878C154.413 27.4282 153.57 27.1205 152.77 26.6647C151.99 26.2202 151.456 25.7429 151.169 25.233C150.882 24.723 150.847 24.2161 151.066 23.7122C151.288 23.2065 151.77 22.7396 152.511 22.3116C153.01 22.0237 153.555 21.8017 154.146 21.6455C154.737 21.4855 155.353 21.4037 155.993 21.4C156.637 21.3944 157.291 21.4774 157.955 21.649C158.616 21.8186 159.269 22.0873 159.914 22.4549L160.492 22.7841L154.11 26.4687L152.807 25.726L157.216 23.1805C156.913 23.008 156.579 22.893 156.214 22.8356C155.849 22.7782 155.485 22.7792 155.12 22.8386C154.755 22.8943 154.421 23.0102 154.116 23.1864C153.797 23.3701 153.589 23.5751 153.491 23.8016C153.393 24.0243 153.399 24.2457 153.508 24.4659C153.614 24.6843 153.815 24.8797 154.111 25.0523L155.35 25.7585C155.725 25.9723 156.118 26.1172 156.529 26.1934C156.943 26.2676 157.352 26.2731 157.756 26.2097C158.16 26.1464 158.538 26.0134 158.889 25.8108C159.122 25.6763 159.302 25.5344 159.43 25.3852C159.557 25.2359 159.624 25.084 159.63 24.9295C159.637 24.7749 159.58 24.6224 159.462 24.4719L161.529 23.4258C161.898 23.7489 162.104 24.098 162.148 24.4729C162.191 24.8441 162.071 25.2233 161.786 25.6104C161.501 25.9938 161.047 26.3655 160.424 26.7253Z" fill="white"/>
</g>
<defs>
<filter id="filter0_d_46_5069" x="-6" y="-3" width="216.597" height="138.268" filterUnits="userSpaceOnUse" color-interpolation-filters="sRGB">
<feFlood flood-opacity="0" result="BackgroundImageFix"/>
<feColorMatrix in="SourceAlpha" type="matrix" values="0 0 0 0 0 0 0 0 0 0 0 0 0 0 0 0 0 0 127 0" result="hardAlpha"/>
<feOffset dy="12"/>
<feGaussianBlur stdDeviation="8"/>
<feComposite in2="hardAlpha" operator="out"/>
<feColorMatrix type="matrix" values="0 0 0 0 0 0 0 0 0 0 0 0 0 0 0 0 0 0 0.3 0"/>
<feBlend mode="normal" in2="BackgroundImageFix" result="effect1_dropShadow_46_5069"/>
<feBlend mode="normal" in="SourceGraphic" in2="effect1_dropShadow_46_5069" result="shape"/>
</filter>
</defs>
</svg>
